<?xml version="1.0" standalone="no"?>
<!DOCTYPE svg PUBLIC "-//W3C//DTD SVG 1.1//EN" "http://www.w3.org/Graphics/SVG/1.1/DTD/svg11.dtd" >
<svg>
<metadata>
Created by FontForge 20090622 at Sun Oct 21 10:32:10 2012
 By ffonts
Copyright (c) 2012 by Brian J. Bonislawsky DBA Astigmatic (AOETI) (astigma@astigmatic.com), with ReservedFont Name "Berkshire Swash"
</metadata>
<defs>
<font id="BerkshireSwash-Regular" horiz-adv-x="463" >
  <font-face 
    font-family="Berkshire Swash"
    font-weight="700"
    font-stretch="normal"
    units-per-em="1000"
    panose-1="2 0 5 5 0 0 0 2 0 3"
    ascent="800"
    descent="-200"
    x-height="507"
    cap-height="730"
    bbox="-191 -262 1220 980"
    underline-thickness="50"
    underline-position="-50"
    unicode-range="U+0020-U+FB02"
  />
<missing-glyph horiz-adv-x="500" 
 />
    <glyph glyph-name="fi" unicode="fi" horiz-adv-x="582" 
d="M-5 465v35h90v58c0 152 109 202 214 202c77 0 156 -22 156 -88c0 -26 -21 -56 -48 -56c-42 0 -36 110 -102 110c-36 0 -70 -23 -70 -114v-112h198c85 0 87 -52 87 -81v-378c0 -17 -8 -49 -77 -49s-73 38 -73 52v386c0 18 -8 35 -28 35h-107v-385
c0 -177 -93 -306 -281 -306c-66 0 -127 23 -127 55c0 23 14 51 38 51c22 0 21 -72 96 -72c100 0 124 129 124 247v410h-90z" />
    <glyph glyph-name="fl" unicode="fl" horiz-adv-x="588" 
d="M-5 500h90v58c0 152 109 202 214 202c29 0 59 -6 85 -21c11 11 39 21 67 21c70 0 75 -40 75 -69v-650c0 -17 -8 -49 -77 -49s-73 38 -73 52v600c-24 20 -21 80 -71 80c-36 0 -70 -24 -70 -106v-118h97v-35h-97v-385c0 -177 -93 -306 -281 -306c-66 0 -127 23 -127 55
c0 23 14 51 38 51c22 0 21 -72 96 -72c100 0 124 129 124 247v410h-90v35z" />
    <glyph glyph-name=".notdef" horiz-adv-x="500" 
 />
    <glyph glyph-name="A" unicode="A" horiz-adv-x="746" 
d="M500 71l-39 135h-184c-55 -172 -124 -252 -237 -252c-63 0 -120 23 -120 55c0 23 14 51 38 51c21 0 25 -69 91 -69c67 0 122 63 171 215h-115v43h128c43 146 84 303 103 391c-13 37 -34 46 -72 46c-70 0 -158 -44 -158 -116c0 -42 26 -46 33 -46c32 0 39 26 59 26
c15 0 38 -13 38 -50c0 -52 -44 -76 -85 -76c-63 0 -101 49 -101 107c0 128 138 199 270 199c125 0 168 -40 191 -120l105 -361h106v-43h-94l38 -128c6 -19 9 -35 26 -35c18 0 34 8 46 14l8 -18c-24 -17 -72 -47 -136 -47c-89 0 -102 51 -110 79zM366 536
c-26 -108 -51 -205 -76 -287h159z" />
    <glyph glyph-name="B" unicode="B" horiz-adv-x="785" 
d="M411 640v-553c0 -30 10 -55 59 -55c72 0 122 90 122 169c0 119 -68 182 -160 187l10 25c57 -2 108 32 108 149c0 80 -42 128 -87 128c-28 0 -52 -12 -52 -50zM421 730c189 0 275 -60 275 -173c0 -112 -104 -147 -104 -147v-7s163 -10 163 -190c0 -137 -99 -221 -292 -221
c-179 0 -215 46 -215 122v534c0 18 -13 27 -37 27c-72 0 -155 -45 -155 -105c0 -42 26 -46 33 -46c32 0 39 26 59 26c15 0 38 -13 38 -50c0 -52 -44 -76 -85 -76c-63 0 -101 46 -101 104c0 163 191 202 421 202z" />
    <glyph glyph-name="C" unicode="C" horiz-adv-x="545" 
d="M375 688c-53 0 -165 -52 -165 -385c0 -316 111 -368 183 -368c51 0 106 27 145 72l22 -22c-39 -48 -109 -106 -218 -106c-170 0 -302 126 -302 425c0 281 139 426 310 426c113 0 191 -44 191 -121c0 -36 -24 -81 -71 -81c-83 0 -2 160 -95 160z" />
    <glyph glyph-name="D" unicode="D" horiz-adv-x="827" 
d="M238 97v547c0 21 -19 31 -37 31c-72 0 -145 -45 -145 -105c0 -42 26 -46 33 -46c32 0 39 26 59 26c15 0 38 -13 38 -50c0 -52 -44 -76 -85 -76c-63 0 -101 46 -101 104c0 163 176 202 388 202c242 0 399 -92 399 -346s-171 -395 -384 -395c-142 0 -165 24 -165 108z
M399 623v-530c0 -37 17 -52 49 -52c98 0 169 77 169 341c0 266 -106 306 -158 306c-42 0 -60 -16 -60 -65z" />
    <glyph glyph-name="E" unicode="E" horiz-adv-x="691" 
d="M0 518c0 152 180 212 401 212c106 0 205 -4 232 -11c26 -6 29 -15 29 -33c0 -15 -7 -41 -24 -41c-16 0 -26 47 -230 47v-313h203v-43h-203v-191c0 -61 39 -87 97 -87c66 0 137 30 167 55l19 -21c-33 -26 -108 -100 -241 -100c-65 0 -202 14 -202 149v195h-76v43h76v307
c-62 -5 -192 -47 -192 -126c0 -42 26 -46 33 -46c32 0 39 26 59 26c15 0 38 -13 38 -50c0 -52 -44 -76 -85 -76c-63 0 -101 46 -101 104z" />
    <glyph glyph-name="F" unicode="F" horiz-adv-x="633" 
d="M601 379v-43h-193v-272c0 -50 -26 -72 -80 -72s-80 22 -80 72v272h-76v43h76v307c-62 -5 -192 -47 -192 -126c0 -42 26 -46 33 -46c32 0 39 26 59 26c15 0 38 -13 38 -50c0 -52 -44 -76 -85 -76c-63 0 -101 46 -101 104c0 152 180 212 401 212c89 0 205 -4 232 -11
c26 -6 29 -15 29 -33c0 -15 -7 -41 -24 -41c-16 0 -26 47 -230 47v-313h193z" />
    <glyph glyph-name="G" unicode="G" horiz-adv-x="667" 
d="M657 344v-43h-70v-287c0 -177 -127 -264 -301 -264c-66 0 -127 23 -127 55c0 23 14 51 38 51c22 0 21 -72 96 -72c100 0 154 77 154 187v30c-27 -6 -54 -9 -88 -9c-177 0 -319 105 -319 349c0 254 175 389 354 389c113 0 201 -44 201 -121c0 -36 -24 -81 -71 -81
c-83 0 -22 160 -115 160c-68 0 -199 -97 -199 -347c0 -278 114 -297 180 -297c23 0 42 4 57 10v247h-86v43h296z" />
    <glyph glyph-name="H" unicode="H" horiz-adv-x="867" 
d="M159 331v43h89v278c0 28 -14 33 -33 33c-43 0 -159 -43 -159 -115c0 -42 26 -46 33 -46c32 0 39 26 59 26c15 0 38 -13 38 -50c0 -52 -44 -76 -85 -76c-63 0 -101 46 -101 104c0 135 155 202 299 202c107 0 109 -47 109 -68v-288h180v235c0 214 123 298 231 298
c74 0 138 -22 138 -66c0 -19 -13 -38 -28 -38c-35 0 -42 73 -92 73c-79 0 -89 -88 -89 -250v-252h98v-43h-98v-297c0 -19 8 -31 25 -31c18 0 34 8 46 14l8 -18c-28 -19 -78 -47 -135 -47c-89 0 -104 52 -104 101v278h-180v-243c0 -177 -137 -264 -311 -264
c-66 0 -127 23 -127 55c0 23 14 51 38 51c22 0 21 -72 96 -72c100 0 144 77 144 187v286h-89z" />
    <glyph glyph-name="I" unicode="I" horiz-adv-x="482" 
d="M408 662v-598c0 -50 -26 -72 -80 -72s-80 22 -80 72v588c0 28 -14 33 -33 33c-43 0 -159 -43 -159 -115c0 -42 26 -46 33 -46c32 0 39 26 59 26c15 0 38 -13 38 -50c0 -52 -44 -76 -85 -76c-63 0 -101 46 -101 104c0 135 155 202 299 202c107 0 109 -47 109 -68z" />
    <glyph glyph-name="J" unicode="J" horiz-adv-x="482" 
d="M408 88c0 -177 -137 -264 -311 -264c-66 0 -127 23 -127 55c0 23 14 51 38 51c22 0 21 -72 96 -72c100 0 144 77 144 187v607c0 28 -14 33 -33 33c-43 0 -159 -43 -159 -115c0 -42 26 -46 33 -46c32 0 39 26 59 26c15 0 38 -13 38 -50c0 -52 -44 -76 -85 -76
c-63 0 -101 46 -101 104c0 135 155 202 299 202c107 0 109 -47 109 -68v-574z" />
    <glyph glyph-name="K" unicode="K" horiz-adv-x="818" 
d="M408 662v-223c175 251 246 322 353 322c42 0 64 -14 64 -41c0 -14 -4 -43 -24 -43c-15 0 -37 35 -78 35c-44 0 -116 -78 -189 -171c195 -445 290 -651 395 -651c18 0 39 13 39 13l10 -19c-22 -13 -79 -40 -152 -40c-149 0 -231 132 -399 549l-19 -28v-301
c0 -50 -26 -72 -80 -72s-80 22 -80 72v588c0 28 -14 33 -33 33c-43 0 -159 -43 -159 -115c0 -42 26 -46 33 -46c32 0 39 26 59 26c15 0 38 -13 38 -50c0 -52 -44 -76 -85 -76c-63 0 -101 46 -101 104c0 135 155 202 299 202c107 0 109 -47 109 -68z" />
    <glyph glyph-name="L" unicode="L" horiz-adv-x="655" 
d="M408 662v-551c0 -56 27 -67 80 -67c85 0 138 43 157 43c12 0 20 -8 20 -23c0 -26 -4 -35 -20 -41c-59 -21 -133 -31 -226 -31c-139 0 -171 21 -171 105v555c0 28 -14 33 -33 33c-43 0 -159 -43 -159 -115c0 -42 26 -46 33 -46c32 0 39 26 59 26c15 0 38 -13 38 -50
c0 -52 -44 -76 -85 -76c-63 0 -101 46 -101 104c0 135 155 202 299 202c107 0 109 -47 109 -68z" />
    <glyph glyph-name="M" unicode="M" horiz-adv-x="1003" 
d="M551 175h-48l-176 350l-6 -118c-13 -206 3 -411 -224 -411c-66 0 -127 23 -127 55c0 23 14 51 38 51c22 0 21 -72 96 -72c100 0 133 71 144 188c6 65 10 118 15 187c7 100 10 183 11 228c-22 45 -32 53 -63 53c-40 0 -139 -44 -139 -116c0 -42 26 -46 33 -46
c32 0 39 26 59 26c15 0 38 -13 38 -50c0 -52 -44 -76 -85 -76c-63 0 -101 46 -101 104c0 135 137 202 269 202c107 0 137 -46 163 -99l129 -262c201 397 287 537 408 537c34 0 58 -15 58 -44c0 -26 -9 -45 -24 -45c-25 0 -20 45 -55 45c-32 0 -110 -52 -103 -160
c11 -164 51 -578 62 -628c4 -19 8 -31 25 -31c18 0 34 8 46 14l8 -18c-24 -17 -72 -47 -136 -47c-89 0 -98 52 -103 81c-18 101 -40 335 -47 442c-58 -95 -88 -165 -165 -340z" />
    <glyph glyph-name="N" unicode="N" horiz-adv-x="815" 
d="M242 469c0 119 -4 202 -4 209c-13 9 -31 8 -47 8c-45 0 -141 -44 -141 -116c0 -42 26 -46 33 -46c32 0 39 26 59 26c15 0 38 -13 38 -50c0 -52 -44 -76 -85 -76c-63 0 -101 46 -101 104c0 135 123 202 255 202c119 0 146 -33 166 -73c80 -161 148 -315 211 -438v70v151
c0 162 16 310 214 310c66 0 115 -20 115 -53c0 -21 -12 -48 -35 -48c-20 0 -25 66 -93 66c-105 0 -136 -77 -141 -196c-3 -82 -3 -151 -3 -249c0 -69 1 -125 2 -160c59 -100 113 -162 170 -162c18 0 35 13 35 13l16 -19c-18 -13 -68 -40 -141 -40c-211 0 -353 439 -467 668
c0 -38 1 -79 1 -120v-151c0 -162 -16 -310 -214 -310c-66 0 -115 20 -115 53c0 21 12 48 35 48c20 0 25 -66 93 -66c105 0 136 77 141 196c3 82 3 151 3 249z" />
    <glyph glyph-name="O" unicode="O" horiz-adv-x="719" 
d="M315 575c0 -68 72 -56 72 -99c0 -24 -20 -37 -42 -37c-41 0 -74 56 -74 124c0 84 53 157 150 157c98 0 258 -91 258 -359c0 -230 -147 -369 -318 -369s-321 115 -321 369c0 196 113 325 245 369l17 -21c-57 -56 -92 -116 -92 -348c0 -301 105 -324 151 -324
s148 23 148 324c0 263 -75 313 -121 313c-47 0 -73 -49 -73 -99z" />
    <glyph glyph-name="P" unicode="P" horiz-adv-x="714" 
d="M408 643v-579c0 -50 -26 -72 -80 -72s-80 22 -80 72v584c0 18 -13 27 -37 27c-72 0 -155 -45 -155 -105c0 -42 26 -46 33 -46c32 0 39 26 59 26c15 0 38 -13 38 -50c0 -52 -44 -76 -85 -76c-63 0 -101 46 -101 104c0 163 191 202 421 202c185 0 283 -74 283 -207
c0 -196 -169 -253 -274 -214l7 21c98 -30 121 63 121 195c0 99 -45 165 -98 165c-42 0 -51 -28 -52 -47z" />
    <glyph glyph-name="Q" unicode="Q" horiz-adv-x="716" 
d="M358 -8c-10 0 -20 1 -29 2c110 -29 296 -144 379 -144c50 0 67 24 70 43l15 -3c-6 -74 -45 -140 -128 -140c-106 0 -336 170 -437 170c-19 0 -33 -8 -41 -25l-15 5c3 23 30 98 111 100c-137 30 -243 145 -243 361c0 254 147 369 318 369s318 -115 318 -369
s-147 -369 -318 -369zM358 691c-46 0 -148 -32 -148 -330s102 -323 148 -323s148 25 148 323s-102 330 -148 330z" />
    <glyph glyph-name="R" unicode="R" horiz-adv-x="790" 
d="M421 730c176 0 273 -66 273 -182c0 -115 -57 -158 -134 -184c106 -30 225 -474 346 -474c13 0 27 7 34 12l10 -19c-26 -14 -75 -39 -152 -39c-63 0 -115 37 -151 100c-74 130 -143 292 -215 411l4 20c77 -20 112 64 112 174c0 78 -35 141 -88 141c-42 0 -52 -28 -52 -47
v-579c0 -50 -26 -72 -80 -72s-80 22 -80 72v584c0 18 -13 27 -37 27c-72 0 -155 -45 -155 -105c0 -42 26 -46 33 -46c32 0 39 26 59 26c15 0 38 -13 38 -50c0 -52 -44 -76 -85 -76c-63 0 -101 46 -101 104c0 163 191 202 421 202z" />
    <glyph glyph-name="S" unicode="S" horiz-adv-x="514" 
d="M213 -71c52 0 106 36 106 138c0 165 -274 291 -274 469c0 119 93 194 206 194c121 0 191 -54 191 -121c0 -31 -18 -71 -59 -71c-72 0 -15 147 -112 147c-35 0 -73 -30 -73 -98c0 -157 285 -274 285 -475c0 -147 -121 -232 -268 -232c-133 0 -206 72 -206 146
c0 31 19 76 57 76c79 0 16 -173 147 -173z" />
    <glyph glyph-name="T" unicode="T" horiz-adv-x="582" 
d="M365 -8c-54 0 -80 22 -80 72v620c-63 -5 -229 -47 -229 -134c0 -42 26 -46 33 -46c32 0 39 26 59 26c15 0 38 -13 38 -50c0 -52 -44 -76 -85 -76c-63 0 -101 46 -101 104c0 152 180 222 401 222c106 0 205 -4 232 -11c26 -6 29 -25 29 -43c0 -15 -7 -41 -24 -41
c-15 0 -25 44 -193 50v-621c0 -50 -26 -72 -80 -72z" />
    <glyph glyph-name="U" unicode="U" horiz-adv-x="838" 
d="M689 -8c-66 0 -84 28 -89 54c-41 -30 -94 -54 -161 -54c-119 0 -211 65 -211 221c0 172 20 226 20 401c0 36 -12 69 -55 69c-42 0 -137 -41 -137 -113c0 -42 26 -46 33 -46c32 0 39 26 59 26c15 0 38 -13 38 -50c0 -52 -44 -76 -85 -76c-63 0 -101 46 -101 104
c0 135 145 202 262 202c134 0 146 -95 146 -116c0 -158 -20 -229 -20 -401c0 -142 64 -165 102 -165c36 0 74 12 108 34v566c0 19 -8 31 -25 31c-18 0 -34 -8 -46 -14l-8 18c33 17 98 47 148 47c89 0 91 -52 91 -81v-575c0 -19 8 -31 25 -31c18 0 34 8 46 14l8 -18
c-33 -17 -98 -47 -148 -47z" />
    <glyph glyph-name="V" unicode="V" horiz-adv-x="739" 
d="M410 567l132 -399c47 121 111 310 111 423c0 86 -29 109 -29 130c0 27 33 39 56 39c26 0 45 -7 52 -26s7 -45 7 -56c0 -110 -158 -568 -191 -651c-12 -30 -36 -35 -65 -35c-52 0 -63 24 -68 39l-185 581c-14 44 -28 61 -72 61c-36 0 -105 -36 -105 -103
c0 -42 26 -46 33 -46c32 0 39 26 59 26c15 0 38 -13 38 -50c0 -52 -44 -76 -85 -76c-63 0 -98 47 -98 104c0 135 114 202 229 202c131 0 157 -88 181 -163z" />
    <glyph glyph-name="W" unicode="W" horiz-adv-x="1053" 
d="M410 567l122 -396c29 77 64 180 86 274l-47 155c-13 43 34 64 83 64c43 0 67 -7 77 -41l140 -451c45 121 106 307 106 419c0 86 -29 109 -29 130c0 27 33 39 56 39c26 0 45 -7 52 -26s7 -45 7 -56c0 -110 -155 -567 -186 -651c-11 -31 -36 -35 -65 -35
c-52 0 -63 24 -68 39l-97 319c-43 -142 -92 -282 -109 -323c-13 -31 -38 -35 -66 -35c-52 0 -63 24 -68 39l-174 581c-13 44 -28 61 -72 61c-36 0 -105 -36 -105 -103c0 -42 26 -46 33 -46c32 0 39 26 59 26c15 0 38 -13 38 -50c0 -52 -44 -76 -85 -76c-63 0 -98 47 -98 104
c0 135 114 202 229 202c131 0 157 -88 181 -163z" />
    <glyph glyph-name="X" unicode="X" horiz-adv-x="651" 
d="M297 622l65 -128c33 133 89 236 195 236c66 0 119 -23 123 -55c2 -23 -8 -51 -32 -51c-22 0 -19 72 -94 72c-78 0 -120 -137 -148 -289l164 -320c13 -26 27 -39 48 -39s37 11 49 21l12 -15c-27 -27 -81 -62 -143 -62s-106 19 -152 108l-73 142
c-35 -140 -97 -250 -207 -250c-66 0 -129 23 -133 55c-2 23 8 51 32 51c22 0 29 -72 104 -72c80 0 130 145 159 304l-155 305c-13 26 -27 39 -48 39s-37 -11 -49 -21l-12 15c27 27 81 62 143 62s106 -19 152 -108z" />
    <glyph glyph-name="Y" unicode="Y" horiz-adv-x="598" 
d="M82 -228c95 0 165 106 224 247c-70 233 -146 423 -214 551c-36 68 -77 104 -111 104c-21 0 -37 -11 -49 -21l-12 15c27 27 81 62 161 62c41 0 101 -11 146 -74c50 -70 106 -200 169 -382c40 121 78 243 122 335c46 97 91 151 182 151c34 0 58 -15 58 -44
c0 -26 -9 -45 -24 -45c-25 0 -22 45 -57 45c-200 0 -217 -978 -598 -978c-66 0 -129 23 -133 55c-2 23 8 51 32 51c22 0 29 -72 104 -72z" />
    <glyph glyph-name="Z" unicode="Z" horiz-adv-x="582" 
d="M324 34c70 0 161 20 161 88c0 40 -36 35 -36 35c-19 0 -30 -11 -43 -11c-14 0 -32 12 -32 40c0 52 43 73 77 73c66 0 101 -48 101 -99c0 -129 -114 -166 -291 -166c-211 0 -251 36 -251 71c0 30 18 61 62 132l244 390c16 26 35 55 35 71c0 34 -75 32 -102 32
c-70 0 -164 -24 -164 -94c0 -39 36 -34 36 -34c18 0 29 11 42 11c10 0 31 -12 31 -40c0 -50 -42 -71 -75 -71c-65 0 -99 52 -99 97c0 138 165 169 285 169c155 0 221 -27 221 -67c0 -27 -12 -57 -54 -125l-252 -407c-13 -21 -24 -41 -24 -58c0 -29 36 -37 128 -37z" />
    <glyph glyph-name="a" unicode="a" horiz-adv-x="498" 
d="M281 134v119c0 16 -12 25 -28 25c-45 0 -85 -42 -85 -120c0 -75 24 -96 51 -96c34 0 62 38 62 72zM203 467c-44 0 -77 -23 -77 -40c0 -20 49 -11 49 -53c0 -27 -24 -48 -52 -48c-36 0 -61 27 -61 68c0 79 92 113 177 113c101 0 192 -43 192 -148v-276c0 -12 1 -30 20 -30
c12 0 22 11 30 20l12 -10c-19 -27 -54 -71 -121 -71c-41 0 -76 24 -86 75c-42 -56 -90 -75 -138 -75c-62 0 -123 37 -123 134c0 118 102 142 203 182c38 15 54 48 54 79c0 48 -30 80 -79 80z" />
    <glyph glyph-name="b" unicode="b" horiz-adv-x="522" 
d="M336 243c0 113 -23 206 -80 206c-44 0 -61 -50 -61 -60v-146c0 -142 24 -203 70 -203c49 0 71 64 71 203zM45 237v437c0 19 -8 35 -29 35c-11 0 -18 -4 -27 -11l-10 12c30 25 74 50 129 50c76 0 87 -51 87 -83v-218c16 14 47 48 119 48c84 0 175 -74 175 -255
c0 -142 -77 -260 -227 -260c-163 0 -217 113 -217 245z" />
    <glyph glyph-name="c" unicode="c" 
d="M371 338c-40 0 -54 27 -54 54c0 35 15 69 -28 69c-46 0 -107 -50 -107 -174c0 -137 51 -228 152 -228c46 0 81 23 112 50l12 -12c-30 -40 -92 -104 -205 -104c-114 0 -223 90 -223 242c0 177 146 272 255 272c97 0 143 -48 143 -99c0 -38 -19 -70 -57 -70z" />
    <glyph glyph-name="d" unicode="d" horiz-adv-x="514" 
d="M332 265c0 15 2 94 -12 149c-16 20 -33 39 -63 39c-51 0 -74 -65 -74 -204c0 -122 21 -207 71 -207c51 0 78 75 78 223zM326 480c-24 131 -90 230 -182 230c-52 0 -84 -31 -93 -38l-13 17c31 41 93 71 152 71c193 0 292 -175 292 -441c0 -215 -90 -327 -234 -327
c-100 0 -218 67 -218 257c0 164 99 258 213 258c45 0 68 -16 83 -27z" />
    <glyph glyph-name="e" unicode="e" 
d="M380 338l-193 -114c0 -63 55 -165 152 -165c46 0 76 23 107 50l12 -12c-30 -40 -92 -104 -205 -104c-114 0 -223 82 -223 246c0 177 146 268 255 268c97 0 143 -45 143 -96c0 -30 -19 -55 -48 -73zM285 323c17 11 22 18 22 48c0 33 -14 86 -51 86
c-71 0 -74 -137 -74 -193z" />
    <glyph glyph-name="f" unicode="f" horiz-adv-x="325" 
d="M302 726c-37 0 -67 -30 -67 -106v-120h107v-35h-107v-385c0 -177 -93 -306 -281 -306c-66 0 -127 23 -127 55c0 23 14 51 38 51c22 0 21 -72 96 -72c100 0 124 129 124 247v410h-90v35h90v57c0 173 139 203 204 203c93 0 143 -30 143 -62c0 -23 -14 -51 -38 -51
c-22 0 -27 79 -92 79z" />
    <glyph glyph-name="g" unicode="g" horiz-adv-x="510" 
d="M40 307c0 133 100 200 213 200c56 0 109 -15 148 -46c12 19 21 40 21 61c0 27 -16 45 -39 45v14c29 10 41 13 63 13c30 0 47 -20 47 -53c0 -39 -40 -78 -70 -102c27 -31 43 -73 43 -126c0 -134 -100 -207 -213 -207c-33 0 -66 6 -94 17c-10 -8 -19 -20 -19 -34
c0 -97 366 28 366 -176c0 -112 -151 -152 -261 -152c-132 0 -215 26 -215 90c0 46 46 76 90 97c-32 14 -57 41 -57 86c0 48 38 83 68 103c-54 32 -91 89 -91 170zM319 311c0 75 -13 150 -66 150s-66 -78 -66 -154s13 -155 66 -155s66 83 66 159zM393 -126
c0 62 -160 53 -233 63c-27 -20 -52 -46 -52 -75c0 -50 62 -64 133 -64c96 0 152 35 152 76z" />
    <glyph glyph-name="h" unicode="h" horiz-adv-x="533" 
d="M212 679v-265s62 93 143 93c88 0 138 -62 138 -256c0 -284 -167 -330 -237 -332l-5 20c58 14 92 66 92 304c0 164 -33 186 -64 186c-38 0 -57 -46 -67 -59v-326c0 -17 -6 -52 -75 -52s-75 38 -75 52v630c0 19 -8 35 -29 35c-11 0 -18 -4 -27 -11l-10 12
c30 25 74 50 129 50c85 0 87 -52 87 -81z" />
    <glyph glyph-name="i" unicode="i" horiz-adv-x="279" 
d="M217 426v-382c0 -17 -8 -52 -77 -52s-73 38 -73 52v377c0 19 -8 35 -29 35c-11 0 -18 -4 -27 -11l-10 12c30 25 74 50 129 50c85 0 87 -52 87 -81zM52 618c0 37 35 68 80 68c44 0 79 -31 79 -68s-35 -67 -79 -67c-45 0 -80 30 -80 67z" />
    <glyph glyph-name="j" unicode="j" horiz-adv-x="279" 
d="M52 618c0 37 35 68 80 68c44 0 79 -31 79 -68s-35 -67 -79 -67c-45 0 -80 30 -80 67zM67 55v366c0 19 -8 35 -29 35c-11 0 -18 -4 -27 -11l-10 12c30 25 74 50 129 50c85 0 87 -52 87 -81v-346c0 -177 -93 -306 -281 -306c-66 0 -127 23 -127 55c0 23 14 51 38 51
c22 0 21 -72 96 -72c100 0 124 129 124 247z" />
    <glyph glyph-name="k" unicode="k" horiz-adv-x="531" 
d="M212 679v-305c46 61 102 133 185 133c74 0 97 -67 97 -98c0 -57 -26 -126 -117 -173c123 -259 232 -371 321 -371c16 0 34 10 34 10l9 -17c-35 -20 -68 -36 -153 -36c-115 0 -221 73 -360 404c125 93 135 157 135 192c0 6 -1 27 -26 27c-48 0 -102 -93 -125 -150v-252
c0 -17 -8 -51 -77 -51s-73 38 -73 52v630c0 19 -8 35 -29 35c-11 0 -18 -4 -27 -11l-10 12c30 25 74 50 129 50c85 0 87 -52 87 -81z" />
    <glyph glyph-name="l" unicode="l" horiz-adv-x="274" 
d="M212 679v-636c0 -17 -8 -51 -77 -51s-73 38 -73 52v630c0 19 -8 35 -29 35c-11 0 -18 -4 -27 -11l-10 12c30 25 74 50 129 50c85 0 87 -52 87 -81z" />
    <glyph glyph-name="m" unicode="m" horiz-adv-x="806" 
d="M478 370v-327c0 -17 -6 -51 -75 -51s-75 38 -75 52v345c0 18 -10 40 -31 40c-35 0 -71 -46 -80 -59v-327c0 -17 -6 -51 -75 -51s-75 38 -75 52v377c0 19 -8 35 -29 35c-11 0 -18 -4 -27 -11l-10 12c30 25 74 50 129 50c85 0 87 -64 87 -93c0 0 79 93 157 93
c76 0 104 -62 104 -93c0 0 79 93 157 93c76 0 104 -62 104 -120v-302c0 -12 1 -30 20 -30c12 0 22 11 30 20l12 -10c-19 -27 -59 -73 -126 -73c-57 0 -86 32 -86 71v326c0 18 -10 40 -31 40c-35 0 -71 -46 -80 -59z" />
    <glyph glyph-name="n" unicode="n" horiz-adv-x="538" 
d="M348 243c0 164 -33 186 -64 186c-38 0 -57 -46 -67 -59v-326c0 -17 -6 -52 -75 -52s-75 38 -75 52v377c0 19 -8 35 -29 35c-11 0 -18 -4 -27 -11l-10 12c30 25 74 50 129 50c85 0 87 -64 87 -93c0 0 62 93 143 93c88 0 138 -62 138 -256c0 -284 -167 -330 -237 -332
l-5 20c58 14 92 66 92 304z" />
    <glyph glyph-name="o" unicode="o" horiz-adv-x="512" 
d="M30 250c0 171 106 257 226 257s226 -79 226 -250s-106 -265 -226 -265s-226 87 -226 258zM330 255c0 104 -10 202 -74 202s-74 -103 -74 -207s10 -208 74 -208s74 109 74 213z" />
    <glyph glyph-name="p" unicode="p" horiz-adv-x="543" 
d="M67 -198v619c0 19 -8 35 -29 35c-11 0 -18 -4 -27 -11l-10 12c30 25 74 50 129 50c58 0 83 -41 86 -61c26 36 72 61 123 61c104 0 172 -87 172 -251c0 -190 -86 -264 -172 -264c-72 0 -106 34 -122 48v-238c0 -17 -6 -52 -75 -52s-75 38 -75 52zM217 382v-272
c0 -10 17 -60 61 -60c57 0 80 93 80 206c0 139 -32 189 -81 189c-29 0 -60 -36 -60 -63z" />
    <glyph glyph-name="q" unicode="q" horiz-adv-x="512" 
d="M30 250c0 171 106 257 226 257s226 -79 226 -250s-106 -265 -226 -265h-3c110 -31 289 -142 382 -142c42 0 56 14 63 33l15 -3c-6 -74 -49 -124 -121 -124c-126 0 -330 170 -444 170c-19 0 -33 -8 -41 -25l-15 5c3 22 29 89 104 94c-93 24 -166 108 -166 250zM330 255
c0 104 -10 202 -74 202s-74 -103 -74 -207s10 -208 74 -208s74 109 74 213z" />
    <glyph glyph-name="r" unicode="r" horiz-adv-x="397" 
d="M217 404c0 0 64 103 126 103c33 0 53 -21 53 -57c0 -22 -3 -40 -13 -69h-14c-4 20 -18 35 -45 35c-40 0 -80 -33 -107 -56v-317c0 -17 -6 -51 -75 -51s-75 38 -75 52v377c0 19 -8 35 -29 35c-11 0 -18 -4 -27 -11l-10 12c30 25 74 50 129 50c85 0 87 -74 87 -103z" />
    <glyph glyph-name="s" unicode="s" horiz-adv-x="379" 
d="M218 468c-30 0 -56 -16 -56 -53c0 -75 187 -150 187 -275c0 -93 -67 -148 -170 -148c-89 0 -147 58 -169 91l17 12c17 -20 53 -48 91 -48c47 0 80 23 80 67c0 74 -166 162 -166 271c0 82 73 122 148 122c87 0 146 -32 146 -96c0 -25 -17 -46 -46 -46c-28 0 -43 13 -43 34
c0 28 33 28 33 39c0 18 -22 30 -52 30z" />
    <glyph glyph-name="t" unicode="t" horiz-adv-x="337" 
d="M295 465h-76v-361c0 -34 14 -46 37 -46c35 0 56 48 56 48l15 -7c-20 -42 -47 -106 -149 -106c-57 0 -110 34 -110 110v362h-55v35c37 0 143 34 167 144h39v-144h80c26 0 39 4 39 13c0 13 -32 5 -32 35c0 18 13 29 31 29c23 0 35 -22 35 -43c0 -42 -23 -69 -77 -69z" />
    <glyph glyph-name="u" unicode="u" horiz-adv-x="555" 
d="M488 436v-351c0 -12 1 -30 20 -30c12 0 22 11 30 20l12 -10c-19 -27 -59 -73 -126 -73c-57 0 -86 32 -86 71v22s-82 -93 -163 -93c-79 0 -108 62 -108 120v302c0 12 -1 30 -20 30c-12 0 -22 -11 -30 -20l-12 10c19 27 59 73 126 73c57 0 86 -32 86 -71v-326
c0 -18 11 -40 34 -40c38 0 77 46 87 59v285c0 12 -1 30 -20 30c-12 0 -22 -11 -30 -20l-12 10c19 27 59 73 126 73c57 0 86 -32 86 -71z" />
    <glyph glyph-name="v" unicode="v" horiz-adv-x="477" 
d="M48 415c-4 26 -11 41 -32 41c-11 0 -18 -4 -27 -11l-10 12c30 25 74 50 129 50c78 0 92 -61 97 -98c24 -196 53 -300 94 -300c45 0 87 106 87 236c0 86 -28 114 -28 135c0 19 36 27 50 27c19 0 26 -4 31 -19c6 -19 8 -52 8 -87c0 -151 -61 -409 -199 -409
c-163 0 -184 310 -200 423z" />
    <glyph glyph-name="w" unicode="w" horiz-adv-x="751" 
d="M656 352c0 86 -28 107 -28 128c0 19 36 27 50 27c19 0 26 -4 31 -19c6 -19 8 -52 8 -87c0 -151 -51 -409 -189 -409c-73 0 -115 62 -141 141c-30 -80 -77 -141 -144 -141c-163 0 -174 310 -190 423c-4 26 -11 41 -32 41c-11 0 -18 -4 -27 -11l-10 12c30 25 74 50 129 50
c78 0 92 -61 97 -98c24 -196 43 -300 84 -300c27 0 53 48 69 120c-13 72 -18 143 -25 186c-10 61 8 92 72 92c56 0 75 -17 84 -89c25 -196 44 -309 85 -309c45 0 77 118 77 243z" />
    <glyph glyph-name="x" unicode="x" horiz-adv-x="481" 
d="M215 433l64 -109l54 81c18 28 24 61 29 78s16 24 42 24c15 0 28 -5 28 -17c0 -19 -14 -48 -36 -79l-91 -130l127 -212c14 -23 21 -28 34 -28c7 0 14 4 23 11l10 -12c-30 -25 -64 -50 -123 -50c-66 0 -95 52 -114 84l-71 119l-66 -99c-18 -28 -24 -61 -29 -78
s-16 -24 -42 -24c-15 0 -28 5 -28 17c0 19 11 43 36 79l104 148l-117 197c-8 13 -13 23 -26 23c-7 0 -14 -4 -23 -11l-10 12c30 25 70 50 125 50c62 0 81 -42 100 -74z" />
    <glyph glyph-name="y" unicode="y" horiz-adv-x="480" 
d="M450 430c0 -357 -219 -656 -444 -656c-57 0 -90 21 -90 53c0 25 16 49 37 49c25 0 27 -59 72 -59c59 0 128 42 190 109c-56 197 -163 530 -221 530c-12 0 -17 -4 -26 -11l-10 12c26 22 54 50 127 50c40 0 74 -15 102 -63c41 -72 87 -204 132 -362c40 84 67 181 67 281
c0 71 -22 98 -22 118s36 26 51 26c35 0 35 -30 35 -77z" />
    <glyph glyph-name="z" unicode="z" horiz-adv-x="427" 
d="M39 122l198 303c6 8 12 19 12 27c0 13 -16 17 -69 17c-97 0 -88 -78 -117 -78c-22 0 -32 32 -32 55c0 35 61 61 167 61c173 0 209 -30 209 -69c0 -21 -23 -53 -30 -63l-203 -311c-2 -3 -8 -11 -8 -19c0 -11 11 -15 72 -15c117 0 103 86 136 86c22 0 34 -37 34 -61
c0 -35 -61 -63 -195 -63c-145 0 -200 23 -200 70c0 19 9 36 26 60z" />
    <glyph glyph-name="germandbls" unicode="&#xdf;" horiz-adv-x="543" 
d="M62 123v449c0 152 118 188 203 188c128 0 193 -71 193 -169c0 -109 -70 -143 -104 -149v-8s159 -10 159 -219c0 -137 -78 -223 -181 -223c-37 0 -67 7 -96 24l8 18c13 -6 25 -7 36 -7c53 0 74 60 74 196c0 133 -31 196 -111 203v19c60 10 73 62 73 146s-26 129 -63 129
c-26 0 -41 -15 -41 -49v-540c0 -284 -167 -330 -237 -332l-5 20c58 14 92 66 92 304z" />
    <glyph glyph-name="Agrave" unicode="&#xc0;" horiz-adv-x="746" 
d="M500 71l-39 135h-184c-55 -172 -124 -252 -237 -252c-63 0 -120 23 -120 55c0 23 14 51 38 51c21 0 25 -69 91 -69c67 0 122 63 171 215h-115v43h128c43 146 84 303 103 391c-13 37 -34 46 -72 46c-70 0 -158 -44 -158 -116c0 -42 26 -46 33 -46c32 0 39 26 59 26
c15 0 38 -13 38 -50c0 -52 -44 -76 -85 -76c-63 0 -101 49 -101 107c0 128 138 199 270 199c125 0 168 -40 191 -120l105 -361h106v-43h-94l38 -128c6 -19 9 -35 26 -35c18 0 34 8 46 14l8 -18c-24 -17 -72 -47 -136 -47c-89 0 -102 51 -110 79zM366 536
c-26 -108 -51 -205 -76 -287h159zM456 785l-10 -14l-173 74c-16 7 -29 20 -29 37c0 23 19 48 43 48c12 0 25 -7 36 -17z" />
    <glyph glyph-name="agrave" unicode="&#xe0;" horiz-adv-x="498" 
d="M281 134v119c0 16 -12 25 -28 25c-45 0 -85 -42 -85 -120c0 -75 24 -96 51 -96c34 0 62 38 62 72zM203 467c-44 0 -77 -23 -77 -40c0 -20 49 -11 49 -53c0 -27 -24 -48 -52 -48c-36 0 -61 27 -61 68c0 79 92 113 177 113c101 0 192 -43 192 -148v-276c0 -12 1 -30 20 -30
c12 0 22 11 30 20l12 -10c-19 -27 -54 -71 -121 -71c-41 0 -76 24 -86 75c-42 -56 -90 -75 -138 -75c-62 0 -123 37 -123 134c0 118 102 142 203 182c38 15 54 48 54 79c0 48 -30 80 -79 80zM325 570l-10 -14l-173 74c-16 7 -29 20 -29 37c0 23 19 48 43 48
c12 0 25 -7 36 -17z" />
    <glyph glyph-name="Aacute" unicode="&#xc1;" horiz-adv-x="746" 
d="M500 71l-39 135h-184c-55 -172 -124 -252 -237 -252c-63 0 -120 23 -120 55c0 23 14 51 38 51c21 0 25 -69 91 -69c67 0 122 63 171 215h-115v43h128c43 146 84 303 103 391c-13 37 -34 46 -72 46c-70 0 -158 -44 -158 -116c0 -42 26 -46 33 -46c32 0 39 26 59 26
c15 0 38 -13 38 -50c0 -52 -44 -76 -85 -76c-63 0 -101 49 -101 107c0 128 138 199 270 199c125 0 168 -40 191 -120l105 -361h106v-43h-94l38 -128c6 -19 9 -35 26 -35c18 0 34 8 46 14l8 -18c-24 -17 -72 -47 -136 -47c-89 0 -102 51 -110 79zM366 536
c-26 -108 -51 -205 -76 -287h159zM313 771l-10 14l133 128c11 10 24 17 36 17c24 0 43 -25 43 -48c0 -17 -13 -30 -29 -37z" />
    <glyph glyph-name="aacute" unicode="&#xe1;" horiz-adv-x="498" 
d="M281 134v119c0 16 -12 25 -28 25c-45 0 -85 -42 -85 -120c0 -75 24 -96 51 -96c34 0 62 38 62 72zM203 467c-44 0 -77 -23 -77 -40c0 -20 49 -11 49 -53c0 -27 -24 -48 -52 -48c-36 0 -61 27 -61 68c0 79 92 113 177 113c101 0 192 -43 192 -148v-276c0 -12 1 -30 20 -30
c12 0 22 11 30 20l12 -10c-19 -27 -54 -71 -121 -71c-41 0 -76 24 -86 75c-42 -56 -90 -75 -138 -75c-62 0 -123 37 -123 134c0 118 102 142 203 182c38 15 54 48 54 79c0 48 -30 80 -79 80zM182 556l-10 14l133 128c11 10 24 17 36 17c24 0 43 -25 43 -48
c0 -17 -13 -30 -29 -37z" />
    <glyph glyph-name="Acircumflex" unicode="&#xc2;" horiz-adv-x="746" 
d="M500 71l-39 135h-184c-55 -172 -124 -252 -237 -252c-63 0 -120 23 -120 55c0 23 14 51 38 51c21 0 25 -69 91 -69c67 0 122 63 171 215h-115v43h128c43 146 84 303 103 391c-13 37 -34 46 -72 46c-70 0 -158 -44 -158 -116c0 -42 26 -46 33 -46c32 0 39 26 59 26
c15 0 38 -13 38 -50c0 -52 -44 -76 -85 -76c-63 0 -101 49 -101 107c0 128 138 199 270 199c125 0 168 -40 191 -120l105 -361h106v-43h-94l38 -128c6 -19 9 -35 26 -35c18 0 34 8 46 14l8 -18c-24 -17 -72 -47 -136 -47c-89 0 -102 51 -110 79zM366 536
c-26 -108 -51 -205 -76 -287h159zM352 930h56l110 -143l-15 -15l-123 84l-123 -84l-15 15z" />
    <glyph glyph-name="acircumflex" unicode="&#xe2;" horiz-adv-x="498" 
d="M281 134v119c0 16 -12 25 -28 25c-45 0 -85 -42 -85 -120c0 -75 24 -96 51 -96c34 0 62 38 62 72zM203 467c-44 0 -77 -23 -77 -40c0 -20 49 -11 49 -53c0 -27 -24 -48 -52 -48c-36 0 -61 27 -61 68c0 79 92 113 177 113c101 0 192 -43 192 -148v-276c0 -12 1 -30 20 -30
c12 0 22 11 30 20l12 -10c-19 -27 -54 -71 -121 -71c-41 0 -76 24 -86 75c-42 -56 -90 -75 -138 -75c-62 0 -123 37 -123 134c0 118 102 142 203 182c38 15 54 48 54 79c0 48 -30 80 -79 80zM221 715h56l110 -143l-15 -15l-123 84l-123 -84l-15 15z" />
    <glyph glyph-name="Atilde" unicode="&#xc3;" horiz-adv-x="746" 
d="M500 71l-39 135h-184c-55 -172 -124 -252 -237 -252c-63 0 -120 23 -120 55c0 23 14 51 38 51c21 0 25 -69 91 -69c67 0 122 63 171 215h-115v43h128c43 146 84 303 103 391c-13 37 -34 46 -72 46c-70 0 -158 -44 -158 -116c0 -42 26 -46 33 -46c32 0 39 26 59 26
c15 0 38 -13 38 -50c0 -52 -44 -76 -85 -76c-63 0 -101 49 -101 107c0 128 138 199 270 199c125 0 168 -40 191 -120l105 -361h106v-43h-94l38 -128c6 -19 9 -35 26 -35c18 0 34 8 46 14l8 -18c-24 -17 -72 -47 -136 -47c-89 0 -102 51 -110 79zM366 536
c-26 -108 -51 -205 -76 -287h159zM317 843c-28 0 -47 -27 -52 -55h-22c7 82 49 122 85 122c46 0 83 -48 115 -48c28 0 47 27 52 55h22c-7 -82 -49 -122 -85 -122c-46 0 -83 48 -115 48z" />
    <glyph glyph-name="atilde" unicode="&#xe3;" horiz-adv-x="498" 
d="M281 134v119c0 16 -12 25 -28 25c-45 0 -85 -42 -85 -120c0 -75 24 -96 51 -96c34 0 62 38 62 72zM203 467c-44 0 -77 -23 -77 -40c0 -20 49 -11 49 -53c0 -27 -24 -48 -52 -48c-36 0 -61 27 -61 68c0 79 92 113 177 113c101 0 192 -43 192 -148v-276c0 -12 1 -30 20 -30
c12 0 22 11 30 20l12 -10c-19 -27 -54 -71 -121 -71c-41 0 -76 24 -86 75c-42 -56 -90 -75 -138 -75c-62 0 -123 37 -123 134c0 118 102 142 203 182c38 15 54 48 54 79c0 48 -30 80 -79 80zM186 628c-28 0 -47 -27 -52 -55h-22c7 82 49 122 85 122c46 0 83 -48 115 -48
c28 0 47 27 52 55h22c-7 -82 -49 -122 -85 -122c-46 0 -83 48 -115 48z" />
    <glyph glyph-name="Adieresis" unicode="&#xc4;" horiz-adv-x="746" 
d="M500 71l-39 135h-184c-55 -172 -124 -252 -237 -252c-63 0 -120 23 -120 55c0 23 14 51 38 51c21 0 25 -69 91 -69c67 0 122 63 171 215h-115v43h128c43 146 84 303 103 391c-13 37 -34 46 -72 46c-70 0 -158 -44 -158 -116c0 -42 26 -46 33 -46c32 0 39 26 59 26
c15 0 38 -13 38 -50c0 -52 -44 -76 -85 -76c-63 0 -101 49 -101 107c0 128 138 199 270 199c125 0 168 -40 191 -120l105 -361h106v-43h-94l38 -128c6 -19 9 -35 26 -35c18 0 34 8 46 14l8 -18c-24 -17 -72 -47 -136 -47c-89 0 -102 51 -110 79zM366 536
c-26 -108 -51 -205 -76 -287h159zM241 855c0 29 24 53 53 53s53 -24 53 -53s-24 -53 -53 -53s-53 24 -53 53zM413 855c0 29 24 53 53 53s53 -24 53 -53s-24 -53 -53 -53s-53 24 -53 53z" />
    <glyph glyph-name="adieresis" unicode="&#xe4;" horiz-adv-x="498" 
d="M281 134v119c0 16 -12 25 -28 25c-45 0 -85 -42 -85 -120c0 -75 24 -96 51 -96c34 0 62 38 62 72zM203 467c-44 0 -77 -23 -77 -40c0 -20 49 -11 49 -53c0 -27 -24 -48 -52 -48c-36 0 -61 27 -61 68c0 79 92 113 177 113c101 0 192 -43 192 -148v-276c0 -12 1 -30 20 -30
c12 0 22 11 30 20l12 -10c-19 -27 -54 -71 -121 -71c-41 0 -76 24 -86 75c-42 -56 -90 -75 -138 -75c-62 0 -123 37 -123 134c0 118 102 142 203 182c38 15 54 48 54 79c0 48 -30 80 -79 80zM110 640c0 29 24 53 53 53s53 -24 53 -53s-24 -53 -53 -53s-53 24 -53 53z
M282 640c0 29 24 53 53 53s53 -24 53 -53s-24 -53 -53 -53s-53 24 -53 53z" />
    <glyph glyph-name="Aring" unicode="&#xc5;" horiz-adv-x="746" 
d="M500 71l-39 135h-184c-55 -172 -124 -252 -237 -252c-63 0 -120 23 -120 55c0 23 14 51 38 51c21 0 25 -69 91 -69c67 0 122 63 171 215h-115v43h128c43 146 84 303 103 391c-13 37 -34 46 -72 46c-70 0 -158 -44 -158 -116c0 -42 26 -46 33 -46c32 0 39 26 59 26
c15 0 38 -13 38 -50c0 -52 -44 -76 -85 -76c-63 0 -101 49 -101 107c0 128 138 199 270 199c125 0 168 -40 191 -120l105 -361h106v-43h-94l38 -128c6 -19 9 -35 26 -35c18 0 34 8 46 14l8 -18c-24 -17 -72 -47 -136 -47c-89 0 -102 51 -110 79zM366 536
c-26 -108 -51 -205 -76 -287h159zM271 871c0 60 49 109 109 109s109 -49 109 -109s-49 -109 -109 -109s-109 49 -109 109zM326 871c0 -30 24 -54 54 -54s54 24 54 54s-24 54 -54 54s-54 -24 -54 -54z" />
    <glyph glyph-name="aring" unicode="&#xe5;" horiz-adv-x="498" 
d="M281 134v119c0 16 -12 25 -28 25c-45 0 -85 -42 -85 -120c0 -75 24 -96 51 -96c34 0 62 38 62 72zM203 467c-44 0 -77 -23 -77 -40c0 -20 49 -11 49 -53c0 -27 -24 -48 -52 -48c-36 0 -61 27 -61 68c0 79 92 113 177 113c101 0 192 -43 192 -148v-276c0 -12 1 -30 20 -30
c12 0 22 11 30 20l12 -10c-19 -27 -54 -71 -121 -71c-41 0 -76 24 -86 75c-42 -56 -90 -75 -138 -75c-62 0 -123 37 -123 134c0 118 102 142 203 182c38 15 54 48 54 79c0 48 -30 80 -79 80zM140 656c0 60 49 109 109 109s109 -49 109 -109s-49 -109 -109 -109
s-109 49 -109 109zM195 656c0 -30 24 -54 54 -54s54 24 54 54s-24 54 -54 54s-54 -24 -54 -54z" />
    <glyph glyph-name="AE" unicode="&#xc6;" horiz-adv-x="892" 
d="M812 379v-43h-203v-191c0 -61 39 -87 97 -87c66 0 137 30 167 55l19 -21c-33 -26 -108 -100 -241 -100c-65 0 -202 14 -202 149v65h-162c-60 -169 -130 -252 -242 -252c-66 0 -125 23 -125 55c0 23 14 51 38 51c22 0 21 -72 96 -72c73 0 127 69 178 218h-117v43h131
c58 178 107 372 118 437c-165 -13 -232 -68 -232 -130c0 -42 26 -42 33 -42c32 0 39 26 59 26c15 0 38 -13 38 -50c0 -52 -44 -76 -85 -76c-63 0 -101 47 -101 105c0 148 148 211 399 211c216 0 322 -4 354 -11c30 -6 34 -15 34 -33c0 -15 -7 -41 -24 -41
c-16 0 -26 47 -230 47v-313h203zM449 688h-27c-41 -170 -81 -319 -120 -439h147v439z" />
    <glyph glyph-name="ae" unicode="&#xe6;" horiz-adv-x="707" 
d="M239 507c60 0 110 -16 141 -52c46 34 101 52 149 52c97 0 143 -45 143 -96c0 -30 -19 -55 -48 -73l-193 -114c0 -63 55 -165 152 -165c46 0 76 23 107 50l12 -12c-30 -40 -92 -104 -205 -104c-71 0 -139 31 -181 93c-71 -86 -135 -94 -168 -94c-62 0 -123 37 -123 134
c0 118 102 144 203 184c38 15 54 47 54 76c0 54 -32 81 -79 81c-44 0 -77 -23 -77 -40c0 -20 49 -11 49 -53c0 -27 -24 -48 -52 -48c-36 0 -61 27 -61 68c0 79 92 113 177 113zM219 62c35 0 64 43 71 76c-10 29 -16 63 -16 101c0 18 1 35 4 51c-61 -13 -110 -33 -110 -132
c0 -75 24 -96 51 -96zM533 323c17 11 22 18 22 48c0 33 -14 86 -51 86c-71 0 -74 -137 -74 -193z" />
    <glyph glyph-name="AEacute" unicode="&#x1fc;" horiz-adv-x="892" 
d="M812 379v-43h-203v-191c0 -61 39 -87 97 -87c66 0 137 30 167 55l19 -21c-33 -26 -108 -100 -241 -100c-65 0 -202 14 -202 149v65h-162c-60 -169 -130 -252 -242 -252c-66 0 -125 23 -125 55c0 23 14 51 38 51c22 0 21 -72 96 -72c73 0 127 69 178 218h-117v43h131
c58 178 107 372 118 437c-165 -13 -232 -68 -232 -130c0 -42 26 -42 33 -42c32 0 39 26 59 26c15 0 38 -13 38 -50c0 -52 -44 -76 -85 -76c-63 0 -101 47 -101 105c0 148 148 211 399 211c216 0 322 -4 354 -11c30 -6 34 -15 34 -33c0 -15 -7 -41 -24 -41
c-16 0 -26 47 -230 47v-313h203zM449 688h-27c-41 -170 -81 -319 -120 -439h147v439zM485 771l-10 14l133 128c11 10 24 17 36 17c24 0 43 -25 43 -48c0 -17 -13 -30 -29 -37z" />
    <glyph glyph-name="aeacute" unicode="&#x1fd;" horiz-adv-x="707" 
d="M239 507c60 0 110 -16 141 -52c46 34 101 52 149 52c97 0 143 -45 143 -96c0 -30 -19 -55 -48 -73l-193 -114c0 -63 55 -165 152 -165c46 0 76 23 107 50l12 -12c-30 -40 -92 -104 -205 -104c-71 0 -139 31 -181 93c-71 -86 -135 -94 -168 -94c-62 0 -123 37 -123 134
c0 118 102 144 203 184c38 15 54 47 54 76c0 54 -32 81 -79 81c-44 0 -77 -23 -77 -40c0 -20 49 -11 49 -53c0 -27 -24 -48 -52 -48c-36 0 -61 27 -61 68c0 79 92 113 177 113zM219 62c35 0 64 43 71 76c-10 29 -16 63 -16 101c0 18 1 35 4 51c-61 -13 -110 -33 -110 -132
c0 -75 24 -96 51 -96zM533 323c17 11 22 18 22 48c0 33 -14 86 -51 86c-71 0 -74 -137 -74 -193zM315 556l-10 14l133 128c11 10 24 17 36 17c24 0 43 -25 43 -48c0 -17 -13 -30 -29 -37z" />
    <glyph glyph-name="Amacron" unicode="&#x100;" horiz-adv-x="746" 
d="M500 71l-39 135h-184c-55 -172 -124 -252 -237 -252c-63 0 -120 23 -120 55c0 23 14 51 38 51c21 0 25 -69 91 -69c67 0 122 63 171 215h-115v43h128c43 146 84 303 103 391c-13 37 -34 46 -72 46c-70 0 -158 -44 -158 -116c0 -42 26 -46 33 -46c32 0 39 26 59 26
c15 0 38 -13 38 -50c0 -52 -44 -76 -85 -76c-63 0 -101 49 -101 107c0 128 138 199 270 199c125 0 168 -40 191 -120l105 -361h106v-43h-94l38 -128c6 -19 9 -35 26 -35c18 0 34 8 46 14l8 -18c-24 -17 -72 -47 -136 -47c-89 0 -102 51 -110 79zM366 536
c-26 -108 -51 -205 -76 -287h159zM250 821v69h260v-69h-260z" />
    <glyph glyph-name="amacron" unicode="&#x101;" horiz-adv-x="498" 
d="M281 134v119c0 16 -12 25 -28 25c-45 0 -85 -42 -85 -120c0 -75 24 -96 51 -96c34 0 62 38 62 72zM203 467c-44 0 -77 -23 -77 -40c0 -20 49 -11 49 -53c0 -27 -24 -48 -52 -48c-36 0 -61 27 -61 68c0 79 92 113 177 113c101 0 192 -43 192 -148v-276c0 -12 1 -30 20 -30
c12 0 22 11 30 20l12 -10c-19 -27 -54 -71 -121 -71c-41 0 -76 24 -86 75c-42 -56 -90 -75 -138 -75c-62 0 -123 37 -123 134c0 118 102 142 203 182c38 15 54 48 54 79c0 48 -30 80 -79 80zM119 606v69h260v-69h-260z" />
    <glyph glyph-name="Abreve" unicode="&#x102;" horiz-adv-x="746" 
d="M500 71l-39 135h-184c-55 -172 -124 -252 -237 -252c-63 0 -120 23 -120 55c0 23 14 51 38 51c21 0 25 -69 91 -69c67 0 122 63 171 215h-115v43h128c43 146 84 303 103 391c-13 37 -34 46 -72 46c-70 0 -158 -44 -158 -116c0 -42 26 -46 33 -46c32 0 39 26 59 26
c15 0 38 -13 38 -50c0 -52 -44 -76 -85 -76c-63 0 -101 49 -101 107c0 128 138 199 270 199c125 0 168 -40 191 -120l105 -361h106v-43h-94l38 -128c6 -19 9 -35 26 -35c18 0 34 8 46 14l8 -18c-24 -17 -72 -47 -136 -47c-89 0 -102 51 -110 79zM366 536
c-26 -108 -51 -205 -76 -287h159zM380 782c-68 0 -117 42 -129 135h25c7 -27 29 -67 104 -67s97 40 104 67h25c-12 -93 -61 -135 -129 -135z" />
    <glyph glyph-name="abreve" unicode="&#x103;" horiz-adv-x="498" 
d="M281 134v119c0 16 -12 25 -28 25c-45 0 -85 -42 -85 -120c0 -75 24 -96 51 -96c34 0 62 38 62 72zM203 467c-44 0 -77 -23 -77 -40c0 -20 49 -11 49 -53c0 -27 -24 -48 -52 -48c-36 0 -61 27 -61 68c0 79 92 113 177 113c101 0 192 -43 192 -148v-276c0 -12 1 -30 20 -30
c12 0 22 11 30 20l12 -10c-19 -27 -54 -71 -121 -71c-41 0 -76 24 -86 75c-42 -56 -90 -75 -138 -75c-62 0 -123 37 -123 134c0 118 102 142 203 182c38 15 54 48 54 79c0 48 -30 80 -79 80zM249 567c-68 0 -117 42 -129 135h25c7 -27 29 -67 104 -67s97 40 104 67h25
c-12 -93 -61 -135 -129 -135z" />
    <glyph glyph-name="Aogonek" unicode="&#x104;" horiz-adv-x="746" 
d="M500 71l-39 135h-184c-55 -172 -124 -252 -237 -252c-63 0 -120 23 -120 55c0 23 14 51 38 51c21 0 25 -69 91 -69c67 0 122 63 171 215h-115v43h128c43 146 84 303 103 391c-13 37 -26 46 -71 46c-70 0 -159 -44 -159 -116c0 -42 26 -46 33 -46c32 0 39 26 59 26
c15 0 38 -13 38 -50c0 -52 -44 -76 -85 -76c-63 0 -101 49 -101 107c0 128 138 199 270 199c125 0 168 -40 191 -120l105 -361h106v-43h-94l38 -128c6 -19 9 -35 26 -35c18 0 34 8 46 14l8 -18c-49 -38 -135 -58 -135 -142c0 -38 25 -59 67 -59c34 0 59 9 73 15l8 -18
c-21 -13 -65 -34 -119 -34c-63 0 -104 27 -104 78c0 49 34 83 81 113c-97 0 -109 51 -117 79zM366 536c-26 -108 -51 -205 -76 -287h159z" />
    <glyph glyph-name="aogonek" unicode="&#x105;" horiz-adv-x="498" 
d="M203 467c-44 0 -77 -23 -77 -40c0 -20 49 -11 49 -53c0 -27 -24 -48 -52 -48c-36 0 -61 27 -61 68c0 79 92 113 177 113c101 0 192 -43 192 -148v-276c0 -12 1 -30 20 -30c12 0 22 11 30 20l12 -10c-14 -20 -42 -40 -75 -65c-44 -33 -65 -64 -65 -99c0 -38 25 -59 67 -59
c34 0 59 9 73 15l8 -18c-21 -13 -65 -34 -119 -34c-63 0 -104 31 -104 82c0 49 30 80 73 109c-32 7 -57 30 -65 73c-42 -56 -90 -75 -138 -75c-62 0 -123 37 -123 134c0 118 102 142 203 182c38 15 54 48 54 79c0 48 -30 80 -79 80zM281 134v119c0 16 -12 25 -28 25
c-45 0 -85 -42 -85 -120c0 -75 24 -96 51 -96c34 0 62 38 62 72z" />
    <glyph glyph-name="Ccedilla" unicode="&#xc7;" horiz-adv-x="545" 
d="M375 688c-53 0 -165 -47 -165 -351c0 -289 111 -336 183 -336c51 0 106 27 145 72l22 -22c-39 -48 -109 -106 -218 -106h-16l-5 -22c82 0 122 -40 122 -80c0 -73 -72 -93 -127 -93c-54 0 -94 21 -114 36l9 16c26 -14 56 -20 83 -19c42 2 71 18 71 56c0 47 -43 60 -84 61
l12 49c-146 21 -253 139 -253 388c0 259 139 393 310 393c113 0 191 -44 191 -121c0 -36 -24 -81 -71 -81c-83 0 -2 160 -95 160z" />
    <glyph glyph-name="ccedilla" unicode="&#xe7;" 
d="M371 338c-40 0 -54 27 -54 54c0 35 15 69 -28 69c-46 0 -107 -50 -107 -174c0 -137 51 -228 152 -228c46 0 81 23 112 50l12 -12c-30 -40 -92 -104 -205 -104h-3l-10 -40c82 0 122 -43 122 -86c0 -79 -72 -101 -127 -101c-54 0 -94 21 -114 36l9 16c26 -14 56 -20 83 -19
c42 2 71 20 71 63c0 52 -43 67 -84 68l16 66c-99 17 -186 103 -186 239c0 177 146 272 255 272c97 0 143 -48 143 -99c0 -38 -19 -70 -57 -70z" />
    <glyph glyph-name="Cacute" unicode="&#x106;" horiz-adv-x="545" 
d="M375 688c-53 0 -165 -52 -165 -385c0 -316 111 -368 183 -368c51 0 106 27 145 72l22 -22c-39 -48 -109 -106 -218 -106c-170 0 -302 126 -302 425c0 281 139 426 310 426c113 0 191 -44 191 -121c0 -36 -24 -81 -71 -81c-83 0 -2 160 -95 160zM287 771l-10 14l133 128
c11 10 24 17 36 17c24 0 43 -25 43 -48c0 -17 -13 -30 -29 -37z" />
    <glyph glyph-name="cacute" unicode="&#x107;" 
d="M371 338c-40 0 -54 27 -54 54c0 35 15 69 -28 69c-46 0 -107 -50 -107 -174c0 -137 51 -228 152 -228c46 0 81 23 112 50l12 -12c-30 -40 -92 -104 -205 -104c-114 0 -223 90 -223 242c0 177 146 272 255 272c97 0 143 -48 143 -99c0 -38 -19 -70 -57 -70zM208 556
l-10 14l133 128c11 10 24 17 36 17c24 0 43 -25 43 -48c0 -17 -13 -30 -29 -37z" />
    <glyph glyph-name="Ccircumflex" unicode="&#x108;" horiz-adv-x="545" 
d="M375 688c-53 0 -165 -52 -165 -385c0 -316 111 -368 183 -368c51 0 106 27 145 72l22 -22c-39 -48 -109 -106 -218 -106c-170 0 -302 126 -302 425c0 281 139 426 310 426c113 0 191 -44 191 -121c0 -36 -24 -81 -71 -81c-83 0 -2 160 -95 160zM326 930h56l110 -143
l-15 -15l-123 84l-123 -84l-15 15z" />
    <glyph glyph-name="ccircumflex" unicode="&#x109;" 
d="M371 338c-40 0 -54 27 -54 54c0 35 15 69 -28 69c-46 0 -107 -50 -107 -174c0 -137 51 -228 152 -228c46 0 81 23 112 50l12 -12c-30 -40 -92 -104 -205 -104c-114 0 -223 90 -223 242c0 177 146 272 255 272c97 0 143 -48 143 -99c0 -38 -19 -70 -57 -70zM247 715h56
l110 -143l-15 -15l-123 84l-123 -84l-15 15z" />
    <glyph glyph-name="Cdotaccent" unicode="&#x10a;" horiz-adv-x="545" 
d="M375 688c-53 0 -165 -52 -165 -385c0 -316 111 -368 183 -368c51 0 106 27 145 72l22 -22c-39 -48 -109 -106 -218 -106c-170 0 -302 126 -302 425c0 281 139 426 310 426c113 0 191 -44 191 -121c0 -36 -24 -81 -71 -81c-83 0 -2 160 -95 160zM296 854c0 32 27 59 58 59
c33 0 59 -27 59 -59s-26 -58 -59 -58c-31 0 -58 26 -58 58z" />
    <glyph glyph-name="cdotaccent" unicode="&#x10b;" 
d="M371 338c-40 0 -54 27 -54 54c0 35 15 69 -28 69c-46 0 -107 -50 -107 -174c0 -137 51 -228 152 -228c46 0 81 23 112 50l12 -12c-30 -40 -92 -104 -205 -104c-114 0 -223 90 -223 242c0 177 146 272 255 272c97 0 143 -48 143 -99c0 -38 -19 -70 -57 -70zM217 639
c0 32 27 59 58 59c33 0 59 -27 59 -59s-26 -58 -59 -58c-31 0 -58 26 -58 58z" />
    <glyph glyph-name="Ccaron" unicode="&#x10c;" horiz-adv-x="545" 
d="M375 688c-53 0 -165 -52 -165 -385c0 -316 111 -368 183 -368c51 0 106 27 145 72l22 -22c-39 -48 -109 -106 -218 -106c-170 0 -302 126 -302 425c0 281 139 426 310 426c113 0 191 -44 191 -121c0 -36 -24 -81 -71 -81c-83 0 -2 160 -95 160zM382 772h-56l-110 143
l15 15l123 -84l123 84l15 -15z" />
    <glyph glyph-name="ccaron" unicode="&#x10d;" 
d="M371 338c-40 0 -54 27 -54 54c0 35 15 69 -28 69c-46 0 -107 -50 -107 -174c0 -137 51 -228 152 -228c46 0 81 23 112 50l12 -12c-30 -40 -92 -104 -205 -104c-114 0 -223 90 -223 242c0 177 146 272 255 272c97 0 143 -48 143 -99c0 -38 -19 -70 -57 -70zM303 557h-56
l-110 143l15 15l123 -84l123 84l15 -15z" />
    <glyph glyph-name="Dcaron" unicode="&#x10e;" horiz-adv-x="827" 
d="M238 97v547c0 21 -19 31 -37 31c-72 0 -145 -45 -145 -105c0 -42 26 -46 33 -46c32 0 39 26 59 26c15 0 38 -13 38 -50c0 -52 -44 -76 -85 -76c-63 0 -101 46 -101 104c0 163 176 202 388 202c242 0 399 -92 399 -346s-171 -395 -384 -395c-142 0 -165 24 -165 108z
M399 623v-530c0 -37 17 -52 49 -52c98 0 169 77 169 341c0 266 -106 306 -158 306c-42 0 -60 -16 -60 -65zM448 772h-56l-110 143l15 15l123 -84l123 84l15 -15z" />
    <glyph glyph-name="dcaron" unicode="&#x10f;" horiz-adv-x="608" 
d="M334 265c0 15 2 94 -12 149c-16 20 -33 39 -63 39c-51 0 -74 -65 -74 -204c0 -122 21 -207 71 -207c51 0 78 75 78 223zM328 480c-24 131 -90 230 -182 230c-52 0 -84 -31 -93 -38l-13 17c31 41 93 71 152 71c193 0 292 -175 292 -441c0 -215 -90 -327 -234 -327
c-100 0 -218 67 -218 257c0 164 99 258 213 258c45 0 68 -16 83 -27zM493 534l-15 20c34 23 43 48 43 70c0 25 -17 45 -34 59c-4 5 -6 9 -6 14c0 23 33 53 70 53c35 0 47 -40 47 -62c0 -65 -46 -120 -105 -154z" />
    <glyph glyph-name="Eth" unicode="&#xd0;" horiz-adv-x="827" 
d="M238 97v238h-106v43h106v266c0 21 -19 31 -37 31c-72 0 -145 -45 -145 -105c0 -42 26 -46 33 -46c32 0 39 26 59 26c15 0 38 -13 38 -50c0 -52 -44 -76 -85 -76c-63 0 -101 46 -101 104c0 163 176 202 388 202c242 0 399 -92 399 -346s-171 -395 -384 -395
c-142 0 -165 24 -165 108zM518 378v-43h-119v-242c0 -37 17 -52 49 -52c98 0 169 77 169 341c0 266 -106 306 -158 306c-42 0 -60 -16 -60 -65v-245h119z" />
    <glyph glyph-name="eth" unicode="&#xf0;" horiz-adv-x="512" 
d="M120 603l108 58c-23 25 -51 47 -86 64l8 18c46 -14 87 -33 124 -58l116 62l18 -33l-100 -54c114 -92 174 -237 174 -403c0 -171 -106 -265 -226 -265s-226 77 -226 248s111 247 215 247c35 0 54 -7 68 -15c-9 54 -27 111 -61 159l-115 -62zM330 245c0 65 -3 131 -12 165
c-18 16 -38 27 -62 27c-64 0 -74 -93 -74 -197s10 -198 74 -198s74 99 74 203z" />
    <glyph glyph-name="Dcroat" unicode="&#x110;" horiz-adv-x="827" 
d="M238 97v238h-106v43h106v266c0 21 -19 31 -37 31c-72 0 -145 -45 -145 -105c0 -42 26 -46 33 -46c32 0 39 26 59 26c15 0 38 -13 38 -50c0 -52 -44 -76 -85 -76c-63 0 -101 46 -101 104c0 163 176 202 388 202c242 0 399 -92 399 -346s-171 -395 -384 -395
c-142 0 -165 24 -165 108zM518 378v-43h-119v-242c0 -37 17 -52 49 -52c98 0 169 77 169 341c0 266 -106 306 -158 306c-42 0 -60 -16 -60 -65v-245h119z" />
    <glyph glyph-name="dcroat" unicode="&#x111;" horiz-adv-x="514" 
d="M326 480c-7 38 -18 74 -32 106h-145v38h125c-32 53 -77 86 -130 86c-52 0 -84 -31 -93 -38l-13 17c31 41 93 71 152 71c102 0 179 -50 227 -136h91v-38h-72c30 -72 46 -162 46 -267c0 -215 -90 -327 -234 -327c-100 0 -218 67 -218 257c0 164 99 258 213 258
c45 0 68 -16 83 -27zM332 265c0 15 2 94 -12 149c-16 20 -33 39 -63 39c-51 0 -74 -65 -74 -204c0 -122 21 -207 71 -207c51 0 78 75 78 223z" />
    <glyph glyph-name="Egrave" unicode="&#xc8;" horiz-adv-x="691" 
d="M0 518c0 152 180 212 401 212c106 0 205 -4 232 -11c26 -6 29 -15 29 -33c0 -15 -7 -41 -24 -41c-16 0 -26 47 -230 47v-313h203v-43h-203v-191c0 -61 39 -87 97 -87c66 0 137 30 167 55l19 -21c-33 -26 -108 -100 -241 -100c-65 0 -202 14 -202 149v195h-76v43h76v307
c-62 -5 -192 -47 -192 -126c0 -42 26 -46 33 -46c32 0 39 26 59 26c15 0 38 -13 38 -50c0 -52 -44 -76 -85 -76c-63 0 -101 46 -101 104zM493 785l-10 -14l-173 74c-16 7 -29 20 -29 37c0 23 19 48 43 48c12 0 25 -7 36 -17z" />
    <glyph glyph-name="egrave" unicode="&#xe8;" 
d="M380 338l-193 -114c0 -63 55 -165 152 -165c46 0 76 23 107 50l12 -12c-30 -40 -92 -104 -205 -104c-114 0 -223 82 -223 246c0 177 146 268 255 268c97 0 143 -45 143 -96c0 -30 -19 -55 -48 -73zM285 323c17 11 22 18 22 48c0 33 -14 86 -51 86
c-71 0 -74 -137 -74 -193zM341 570l-10 -14l-173 74c-16 7 -29 20 -29 37c0 23 19 48 43 48c12 0 25 -7 36 -17z" />
    <glyph glyph-name="Eacute" unicode="&#xc9;" horiz-adv-x="691" 
d="M0 518c0 152 180 212 401 212c106 0 205 -4 232 -11c26 -6 29 -15 29 -33c0 -15 -7 -41 -24 -41c-16 0 -26 47 -230 47v-313h203v-43h-203v-191c0 -61 39 -87 97 -87c66 0 137 30 167 55l19 -21c-33 -26 -108 -100 -241 -100c-65 0 -202 14 -202 149v195h-76v43h76v307
c-62 -5 -192 -47 -192 -126c0 -42 26 -46 33 -46c32 0 39 26 59 26c15 0 38 -13 38 -50c0 -52 -44 -76 -85 -76c-63 0 -101 46 -101 104zM350 771l-10 14l133 128c11 10 24 17 36 17c24 0 43 -25 43 -48c0 -17 -13 -30 -29 -37z" />
    <glyph glyph-name="eacute" unicode="&#xe9;" 
d="M380 338l-193 -114c0 -63 55 -165 152 -165c46 0 76 23 107 50l12 -12c-30 -40 -92 -104 -205 -104c-114 0 -223 82 -223 246c0 177 146 268 255 268c97 0 143 -45 143 -96c0 -30 -19 -55 -48 -73zM285 323c17 11 22 18 22 48c0 33 -14 86 -51 86
c-71 0 -74 -137 -74 -193zM198 556l-10 14l133 128c11 10 24 17 36 17c24 0 43 -25 43 -48c0 -17 -13 -30 -29 -37z" />
    <glyph glyph-name="Ecircumflex" unicode="&#xca;" horiz-adv-x="691" 
d="M0 518c0 152 180 212 401 212c106 0 205 -4 232 -11c26 -6 29 -15 29 -33c0 -15 -7 -41 -24 -41c-16 0 -26 47 -230 47v-313h203v-43h-203v-191c0 -61 39 -87 97 -87c66 0 137 30 167 55l19 -21c-33 -26 -108 -100 -241 -100c-65 0 -202 14 -202 149v195h-76v43h76v307
c-62 -5 -192 -47 -192 -126c0 -42 26 -46 33 -46c32 0 39 26 59 26c15 0 38 -13 38 -50c0 -52 -44 -76 -85 -76c-63 0 -101 46 -101 104zM389 930h56l110 -143l-15 -15l-123 84l-123 -84l-15 15z" />
    <glyph glyph-name="ecircumflex" unicode="&#xea;" 
d="M380 338l-193 -114c0 -63 55 -165 152 -165c46 0 76 23 107 50l12 -12c-30 -40 -92 -104 -205 -104c-114 0 -223 82 -223 246c0 177 146 268 255 268c97 0 143 -45 143 -96c0 -30 -19 -55 -48 -73zM285 323c17 11 22 18 22 48c0 33 -14 86 -51 86
c-71 0 -74 -137 -74 -193zM237 715h56l110 -143l-15 -15l-123 84l-123 -84l-15 15z" />
    <glyph glyph-name="Edieresis" unicode="&#xcb;" horiz-adv-x="691" 
d="M0 518c0 152 180 212 401 212c106 0 205 -4 232 -11c26 -6 29 -15 29 -33c0 -15 -7 -41 -24 -41c-16 0 -26 47 -230 47v-313h203v-43h-203v-191c0 -61 39 -87 97 -87c66 0 137 30 167 55l19 -21c-33 -26 -108 -100 -241 -100c-65 0 -202 14 -202 149v195h-76v43h76v307
c-62 -5 -192 -47 -192 -126c0 -42 26 -46 33 -46c32 0 39 26 59 26c15 0 38 -13 38 -50c0 -52 -44 -76 -85 -76c-63 0 -101 46 -101 104zM278 855c0 29 24 53 53 53s53 -24 53 -53s-24 -53 -53 -53s-53 24 -53 53zM450 855c0 29 24 53 53 53s53 -24 53 -53s-24 -53 -53 -53
s-53 24 -53 53z" />
    <glyph glyph-name="edieresis" unicode="&#xeb;" 
d="M380 338l-193 -114c0 -63 55 -165 152 -165c46 0 76 23 107 50l12 -12c-30 -40 -92 -104 -205 -104c-114 0 -223 82 -223 246c0 177 146 268 255 268c97 0 143 -45 143 -96c0 -30 -19 -55 -48 -73zM285 323c17 11 22 18 22 48c0 33 -14 86 -51 86
c-71 0 -74 -137 -74 -193zM126 640c0 29 24 53 53 53s53 -24 53 -53s-24 -53 -53 -53s-53 24 -53 53zM298 640c0 29 24 53 53 53s53 -24 53 -53s-24 -53 -53 -53s-53 24 -53 53z" />
    <glyph glyph-name="Emacron" unicode="&#x112;" horiz-adv-x="691" 
d="M0 518c0 152 180 212 401 212c106 0 205 -4 232 -11c26 -6 29 -15 29 -33c0 -15 -7 -41 -24 -41c-16 0 -26 47 -230 47v-313h203v-43h-203v-191c0 -61 39 -87 97 -87c66 0 137 30 167 55l19 -21c-33 -26 -108 -100 -241 -100c-65 0 -202 14 -202 149v195h-76v43h76v307
c-62 -5 -192 -47 -192 -126c0 -42 26 -46 33 -46c32 0 39 26 59 26c15 0 38 -13 38 -50c0 -52 -44 -76 -85 -76c-63 0 -101 46 -101 104zM287 821v69h260v-69h-260z" />
    <glyph glyph-name="emacron" unicode="&#x113;" 
d="M380 338l-193 -114c0 -63 55 -165 152 -165c46 0 76 23 107 50l12 -12c-30 -40 -92 -104 -205 -104c-114 0 -223 82 -223 246c0 177 146 268 255 268c97 0 143 -45 143 -96c0 -30 -19 -55 -48 -73zM285 323c17 11 22 18 22 48c0 33 -14 86 -51 86
c-71 0 -74 -137 -74 -193zM135 606v69h260v-69h-260z" />
    <glyph glyph-name="Ebreve" unicode="&#x114;" horiz-adv-x="691" 
d="M0 518c0 152 180 212 401 212c106 0 205 -4 232 -11c26 -6 29 -15 29 -33c0 -15 -7 -41 -24 -41c-16 0 -26 47 -230 47v-313h203v-43h-203v-191c0 -61 39 -87 97 -87c66 0 137 30 167 55l19 -21c-33 -26 -108 -100 -241 -100c-65 0 -202 14 -202 149v195h-76v43h76v307
c-62 -5 -192 -47 -192 -126c0 -42 26 -46 33 -46c32 0 39 26 59 26c15 0 38 -13 38 -50c0 -52 -44 -76 -85 -76c-63 0 -101 46 -101 104zM417 782c-68 0 -117 42 -129 135h25c7 -27 29 -67 104 -67s97 40 104 67h25c-12 -93 -61 -135 -129 -135z" />
    <glyph glyph-name="ebreve" unicode="&#x115;" 
d="M380 338l-193 -114c0 -63 55 -165 152 -165c46 0 76 23 107 50l12 -12c-30 -40 -92 -104 -205 -104c-114 0 -223 82 -223 246c0 177 146 268 255 268c97 0 143 -45 143 -96c0 -30 -19 -55 -48 -73zM285 323c17 11 22 18 22 48c0 33 -14 86 -51 86
c-71 0 -74 -137 -74 -193zM265 567c-68 0 -117 42 -129 135h25c7 -27 29 -67 104 -67s97 40 104 67h25c-12 -93 -61 -135 -129 -135z" />
    <glyph glyph-name="Edotaccent" unicode="&#x116;" horiz-adv-x="691" 
d="M0 518c0 152 180 212 401 212c106 0 205 -4 232 -11c26 -6 29 -15 29 -33c0 -15 -7 -41 -24 -41c-16 0 -26 47 -230 47v-313h203v-43h-203v-191c0 -61 39 -87 97 -87c66 0 137 30 167 55l19 -21c-33 -26 -108 -100 -241 -100c-65 0 -202 14 -202 149v195h-76v43h76v307
c-62 -5 -192 -47 -192 -126c0 -42 26 -46 33 -46c32 0 39 26 59 26c15 0 38 -13 38 -50c0 -52 -44 -76 -85 -76c-63 0 -101 46 -101 104zM359 854c0 32 27 59 58 59c33 0 59 -27 59 -59s-26 -58 -59 -58c-31 0 -58 26 -58 58z" />
    <glyph glyph-name="edotaccent" unicode="&#x117;" 
d="M380 338l-193 -114c0 -63 55 -165 152 -165c46 0 76 23 107 50l12 -12c-30 -40 -92 -104 -205 -104c-114 0 -223 82 -223 246c0 177 146 268 255 268c97 0 143 -45 143 -96c0 -30 -19 -55 -48 -73zM285 323c17 11 22 18 22 48c0 33 -14 86 -51 86
c-71 0 -74 -137 -74 -193zM207 639c0 32 27 59 58 59c33 0 59 -27 59 -59s-26 -58 -59 -58c-31 0 -58 26 -58 58z" />
    <glyph glyph-name="Eogonek" unicode="&#x118;" horiz-adv-x="691" 
d="M0 518c0 152 180 212 401 212c106 0 205 -4 232 -11c26 -6 29 -15 29 -33c0 -15 -7 -41 -24 -41c-16 0 -26 47 -230 47v-313h203v-43h-203v-191c0 -61 39 -87 97 -87c66 0 137 30 167 55l19 -21c-50 -41 -158 -99 -158 -172c0 -38 25 -59 67 -59c34 0 59 9 73 15l8 -18
c-21 -13 -65 -34 -119 -34c-63 0 -104 27 -104 78c0 39 19 69 49 95c-18 -3 -37 -5 -57 -5c-65 0 -202 14 -202 149v195h-76v43h76v307c-62 -5 -192 -47 -192 -126c0 -42 26 -46 33 -46c32 0 39 26 59 26c15 0 38 -13 38 -50c0 -52 -44 -76 -85 -76c-63 0 -101 46 -101 104z
" />
    <glyph glyph-name="eogonek" unicode="&#x119;" 
d="M380 338l-193 -114c0 -63 55 -165 152 -165c46 0 76 23 107 50l12 -12c-16 -20 -40 -44 -72 -65c-47 -30 -77 -50 -77 -108c0 -38 25 -59 67 -59c34 0 59 9 73 15l8 -18c-21 -13 -65 -34 -119 -34c-63 0 -104 27 -104 78c0 36 16 64 41 88c-7 0 -14 -1 -22 -1
c-114 0 -223 82 -223 246c0 177 146 268 255 268c97 0 143 -45 143 -96c0 -30 -19 -55 -48 -73zM285 323c17 11 22 18 22 48c0 33 -14 86 -51 86c-71 0 -74 -137 -74 -193z" />
    <glyph glyph-name="Ecaron" unicode="&#x11a;" horiz-adv-x="691" 
d="M0 518c0 152 180 212 401 212c106 0 205 -4 232 -11c26 -6 29 -15 29 -33c0 -15 -7 -41 -24 -41c-16 0 -26 47 -230 47v-313h203v-43h-203v-191c0 -61 39 -87 97 -87c66 0 137 30 167 55l19 -21c-33 -26 -108 -100 -241 -100c-65 0 -202 14 -202 149v195h-76v43h76v307
c-62 -5 -192 -47 -192 -126c0 -42 26 -46 33 -46c32 0 39 26 59 26c15 0 38 -13 38 -50c0 -52 -44 -76 -85 -76c-63 0 -101 46 -101 104zM445 772h-56l-110 143l15 15l123 -84l123 84l15 -15z" />
    <glyph glyph-name="ecaron" unicode="&#x11b;" 
d="M380 338l-193 -114c0 -63 55 -165 152 -165c46 0 76 23 107 50l12 -12c-30 -40 -92 -104 -205 -104c-114 0 -223 82 -223 246c0 177 146 268 255 268c97 0 143 -45 143 -96c0 -30 -19 -55 -48 -73zM285 323c17 11 22 18 22 48c0 33 -14 86 -51 86
c-71 0 -74 -137 -74 -193zM293 557h-56l-110 143l15 15l123 -84l123 84l15 -15z" />
    <glyph glyph-name="Gcircumflex" unicode="&#x11c;" horiz-adv-x="667" 
d="M657 344v-43h-70v-287c0 -177 -127 -264 -301 -264c-66 0 -127 23 -127 55c0 23 14 51 38 51c22 0 21 -72 96 -72c100 0 154 77 154 187v30c-27 -6 -54 -9 -88 -9c-177 0 -319 105 -319 349c0 254 175 389 354 389c113 0 201 -44 201 -121c0 -36 -24 -81 -71 -81
c-83 0 -22 160 -115 160c-68 0 -199 -97 -199 -347c0 -278 114 -297 180 -297c23 0 42 4 57 10v247h-86v43h296zM357 930h56l110 -143l-15 -15l-123 84l-123 -84l-15 15z" />
    <glyph glyph-name="gcircumflex" unicode="&#x11d;" horiz-adv-x="510" 
d="M40 307c0 133 100 200 213 200c56 0 109 -15 148 -46c12 19 21 40 21 61c0 27 -16 45 -39 45v14c29 10 41 13 63 13c30 0 47 -20 47 -53c0 -39 -40 -78 -70 -102c27 -31 43 -73 43 -126c0 -134 -100 -207 -213 -207c-33 0 -66 6 -94 17c-10 -8 -19 -20 -19 -34
c0 -97 366 28 366 -176c0 -112 -151 -152 -261 -152c-132 0 -215 26 -215 90c0 46 46 76 90 97c-32 14 -57 41 -57 86c0 48 38 83 68 103c-54 32 -91 89 -91 170zM319 311c0 75 -13 150 -66 150s-66 -78 -66 -154s13 -155 66 -155s66 83 66 159zM393 -126
c0 62 -160 53 -233 63c-27 -20 -52 -46 -52 -75c0 -50 62 -64 133 -64c96 0 152 35 152 76zM195 715h56l110 -143l-15 -15l-123 84l-123 -84l-15 15z" />
    <glyph glyph-name="Gbreve" unicode="&#x11e;" horiz-adv-x="667" 
d="M657 344v-43h-70v-287c0 -177 -127 -264 -301 -264c-66 0 -127 23 -127 55c0 23 14 51 38 51c22 0 21 -72 96 -72c100 0 154 77 154 187v30c-27 -6 -54 -9 -88 -9c-177 0 -319 105 -319 349c0 254 175 389 354 389c113 0 201 -44 201 -121c0 -36 -24 -81 -71 -81
c-83 0 -22 160 -115 160c-68 0 -199 -97 -199 -347c0 -278 114 -297 180 -297c23 0 42 4 57 10v247h-86v43h296zM385 782c-68 0 -117 42 -129 135h25c7 -27 29 -67 104 -67s97 40 104 67h25c-12 -93 -61 -135 -129 -135z" />
    <glyph glyph-name="gbreve" unicode="&#x11f;" horiz-adv-x="510" 
d="M40 307c0 133 100 200 213 200c56 0 109 -15 148 -46c12 19 21 40 21 61c0 27 -16 45 -39 45v14c29 10 41 13 63 13c30 0 47 -20 47 -53c0 -39 -40 -78 -70 -102c27 -31 43 -73 43 -126c0 -134 -100 -207 -213 -207c-33 0 -66 6 -94 17c-10 -8 -19 -20 -19 -34
c0 -97 366 28 366 -176c0 -112 -151 -152 -261 -152c-132 0 -215 26 -215 90c0 46 46 76 90 97c-32 14 -57 41 -57 86c0 48 38 83 68 103c-54 32 -91 89 -91 170zM319 311c0 75 -13 150 -66 150s-66 -78 -66 -154s13 -155 66 -155s66 83 66 159zM393 -126
c0 62 -160 53 -233 63c-27 -20 -52 -46 -52 -75c0 -50 62 -64 133 -64c96 0 152 35 152 76zM253 567c-68 0 -117 42 -129 135h25c7 -27 29 -67 104 -67s97 40 104 67h25c-12 -93 -61 -135 -129 -135z" />
    <glyph glyph-name="Gdotaccent" unicode="&#x120;" horiz-adv-x="667" 
d="M657 344v-43h-70v-287c0 -177 -127 -264 -301 -264c-66 0 -127 23 -127 55c0 23 14 51 38 51c22 0 21 -72 96 -72c100 0 154 77 154 187v30c-27 -6 -54 -9 -88 -9c-177 0 -319 105 -319 349c0 254 175 389 354 389c113 0 201 -44 201 -121c0 -36 -24 -81 -71 -81
c-83 0 -22 160 -115 160c-68 0 -199 -97 -199 -347c0 -278 114 -297 180 -297c23 0 42 4 57 10v247h-86v43h296zM327 854c0 32 27 59 58 59c33 0 59 -27 59 -59s-26 -58 -59 -58c-31 0 -58 26 -58 58z" />
    <glyph glyph-name="gdotaccent" unicode="&#x121;" horiz-adv-x="510" 
d="M40 307c0 133 100 200 213 200c56 0 109 -15 148 -46c12 19 21 40 21 61c0 27 -16 45 -39 45v14c29 10 41 13 63 13c30 0 47 -20 47 -53c0 -39 -40 -78 -70 -102c27 -31 43 -73 43 -126c0 -134 -100 -207 -213 -207c-33 0 -66 6 -94 17c-10 -8 -19 -20 -19 -34
c0 -97 366 28 366 -176c0 -112 -151 -152 -261 -152c-132 0 -215 26 -215 90c0 46 46 76 90 97c-32 14 -57 41 -57 86c0 48 38 83 68 103c-54 32 -91 89 -91 170zM319 311c0 75 -13 150 -66 150s-66 -78 -66 -154s13 -155 66 -155s66 83 66 159zM393 -126
c0 62 -160 53 -233 63c-27 -20 -52 -46 -52 -75c0 -50 62 -64 133 -64c96 0 152 35 152 76zM195 639c0 32 27 59 58 59c33 0 59 -27 59 -59s-26 -58 -59 -58c-31 0 -58 26 -58 58z" />
    <glyph glyph-name="Gcommaaccent" unicode="&#x122;" horiz-adv-x="667" 
d="M447 -84v85c-27 -6 -54 -9 -88 -9c-177 0 -319 105 -319 349c0 254 175 389 354 389c113 0 201 -44 201 -121c0 -36 -24 -81 -71 -81c-83 0 -22 160 -115 160c-68 0 -199 -97 -199 -347c0 -278 114 -297 180 -297c23 0 42 4 57 10v247h-86v43h296v-43h-70v-219
c0 -284 -157 -330 -227 -332l-5 20c58 14 92 36 92 146zM228 -233l-8 15c37 16 44 30 44 45c0 25 -41 31 -41 66c0 21 18 47 57 47c40 0 60 -32 60 -61c0 -52 -46 -90 -112 -112z" />
    <glyph glyph-name="gcommaaccent" unicode="&#x123;" horiz-adv-x="510" 
d="M40 307c0 133 100 200 213 200c56 0 109 -15 148 -46c12 19 21 40 21 61c0 27 -16 45 -39 45v14c29 10 41 13 63 13c30 0 47 -20 47 -53c0 -39 -40 -78 -70 -102c27 -31 43 -73 43 -126c0 -134 -100 -207 -213 -207c-33 0 -66 6 -94 17c-10 -8 -19 -20 -19 -34
c0 -97 366 28 366 -176c0 -112 -151 -152 -261 -152c-132 0 -215 26 -215 90c0 46 46 76 90 97c-32 14 -57 41 -57 86c0 48 38 83 68 103c-54 32 -91 89 -91 170zM319 311c0 75 -13 150 -66 150s-66 -78 -66 -154s13 -155 66 -155s66 83 66 159zM393 -126
c0 62 -160 53 -233 63c-27 -20 -52 -46 -52 -75c0 -50 62 -64 133 -64c96 0 152 35 152 76zM305 730l8 -15c-37 -16 -44 -30 -44 -45c0 -25 41 -31 41 -66c0 -21 -18 -47 -57 -47c-40 0 -60 32 -60 61c0 52 46 90 112 112z" />
    <glyph glyph-name="Hcircumflex" unicode="&#x124;" horiz-adv-x="867" 
d="M159 331v43h89v278c0 28 -14 33 -33 33c-43 0 -159 -43 -159 -115c0 -42 26 -46 33 -46c32 0 39 26 59 26c15 0 38 -13 38 -50c0 -52 -44 -76 -85 -76c-63 0 -101 46 -101 104c0 135 155 202 299 202c107 0 109 -47 109 -68v-288h180v235c0 214 123 298 231 298
c74 0 138 -22 138 -66c0 -19 -13 -38 -28 -38c-35 0 -42 73 -92 73c-79 0 -89 -88 -89 -250v-252h98v-43h-98v-297c0 -19 8 -31 25 -31c18 0 34 8 46 14l8 -18c-28 -19 -78 -47 -135 -47c-89 0 -104 52 -104 101v278h-180v-243c0 -177 -137 -264 -311 -264
c-66 0 -127 23 -127 55c0 23 14 51 38 51c22 0 21 -72 96 -72c100 0 144 77 144 187v286h-89zM457 960h56l110 -143l-15 -15l-123 84l-123 -84l-15 15z" />
    <glyph glyph-name="hcircumflex" unicode="&#x125;" horiz-adv-x="533" 
d="M212 679v-265s62 93 143 93c88 0 138 -62 138 -256c0 -284 -167 -330 -237 -332l-5 20c58 14 92 66 92 304c0 164 -33 186 -64 186c-38 0 -57 -46 -67 -59v-326c0 -17 -6 -52 -75 -52s-75 38 -75 52v630c0 19 -8 35 -29 35c-11 0 -18 -4 -27 -11l-10 12
c30 25 74 50 129 50c85 0 87 -52 87 -81zM97 961h56l110 -143l-15 -15l-123 84l-123 -84l-15 15z" />
    <glyph glyph-name="Hbar" unicode="&#x126;" horiz-adv-x="867" 
d="M819 907c74 0 138 -22 138 -66c0 -19 -13 -38 -28 -38c-35 0 -42 73 -92 73c-79 0 -89 -88 -89 -250v-107h44v-45h-44v-100h98v-43h-98v-297c0 -19 8 -31 25 -31c18 0 34 8 46 14l8 -18c-28 -19 -78 -47 -135 -47c-89 0 -104 52 -104 101v278h-180v-243
c0 -177 -137 -264 -311 -264c-66 0 -127 23 -127 55c0 23 14 51 38 51c22 0 21 -72 96 -72c100 0 144 77 144 187v286h-89v43h89v100h-44v45h44v133c0 28 -14 33 -33 33c-43 0 -159 -43 -159 -115c0 -42 26 -46 33 -46c32 0 39 26 59 26c15 0 38 -13 38 -50
c0 -52 -44 -76 -85 -76c-63 0 -101 46 -101 104c0 135 155 202 299 202c107 0 109 -47 109 -68v-143h180v90c0 214 123 298 231 298zM408 474v-100h180v100h-180z" />
    <glyph glyph-name="hbar" unicode="&#x127;" horiz-adv-x="550" 
d="M62 44v542h-52v38h52v50c0 19 -8 35 -29 35c-11 0 -18 -4 -27 -11l-10 12c30 25 74 50 129 50c85 0 87 -52 87 -81v-55h107v-38h-107v-172s82 93 163 93c79 0 108 -62 108 -120v-302c0 -12 1 -30 20 -30c12 0 22 11 30 20l12 -10c-19 -27 -59 -73 -126 -73
c-57 0 -86 32 -86 71v326c0 18 -11 40 -34 40c-38 0 -77 -46 -87 -59v-329c0 -17 -6 -49 -75 -49s-75 38 -75 52z" />
    <glyph glyph-name="Igrave" unicode="&#xcc;" horiz-adv-x="482" 
d="M408 662v-598c0 -50 -26 -72 -80 -72s-80 22 -80 72v588c0 28 -14 33 -33 33c-43 0 -159 -43 -159 -115c0 -42 26 -46 33 -46c32 0 39 26 59 26c15 0 38 -13 38 -50c0 -52 -44 -76 -85 -76c-63 0 -101 46 -101 104c0 135 155 202 299 202c107 0 109 -47 109 -68zM383 785
l-10 -14l-173 74c-16 7 -29 20 -29 37c0 23 19 48 43 48c12 0 25 -7 36 -17z" />
    <glyph glyph-name="igrave" unicode="&#xec;" horiz-adv-x="279" 
d="M217 426v-385c0 -17 -8 -49 -77 -49s-73 38 -73 52v377c0 19 -8 35 -29 35c-11 0 -18 -4 -27 -11l-10 12c30 25 74 50 129 50c85 0 87 -52 87 -81zM236 570l-10 -14l-173 74c-16 7 -29 20 -29 37c0 23 19 48 43 48c12 0 25 -7 36 -17z" />
    <glyph glyph-name="Iacute" unicode="&#xcd;" horiz-adv-x="482" 
d="M408 662v-598c0 -50 -26 -72 -80 -72s-80 22 -80 72v588c0 28 -14 33 -33 33c-43 0 -159 -43 -159 -115c0 -42 26 -46 33 -46c32 0 39 26 59 26c15 0 38 -13 38 -50c0 -52 -44 -76 -85 -76c-63 0 -101 46 -101 104c0 135 155 202 299 202c107 0 109 -47 109 -68zM240 771
l-10 14l133 128c11 10 24 17 36 17c24 0 43 -25 43 -48c0 -17 -13 -30 -29 -37z" />
    <glyph glyph-name="iacute" unicode="&#xed;" horiz-adv-x="279" 
d="M217 426v-385c0 -17 -8 -49 -77 -49s-73 38 -73 52v377c0 19 -8 35 -29 35c-11 0 -18 -4 -27 -11l-10 12c30 25 74 50 129 50c85 0 87 -52 87 -81zM34 556l-10 14l133 128c11 10 24 17 36 17c24 0 43 -25 43 -48c0 -17 -13 -30 -29 -37z" />
    <glyph glyph-name="Icircumflex" unicode="&#xce;" horiz-adv-x="482" 
d="M408 662v-598c0 -50 -26 -72 -80 -72s-80 22 -80 72v588c0 28 -14 33 -33 33c-43 0 -159 -43 -159 -115c0 -42 26 -46 33 -46c32 0 39 26 59 26c15 0 38 -13 38 -50c0 -52 -44 -76 -85 -76c-63 0 -101 46 -101 104c0 135 155 202 299 202c107 0 109 -47 109 -68zM279 930
h56l110 -143l-15 -15l-123 84l-123 -84l-15 15z" />
    <glyph glyph-name="icircumflex" unicode="&#xee;" horiz-adv-x="279" 
d="M217 426v-385c0 -17 -8 -49 -77 -49s-73 38 -73 52v377c0 19 -8 35 -29 35c-11 0 -18 -4 -27 -11l-10 12c30 25 74 50 129 50c85 0 87 -52 87 -81zM102 715h56l110 -143l-15 -15l-123 84l-123 -84l-15 15z" />
    <glyph glyph-name="Idieresis" unicode="&#xcf;" horiz-adv-x="482" 
d="M408 662v-598c0 -50 -26 -72 -80 -72s-80 22 -80 72v588c0 28 -14 33 -33 33c-43 0 -159 -43 -159 -115c0 -42 26 -46 33 -46c32 0 39 26 59 26c15 0 38 -13 38 -50c0 -52 -44 -76 -85 -76c-63 0 -101 46 -101 104c0 135 155 202 299 202c107 0 109 -47 109 -68zM168 855
c0 29 24 53 53 53s53 -24 53 -53s-24 -53 -53 -53s-53 24 -53 53zM340 855c0 29 24 53 53 53s53 -24 53 -53s-24 -53 -53 -53s-53 24 -53 53z" />
    <glyph glyph-name="idieresis" unicode="&#xef;" horiz-adv-x="279" 
d="M217 426v-385c0 -17 -8 -49 -77 -49s-73 38 -73 52v377c0 19 -8 35 -29 35c-11 0 -18 -4 -27 -11l-10 12c30 25 74 50 129 50c85 0 87 -52 87 -81zM-9 640c0 29 24 53 53 53s53 -24 53 -53s-24 -53 -53 -53s-53 24 -53 53zM163 640c0 29 24 53 53 53s53 -24 53 -53
s-24 -53 -53 -53s-53 24 -53 53z" />
    <glyph glyph-name="Itilde" unicode="&#x128;" horiz-adv-x="482" 
d="M408 662v-598c0 -50 -26 -72 -80 -72s-80 22 -80 72v588c0 28 -14 33 -33 33c-43 0 -159 -43 -159 -115c0 -42 26 -46 33 -46c32 0 39 26 59 26c15 0 38 -13 38 -50c0 -52 -44 -76 -85 -76c-63 0 -101 46 -101 104c0 135 155 202 299 202c107 0 109 -47 109 -68zM244 843
c-28 0 -47 -27 -52 -55h-22c7 82 49 122 85 122c46 0 83 -48 115 -48c28 0 47 27 52 55h22c-7 -82 -49 -122 -85 -122c-46 0 -83 48 -115 48z" />
    <glyph glyph-name="itilde" unicode="&#x129;" horiz-adv-x="279" 
d="M217 426v-385c0 -17 -8 -49 -77 -49s-73 38 -73 52v377c0 19 -8 35 -29 35c-11 0 -18 -4 -27 -11l-10 12c30 25 74 50 129 50c85 0 87 -52 87 -81zM67 628c-28 0 -47 -27 -52 -55h-22c7 82 49 122 85 122c46 0 83 -48 115 -48c28 0 47 27 52 55h22
c-7 -82 -49 -122 -85 -122c-46 0 -83 48 -115 48z" />
    <glyph glyph-name="Imacron" unicode="&#x12a;" horiz-adv-x="482" 
d="M408 662v-598c0 -50 -26 -72 -80 -72s-80 22 -80 72v588c0 28 -14 33 -33 33c-43 0 -159 -43 -159 -115c0 -42 26 -46 33 -46c32 0 39 26 59 26c15 0 38 -13 38 -50c0 -52 -44 -76 -85 -76c-63 0 -101 46 -101 104c0 135 155 202 299 202c107 0 109 -47 109 -68zM177 821
v69h260v-69h-260z" />
    <glyph glyph-name="imacron" unicode="&#x12b;" horiz-adv-x="279" 
d="M217 426v-385c0 -17 -8 -49 -77 -49s-73 38 -73 52v377c0 19 -8 35 -29 35c-11 0 -18 -4 -27 -11l-10 12c30 25 74 50 129 50c85 0 87 -52 87 -81zM0 606v69h260v-69h-260z" />
    <glyph glyph-name="Ibreve" unicode="&#x12c;" horiz-adv-x="482" 
d="M408 662v-598c0 -50 -26 -72 -80 -72s-80 22 -80 72v588c0 28 -14 33 -33 33c-43 0 -159 -43 -159 -115c0 -42 26 -46 33 -46c32 0 39 26 59 26c15 0 38 -13 38 -50c0 -52 -44 -76 -85 -76c-63 0 -101 46 -101 104c0 135 155 202 299 202c107 0 109 -47 109 -68zM307 782
c-68 0 -117 42 -129 135h25c7 -27 29 -67 104 -67s97 40 104 67h25c-12 -93 -61 -135 -129 -135z" />
    <glyph glyph-name="ibreve" unicode="&#x12d;" horiz-adv-x="279" 
d="M217 426v-385c0 -17 -8 -49 -77 -49s-73 38 -73 52v377c0 19 -8 35 -29 35c-11 0 -18 -4 -27 -11l-10 12c30 25 74 50 129 50c85 0 87 -52 87 -81zM130 567c-68 0 -117 42 -129 135h25c7 -27 29 -67 104 -67s97 40 104 67h25c-12 -93 -61 -135 -129 -135z" />
    <glyph glyph-name="Iogonek" unicode="&#x12e;" horiz-adv-x="482" 
d="M408 662v-598c0 -40 -17 -62 -51 -69c-41 -27 -67 -68 -67 -105c0 -38 25 -59 67 -59c34 0 59 9 73 15l8 -18c-21 -13 -65 -34 -119 -34c-63 0 -104 27 -104 78c0 54 37 92 87 122c-37 6 -54 28 -54 70v588c0 28 -14 33 -33 33c-43 0 -159 -43 -159 -115
c0 -42 26 -46 33 -46c32 0 39 26 59 26c15 0 38 -13 38 -50c0 -52 -44 -76 -85 -76c-63 0 -101 46 -101 104c0 135 155 202 299 202c107 0 109 -47 109 -68z" />
    <glyph glyph-name="iogonek" unicode="&#x12f;" horiz-adv-x="279" 
d="M217 426v-385c0 -14 -5 -38 -44 -46c-40 -27 -66 -66 -66 -102c0 -38 25 -59 67 -59c34 0 59 9 73 15l8 -18c-21 -13 -65 -34 -119 -34c-63 0 -104 27 -104 78c0 53 34 89 82 119c-44 8 -47 38 -47 50v377c0 19 -8 35 -29 35c-11 0 -18 -4 -27 -11l-10 12
c30 25 74 50 129 50c85 0 87 -52 87 -81zM52 618c0 37 35 68 80 68c44 0 79 -31 79 -68s-35 -67 -79 -67c-45 0 -80 30 -80 67z" />
    <glyph glyph-name="Idotaccent" unicode="&#x130;" horiz-adv-x="482" 
d="M408 662v-598c0 -50 -26 -72 -80 -72s-80 22 -80 72v588c0 28 -14 33 -33 33c-43 0 -159 -43 -159 -115c0 -42 26 -46 33 -46c32 0 39 26 59 26c15 0 38 -13 38 -50c0 -52 -44 -76 -85 -76c-63 0 -101 46 -101 104c0 135 155 202 299 202c107 0 109 -47 109 -68zM249 854
c0 32 27 59 58 59c33 0 59 -27 59 -59s-26 -58 -59 -58c-31 0 -58 26 -58 58z" />
    <glyph glyph-name="dotlessi" unicode="&#x131;" horiz-adv-x="279" 
d="M217 426v-385c0 -17 -8 -49 -77 -49s-73 38 -73 52v377c0 19 -8 35 -29 35c-11 0 -18 -4 -27 -11l-10 12c30 25 74 50 129 50c85 0 87 -52 87 -81z" />
    <glyph glyph-name="IJ" unicode="&#x132;" horiz-adv-x="834" 
d="M408 662v-598c0 -50 -26 -72 -80 -72s-80 22 -80 72v588c0 28 -14 33 -33 33c-43 0 -159 -43 -159 -115c0 -42 26 -46 33 -46c32 0 39 26 59 26c15 0 38 -13 38 -50c0 -52 -44 -76 -85 -76c-63 0 -101 46 -101 104c0 135 155 202 299 202c107 0 109 -47 109 -68zM600 45
v595c0 27 -18 35 -35 35c-18 0 -38 -10 -52 -17l-9 18c30 17 103 54 165 54c89 0 91 -52 91 -81v-561c0 -177 -137 -264 -311 -264c-66 0 -127 23 -127 55c0 23 14 51 38 51c22 0 21 -72 96 -72c100 0 144 77 144 187z" />
    <glyph glyph-name="ij" unicode="&#x133;" horiz-adv-x="558" 
d="M217 426v-382c0 -17 -8 -52 -77 -52s-73 38 -73 52v377c0 19 -8 35 -29 35c-11 0 -18 -4 -27 -11l-10 12c30 25 74 50 129 50c85 0 87 -52 87 -81zM52 618c0 37 35 68 80 68c44 0 79 -31 79 -68s-35 -67 -79 -67c-45 0 -80 30 -80 67zM331 618c0 37 35 68 80 68
c44 0 79 -31 79 -68s-35 -67 -79 -67c-45 0 -80 30 -80 67zM346 55v366c0 19 -8 35 -29 35c-11 0 -18 -4 -27 -11l-10 12c30 25 74 50 129 50c85 0 87 -52 87 -81v-346c0 -177 -93 -306 -281 -306c-66 0 -127 23 -127 55c0 23 14 51 38 51c22 0 21 -72 96 -72
c100 0 124 129 124 247z" />
    <glyph glyph-name="Jcircumflex" unicode="&#x134;" horiz-adv-x="482" 
d="M408 88c0 -177 -137 -264 -311 -264c-66 0 -127 23 -127 55c0 23 14 51 38 51c22 0 21 -72 96 -72c100 0 144 77 144 187v607c0 28 -14 33 -33 33c-43 0 -159 -43 -159 -115c0 -42 26 -46 33 -46c32 0 39 26 59 26c15 0 38 -13 38 -50c0 -52 -44 -76 -85 -76
c-63 0 -101 46 -101 104c0 135 155 202 299 202c107 0 109 -47 109 -68v-574zM279 930h56l110 -143l-15 -15l-123 84l-123 -84l-15 15z" />
    <glyph glyph-name="jcircumflex" unicode="&#x135;" horiz-adv-x="279" 
d="M67 55v366c0 19 -8 35 -29 35c-11 0 -18 -4 -27 -11l-10 12c30 25 74 50 129 50c85 0 87 -52 87 -81v-346c0 -177 -93 -306 -281 -306c-66 0 -127 23 -127 55c0 23 14 51 38 51c22 0 21 -72 96 -72c100 0 124 129 124 247zM95 715h56l110 -143l-15 -15l-123 84l-123 -84
l-15 15z" />
    <glyph glyph-name="dotlessj" unicode="&#x237;" horiz-adv-x="279" 
d="M67 55v366c0 19 -8 35 -29 35c-11 0 -18 -4 -27 -11l-10 12c30 25 74 50 129 50c85 0 87 -52 87 -81v-346c0 -177 -93 -306 -281 -306c-66 0 -127 23 -127 55c0 23 14 51 38 51c22 0 21 -72 96 -72c100 0 124 129 124 247z" />
    <glyph glyph-name="Kcommaaccent" unicode="&#x136;" horiz-adv-x="818" 
d="M408 662v-223c175 251 246 322 353 322c42 0 64 -14 64 -41c0 -14 -4 -43 -24 -43c-15 0 -37 35 -78 35c-44 0 -116 -78 -189 -171c195 -445 290 -651 395 -651c18 0 39 13 39 13l10 -19c-22 -13 -79 -40 -152 -40c-149 0 -231 132 -399 549l-19 -28v-301
c0 -50 -26 -72 -80 -72s-80 22 -80 72v588c0 28 -14 33 -33 33c-43 0 -159 -43 -159 -115c0 -42 26 -46 33 -46c32 0 39 26 59 26c15 0 38 -13 38 -50c0 -52 -44 -76 -85 -76c-63 0 -101 46 -101 104c0 135 155 202 299 202c107 0 109 -47 109 -68zM437 -233l-8 15
c37 16 44 30 44 45c0 25 -41 31 -41 66c0 21 18 47 57 47c40 0 60 -32 60 -61c0 -52 -46 -90 -112 -112z" />
    <glyph glyph-name="kcommaaccent" unicode="&#x137;" horiz-adv-x="531" 
d="M212 679v-305c46 61 102 133 185 133c74 0 97 -67 97 -98c0 -57 -26 -126 -117 -173c123 -259 232 -371 321 -371c16 0 34 10 34 10l9 -17c-35 -20 -68 -36 -153 -36c-115 0 -221 73 -360 404c125 93 135 157 135 192c0 6 -1 27 -26 27c-48 0 -102 -93 -125 -150v-252
c0 -17 -8 -51 -77 -51s-73 38 -73 52v630c0 19 -8 35 -29 35c-11 0 -18 -4 -27 -11l-10 12c30 25 74 50 129 50c85 0 87 -52 87 -81zM213 -233l-8 15c37 16 44 30 44 45c0 25 -41 31 -41 66c0 21 18 47 57 47c40 0 60 -32 60 -61c0 -52 -46 -90 -112 -112z" />
    <glyph glyph-name="kgreenlandic" unicode="&#x138;" horiz-adv-x="527" 
d="M212 426v-52c46 61 102 133 185 133c74 0 97 -67 97 -98c0 -56 -23 -123 -110 -171l95 -150c10 -17 20 -31 30 -31c12 0 21 13 26 18l12 -10c-25 -32 -58 -73 -129 -73c-37 0 -60 15 -73 37l-99 164l-20 33c125 93 137 157 137 192c0 6 -1 27 -26 27
c-48 0 -102 -93 -125 -150v-254c0 -17 -8 -49 -77 -49s-73 38 -73 52v377c0 19 -8 35 -29 35c-11 0 -18 -4 -27 -11l-10 12c30 25 74 50 129 50c85 0 87 -52 87 -81z" />
    <glyph glyph-name="Lacute" unicode="&#x139;" horiz-adv-x="655" 
d="M408 662v-551c0 -56 27 -67 80 -67c85 0 138 43 157 43c12 0 20 -8 20 -23c0 -26 -4 -35 -20 -41c-59 -21 -133 -31 -226 -31c-139 0 -171 21 -171 105v555c0 28 -14 33 -33 33c-43 0 -159 -43 -159 -115c0 -42 26 -46 33 -46c32 0 39 26 59 26c15 0 38 -13 38 -50
c0 -52 -44 -76 -85 -76c-63 0 -101 46 -101 104c0 135 155 202 299 202c107 0 109 -47 109 -68zM237 771l-10 14l133 128c11 10 24 17 36 17c24 0 43 -25 43 -48c0 -17 -13 -30 -29 -37z" />
    <glyph glyph-name="lacute" unicode="&#x13a;" horiz-adv-x="274" 
d="M212 679v-636c0 -17 -8 -51 -77 -51s-73 38 -73 52v630c0 19 -8 35 -29 35c-11 0 -18 -4 -27 -11l-10 12c30 25 74 50 129 50c85 0 87 -52 87 -81zM60 801l-10 14l133 128c11 10 24 17 36 17c24 0 43 -25 43 -48c0 -17 -13 -30 -29 -37z" />
    <glyph glyph-name="Lcommaaccent" unicode="&#x13b;" horiz-adv-x="655" 
d="M408 662v-551c0 -56 27 -67 80 -67c85 0 138 43 157 43c12 0 20 -8 20 -23c0 -26 -4 -35 -20 -41c-59 -21 -133 -31 -226 -31c-139 0 -171 21 -171 105v555c0 28 -14 33 -33 33c-43 0 -159 -43 -159 -115c0 -42 26 -46 33 -46c32 0 39 26 59 26c15 0 38 -13 38 -50
c0 -52 -44 -76 -85 -76c-63 0 -101 46 -101 104c0 135 155 202 299 202c107 0 109 -47 109 -68zM392 -233l-8 15c37 16 44 30 44 45c0 25 -41 31 -41 66c0 21 18 47 57 47c40 0 60 -32 60 -61c0 -52 -46 -90 -112 -112z" />
    <glyph glyph-name="lcommaaccent" unicode="&#x13c;" horiz-adv-x="274" 
d="M212 679v-636c0 -17 -8 -51 -77 -51s-73 38 -73 52v630c0 19 -8 35 -29 35c-11 0 -18 -4 -27 -11l-10 12c30 25 74 50 129 50c85 0 87 -52 87 -81zM85 -233l-8 15c37 16 44 30 44 45c0 25 -41 31 -41 66c0 21 18 47 57 47c40 0 60 -32 60 -61c0 -52 -46 -90 -112 -112z
" />
    <glyph glyph-name="Lcaron" unicode="&#x13d;" horiz-adv-x="655" 
d="M408 662v-551c0 -56 27 -67 80 -67c85 0 138 43 157 43c12 0 20 -8 20 -23c0 -26 -4 -35 -20 -41c-59 -21 -133 -31 -226 -31c-139 0 -171 21 -171 105v555c0 28 -14 33 -33 33c-43 0 -159 -43 -159 -115c0 -42 26 -46 33 -46c32 0 39 26 59 26c15 0 38 -13 38 -50
c0 -52 -44 -76 -85 -76c-63 0 -101 46 -101 104c0 135 155 202 299 202c107 0 109 -47 109 -68zM495 514l-15 20c34 23 43 48 43 70c0 25 -17 45 -34 59c-4 5 -6 9 -6 14c0 23 33 53 70 53c35 0 47 -40 47 -62c0 -65 -46 -120 -105 -154z" />
    <glyph glyph-name="lcaron" unicode="&#x13e;" horiz-adv-x="384" 
d="M212 679v-636c0 -17 -8 -51 -77 -51s-73 38 -73 52v630c0 19 -8 35 -29 35c-11 0 -18 -4 -27 -11l-10 12c30 25 74 50 129 50c85 0 87 -52 87 -81zM269 514l-15 20c34 23 43 48 43 70c0 25 -17 45 -34 59c-4 5 -6 9 -6 14c0 23 33 53 70 53c35 0 47 -40 47 -62
c0 -65 -46 -120 -105 -154z" />
    <glyph glyph-name="Ldot" unicode="&#x13f;" horiz-adv-x="655" 
d="M408 662v-551c0 -56 27 -67 80 -67c85 0 138 43 157 43c12 0 20 -8 20 -23c0 -26 -4 -35 -20 -41c-59 -21 -133 -31 -226 -31c-139 0 -171 21 -171 105v555c0 28 -14 33 -33 33c-43 0 -159 -43 -159 -115c0 -42 26 -46 33 -46c32 0 39 26 59 26c15 0 38 -13 38 -50
c0 -52 -44 -76 -85 -76c-63 0 -101 46 -101 104c0 135 155 202 299 202c107 0 109 -47 109 -68zM496 296c0 37 29 67 65 67c37 0 67 -30 67 -67c0 -36 -30 -65 -67 -65c-36 0 -65 29 -65 65z" />
    <glyph glyph-name="ldotaccent" unicode="&#x140;" horiz-adv-x="406" 
d="M212 679v-636c0 -17 -8 -51 -77 -51s-73 38 -73 52v630c0 19 -8 35 -29 35c-11 0 -18 -4 -27 -11l-10 12c30 25 74 50 129 50c85 0 87 -52 87 -81zM274 296c0 37 29 67 65 67c37 0 67 -30 67 -67c0 -36 -30 -65 -67 -65c-36 0 -65 29 -65 65z" />
    <glyph glyph-name="Lslash" unicode="&#x141;" horiz-adv-x="655" 
d="M408 662v-272l89 52l20 -37l-109 -64v-230c0 -56 27 -67 80 -67c85 0 138 43 157 43c12 0 20 -8 20 -23c0 -26 -4 -35 -20 -41c-59 -21 -133 -31 -226 -31c-139 0 -171 21 -171 105v151l-73 -42l-20 37l93 54v355c0 28 -14 33 -33 33c-43 0 -159 -43 -159 -115
c0 -42 26 -46 33 -46c32 0 39 26 59 26c15 0 38 -13 38 -50c0 -52 -44 -76 -85 -76c-63 0 -101 46 -101 104c0 135 155 202 299 202c107 0 109 -47 109 -68z" />
    <glyph glyph-name="lslash" unicode="&#x142;" horiz-adv-x="274" 
d="M212 679v-275l49 29l21 -36l-70 -41v-315c0 -17 -8 -49 -77 -49s-73 38 -73 52v225l-53 -30l-21 36l74 43v356c0 19 -8 35 -29 35c-11 0 -18 -4 -27 -11l-10 12c30 25 74 50 129 50c85 0 87 -52 87 -81z" />
    <glyph glyph-name="Ntilde" unicode="&#xd1;" horiz-adv-x="815" 
d="M242 469c0 119 -4 202 -4 209c-13 9 -31 8 -47 8c-45 0 -141 -44 -141 -116c0 -42 26 -46 33 -46c32 0 39 26 59 26c15 0 38 -13 38 -50c0 -52 -44 -76 -85 -76c-63 0 -101 46 -101 104c0 135 123 202 255 202c119 0 146 -33 166 -73c80 -161 148 -315 211 -438v70v151
c0 162 16 310 214 310c66 0 115 -20 115 -53c0 -21 -12 -48 -35 -48c-20 0 -25 66 -93 66c-105 0 -136 -77 -141 -196c-3 -82 -3 -151 -3 -249c0 -69 1 -125 2 -160c59 -100 113 -162 170 -162c18 0 35 13 35 13l16 -19c-18 -13 -68 -40 -141 -40c-211 0 -353 439 -467 668
c0 -38 1 -79 1 -120v-151c0 -162 -16 -310 -214 -310c-66 0 -115 20 -115 53c0 21 12 48 35 48c20 0 25 -66 93 -66c105 0 136 77 141 196c3 82 3 151 3 249zM434 843c-28 0 -47 -27 -52 -55h-22c7 82 49 122 85 122c46 0 83 -48 115 -48c28 0 47 27 52 55h22
c-7 -82 -49 -122 -85 -122c-46 0 -83 48 -115 48z" />
    <glyph glyph-name="ntilde" unicode="&#xf1;" horiz-adv-x="538" 
d="M348 243c0 164 -33 186 -64 186c-38 0 -57 -46 -67 -59v-326c0 -17 -6 -52 -75 -52s-75 38 -75 52v377c0 19 -8 35 -29 35c-11 0 -18 -4 -27 -11l-10 12c30 25 74 50 129 50c85 0 87 -64 87 -93c0 0 62 93 143 93c88 0 138 -62 138 -256c0 -284 -167 -330 -237 -332
l-5 20c58 14 92 66 92 304zM203 628c-28 0 -47 -27 -52 -55h-22c7 82 49 122 85 122c46 0 83 -48 115 -48c28 0 47 27 52 55h22c-7 -82 -49 -122 -85 -122c-46 0 -83 48 -115 48z" />
    <glyph glyph-name="Nacute" unicode="&#x143;" horiz-adv-x="815" 
d="M242 469c0 119 -4 202 -4 209c-13 9 -31 8 -47 8c-45 0 -141 -44 -141 -116c0 -42 26 -46 33 -46c32 0 39 26 59 26c15 0 38 -13 38 -50c0 -52 -44 -76 -85 -76c-63 0 -101 46 -101 104c0 135 123 202 255 202c119 0 146 -33 166 -73c80 -161 148 -315 211 -438v70v151
c0 162 16 310 214 310c66 0 115 -20 115 -53c0 -21 -12 -48 -35 -48c-20 0 -25 66 -93 66c-105 0 -136 -77 -141 -196c-3 -82 -3 -151 -3 -249c0 -69 1 -125 2 -160c59 -100 113 -162 170 -162c18 0 35 13 35 13l16 -19c-18 -13 -68 -40 -141 -40c-211 0 -353 439 -467 668
c0 -38 1 -79 1 -120v-151c0 -162 -16 -310 -214 -310c-66 0 -115 20 -115 53c0 21 12 48 35 48c20 0 25 -66 93 -66c105 0 136 77 141 196c3 82 3 151 3 249zM430 771l-10 14l133 128c11 10 24 17 36 17c24 0 43 -25 43 -48c0 -17 -13 -30 -29 -37z" />
    <glyph glyph-name="nacute" unicode="&#x144;" horiz-adv-x="538" 
d="M348 243c0 164 -33 186 -64 186c-38 0 -57 -46 -67 -59v-326c0 -17 -6 -52 -75 -52s-75 38 -75 52v377c0 19 -8 35 -29 35c-11 0 -18 -4 -27 -11l-10 12c30 25 74 50 129 50c85 0 87 -64 87 -93c0 0 62 93 143 93c88 0 138 -62 138 -256c0 -284 -167 -330 -237 -332
l-5 20c58 14 92 66 92 304zM199 556l-10 14l133 128c11 10 24 17 36 17c24 0 43 -25 43 -48c0 -17 -13 -30 -29 -37z" />
    <glyph glyph-name="Ncommaaccent" unicode="&#x145;" horiz-adv-x="815" 
d="M242 469c0 119 -4 202 -4 209c-13 9 -31 8 -47 8c-45 0 -141 -44 -141 -116c0 -42 26 -46 33 -46c32 0 39 26 59 26c15 0 38 -13 38 -50c0 -52 -44 -76 -85 -76c-63 0 -101 46 -101 104c0 135 123 202 255 202c119 0 146 -33 166 -73c80 -161 148 -315 211 -438v70v151
c0 162 16 310 214 310c66 0 115 -20 115 -53c0 -21 -12 -48 -35 -48c-20 0 -25 66 -93 66c-105 0 -136 -77 -141 -196c-3 -82 -3 -151 -3 -249c0 -69 1 -125 2 -160c59 -100 113 -162 170 -162c18 0 35 13 35 13l16 -19c-18 -13 -68 -40 -141 -40c-211 0 -353 439 -467 668
c0 -38 1 -79 1 -120v-151c0 -162 -16 -310 -214 -310c-66 0 -115 20 -115 53c0 21 12 48 35 48c20 0 25 -66 93 -66c105 0 136 77 141 196c3 82 3 151 3 249zM375 -233l-8 15c37 16 44 30 44 45c0 25 -41 31 -41 66c0 21 18 47 57 47c40 0 60 -32 60 -61
c0 -52 -46 -90 -112 -112z" />
    <glyph glyph-name="ncommaaccent" unicode="&#x146;" horiz-adv-x="538" 
d="M348 243c0 164 -33 186 -64 186c-38 0 -57 -46 -67 -59v-326c0 -17 -6 -52 -75 -52s-75 38 -75 52v377c0 19 -8 35 -29 35c-11 0 -18 -4 -27 -11l-10 12c30 25 74 50 129 50c85 0 87 -64 87 -93c0 0 62 93 143 93c88 0 138 -62 138 -256c0 -284 -167 -330 -237 -332
l-5 20c58 14 92 66 92 304zM127 -253l-8 15c37 16 44 30 44 45c0 25 -41 31 -41 66c0 21 18 47 57 47c40 0 60 -32 60 -61c0 -52 -46 -90 -112 -112z" />
    <glyph glyph-name="Ncaron" unicode="&#x147;" horiz-adv-x="815" 
d="M242 469c0 119 -4 202 -4 209c-13 9 -31 8 -47 8c-45 0 -141 -44 -141 -116c0 -42 26 -46 33 -46c32 0 39 26 59 26c15 0 38 -13 38 -50c0 -52 -44 -76 -85 -76c-63 0 -101 46 -101 104c0 135 123 202 255 202c119 0 146 -33 166 -73c80 -161 148 -315 211 -438v70v151
c0 162 16 310 214 310c66 0 115 -20 115 -53c0 -21 -12 -48 -35 -48c-20 0 -25 66 -93 66c-105 0 -136 -77 -141 -196c-3 -82 -3 -151 -3 -249c0 -69 1 -125 2 -160c59 -100 113 -162 170 -162c18 0 35 13 35 13l16 -19c-18 -13 -68 -40 -141 -40c-211 0 -353 439 -467 668
c0 -38 1 -79 1 -120v-151c0 -162 -16 -310 -214 -310c-66 0 -115 20 -115 53c0 21 12 48 35 48c20 0 25 -66 93 -66c105 0 136 77 141 196c3 82 3 151 3 249zM525 772h-56l-110 143l15 15l123 -84l123 84l15 -15z" />
    <glyph glyph-name="ncaron" unicode="&#x148;" horiz-adv-x="538" 
d="M348 243c0 164 -33 186 -64 186c-38 0 -57 -46 -67 -59v-326c0 -17 -6 -52 -75 -52s-75 38 -75 52v377c0 19 -8 35 -29 35c-11 0 -18 -4 -27 -11l-10 12c30 25 74 50 129 50c85 0 87 -64 87 -93c0 0 62 93 143 93c88 0 138 -62 138 -256c0 -284 -167 -330 -237 -332
l-5 20c58 14 92 66 92 304zM294 557h-56l-110 143l15 15l123 -84l123 84l15 -15z" />
    <glyph glyph-name="napostrophe" unicode="&#x149;" horiz-adv-x="578" 
d="M388 243c0 164 -33 186 -64 186c-38 0 -57 -46 -67 -59v-326c0 -17 -6 -52 -75 -52s-75 38 -75 52v377c0 19 -8 35 -29 35c-11 0 -18 -4 -27 -11l-10 12c30 25 74 50 129 50c85 0 87 -64 87 -93c0 0 62 93 143 93c88 0 138 -62 138 -256c0 -284 -167 -330 -237 -332
l-5 20c58 14 92 66 92 304zM-5 513l-15 20c34 23 43 48 43 70c0 25 -17 45 -34 59c-4 5 -6 9 -6 14c0 23 33 53 70 53c35 0 47 -40 47 -62c0 -65 -46 -120 -105 -154z" />
    <glyph glyph-name="Eng" unicode="&#x14a;" horiz-adv-x="758" 
d="M242 469c0 119 -4 202 -4 202v7c-13 9 -31 8 -47 8c-45 0 -141 -44 -141 -116c0 -42 26 -46 33 -46c32 0 39 26 59 26c15 0 38 -13 38 -50c0 -52 -44 -76 -85 -76c-63 0 -101 46 -101 104c0 135 123 202 255 202c119 0 146 -33 166 -73c81 -164 150 -276 213 -387v45
c0 171 -11 335 -11 335c0 25 -15 80 41 80c18 0 40 -8 40 -27c0 -32 -15 -95 -14 -386l1 -244c0 -177 -61 -264 -210 -264c-66 0 -127 23 -127 55c0 23 14 51 38 51c22 0 21 -69 96 -69c98 0 144 72 146 179c-139 125 -243 385 -330 549c0 -39 1 -82 1 -124v-151
c0 -162 -16 -310 -214 -310c-66 0 -115 20 -115 53c0 21 12 48 35 48c20 0 25 -66 93 -66c105 0 134 77 139 196c3 82 5 151 5 249z" />
    <glyph glyph-name="eng" unicode="&#x14b;" horiz-adv-x="550" 
d="M338 55v334c0 18 -11 40 -34 40c-38 0 -77 -46 -87 -59v-326c0 -17 -6 -52 -75 -52s-75 38 -75 52v377c0 19 -8 35 -29 35c-11 0 -18 -4 -27 -11l-10 12c30 25 74 50 129 50c85 0 87 -64 87 -93c0 0 82 93 163 93c79 0 108 -62 108 -120v-307c0 -177 -79 -306 -238 -306
c-55 0 -107 23 -107 55c0 23 14 51 38 51s23 -72 72 -72c71 0 85 129 85 247z" />
    <glyph glyph-name="Ograve" unicode="&#xd2;" horiz-adv-x="719" 
d="M315 575c0 -68 72 -56 72 -99c0 -24 -20 -37 -42 -37c-41 0 -74 56 -74 124c0 84 53 157 150 157c98 0 258 -91 258 -359c0 -230 -147 -369 -318 -369s-321 115 -321 369c0 196 113 325 245 369l17 -21c-57 -56 -92 -116 -92 -348c0 -301 105 -324 151 -324
s148 23 148 324c0 263 -75 313 -121 313c-47 0 -73 -49 -73 -99zM447 785l-10 -14l-173 74c-16 7 -29 20 -29 37c0 23 19 48 43 48c12 0 25 -7 36 -17z" />
    <glyph glyph-name="ograve" unicode="&#xf2;" horiz-adv-x="512" 
d="M30 250c0 171 106 257 226 257s226 -79 226 -250s-106 -265 -226 -265s-226 87 -226 258zM330 255c0 104 -10 202 -74 202s-74 -103 -74 -207s10 -208 74 -208s74 109 74 213zM332 570l-10 -14l-173 74c-16 7 -29 20 -29 37c0 23 19 48 43 48c12 0 25 -7 36 -17z" />
    <glyph glyph-name="Oacute" unicode="&#xd3;" horiz-adv-x="719" 
d="M315 575c0 -68 72 -56 72 -99c0 -24 -20 -37 -42 -37c-41 0 -74 56 -74 124c0 84 53 157 150 157c98 0 258 -91 258 -359c0 -230 -147 -369 -318 -369s-321 115 -321 369c0 196 113 325 245 369l17 -21c-57 -56 -92 -116 -92 -348c0 -301 105 -324 151 -324
s148 23 148 324c0 263 -75 313 -121 313c-47 0 -73 -49 -73 -99zM304 771l-10 14l133 128c11 10 24 17 36 17c24 0 43 -25 43 -48c0 -17 -13 -30 -29 -37z" />
    <glyph glyph-name="oacute" unicode="&#xf3;" horiz-adv-x="512" 
d="M30 250c0 171 106 257 226 257s226 -79 226 -250s-106 -265 -226 -265s-226 87 -226 258zM330 255c0 104 -10 202 -74 202s-74 -103 -74 -207s10 -208 74 -208s74 109 74 213zM189 556l-10 14l133 128c11 10 24 17 36 17c24 0 43 -25 43 -48c0 -17 -13 -30 -29 -37z" />
    <glyph glyph-name="Ocircumflex" unicode="&#xd4;" horiz-adv-x="719" 
d="M315 575c0 -68 72 -56 72 -99c0 -24 -20 -37 -42 -37c-41 0 -74 56 -74 124c0 84 53 157 150 157c98 0 258 -91 258 -359c0 -230 -147 -369 -318 -369s-321 115 -321 369c0 196 113 325 245 369l17 -21c-57 -56 -92 -116 -92 -348c0 -301 105 -324 151 -324
s148 23 148 324c0 263 -75 313 -121 313c-47 0 -73 -49 -73 -99zM343 930h56l110 -143l-15 -15l-123 84l-123 -84l-15 15z" />
    <glyph glyph-name="ocircumflex" unicode="&#xf4;" horiz-adv-x="512" 
d="M30 250c0 171 106 257 226 257s226 -79 226 -250s-106 -265 -226 -265s-226 87 -226 258zM330 255c0 104 -10 202 -74 202s-74 -103 -74 -207s10 -208 74 -208s74 109 74 213zM228 715h56l110 -143l-15 -15l-123 84l-123 -84l-15 15z" />
    <glyph glyph-name="Otilde" unicode="&#xd5;" horiz-adv-x="719" 
d="M315 575c0 -68 72 -56 72 -99c0 -24 -20 -37 -42 -37c-41 0 -74 56 -74 124c0 84 53 157 150 157c98 0 258 -91 258 -359c0 -230 -147 -369 -318 -369s-321 115 -321 369c0 196 113 325 245 369l17 -21c-57 -56 -92 -116 -92 -348c0 -301 105 -324 151 -324
s148 23 148 324c0 263 -75 313 -121 313c-47 0 -73 -49 -73 -99zM308 843c-28 0 -47 -27 -52 -55h-22c7 82 49 122 85 122c46 0 83 -48 115 -48c28 0 47 27 52 55h22c-7 -82 -49 -122 -85 -122c-46 0 -83 48 -115 48z" />
    <glyph glyph-name="otilde" unicode="&#xf5;" horiz-adv-x="512" 
d="M30 250c0 171 106 257 226 257s226 -79 226 -250s-106 -265 -226 -265s-226 87 -226 258zM330 255c0 104 -10 202 -74 202s-74 -103 -74 -207s10 -208 74 -208s74 109 74 213zM193 628c-28 0 -47 -27 -52 -55h-22c7 82 49 122 85 122c46 0 83 -48 115 -48
c28 0 47 27 52 55h22c-7 -82 -49 -122 -85 -122c-46 0 -83 48 -115 48z" />
    <glyph glyph-name="Odieresis" unicode="&#xd6;" horiz-adv-x="719" 
d="M315 575c0 -68 72 -56 72 -99c0 -24 -20 -37 -42 -37c-41 0 -74 56 -74 124c0 84 53 157 150 157c98 0 258 -91 258 -359c0 -230 -147 -369 -318 -369s-321 115 -321 369c0 196 113 325 245 369l17 -21c-57 -56 -92 -116 -92 -348c0 -301 105 -324 151 -324
s148 23 148 324c0 263 -75 313 -121 313c-47 0 -73 -49 -73 -99zM232 855c0 29 24 53 53 53s53 -24 53 -53s-24 -53 -53 -53s-53 24 -53 53zM404 855c0 29 24 53 53 53s53 -24 53 -53s-24 -53 -53 -53s-53 24 -53 53z" />
    <glyph glyph-name="odieresis" unicode="&#xf6;" horiz-adv-x="512" 
d="M30 250c0 171 106 257 226 257s226 -79 226 -250s-106 -265 -226 -265s-226 87 -226 258zM330 255c0 104 -10 202 -74 202s-74 -103 -74 -207s10 -208 74 -208s74 109 74 213zM117 640c0 29 24 53 53 53s53 -24 53 -53s-24 -53 -53 -53s-53 24 -53 53zM289 640
c0 29 24 53 53 53s53 -24 53 -53s-24 -53 -53 -53s-53 24 -53 53z" />
    <glyph glyph-name="Omacron" unicode="&#x14c;" horiz-adv-x="719" 
d="M315 575c0 -68 72 -56 72 -99c0 -24 -20 -37 -42 -37c-41 0 -74 56 -74 124c0 84 53 157 150 157c98 0 258 -91 258 -359c0 -230 -147 -369 -318 -369s-321 115 -321 369c0 196 113 325 245 369l17 -21c-57 -56 -92 -116 -92 -348c0 -301 105 -324 151 -324
s148 23 148 324c0 263 -75 313 -121 313c-47 0 -73 -49 -73 -99zM241 821v69h260v-69h-260z" />
    <glyph glyph-name="omacron" unicode="&#x14d;" horiz-adv-x="512" 
d="M30 250c0 171 106 257 226 257s226 -79 226 -250s-106 -265 -226 -265s-226 87 -226 258zM330 255c0 104 -10 202 -74 202s-74 -103 -74 -207s10 -208 74 -208s74 109 74 213zM126 606v69h260v-69h-260z" />
    <glyph glyph-name="Obreve" unicode="&#x14e;" horiz-adv-x="719" 
d="M315 575c0 -68 72 -56 72 -99c0 -24 -20 -37 -42 -37c-41 0 -74 56 -74 124c0 84 53 157 150 157c98 0 258 -91 258 -359c0 -230 -147 -369 -318 -369s-321 115 -321 369c0 196 113 325 245 369l17 -21c-57 -56 -92 -116 -92 -348c0 -301 105 -324 151 -324
s148 23 148 324c0 263 -75 313 -121 313c-47 0 -73 -49 -73 -99zM371 782c-68 0 -117 42 -129 135h25c7 -27 29 -67 104 -67s97 40 104 67h25c-12 -93 -61 -135 -129 -135z" />
    <glyph glyph-name="obreve" unicode="&#x14f;" horiz-adv-x="512" 
d="M30 250c0 171 106 257 226 257s226 -79 226 -250s-106 -265 -226 -265s-226 87 -226 258zM330 255c0 104 -10 202 -74 202s-74 -103 -74 -207s10 -208 74 -208s74 109 74 213zM256 567c-68 0 -117 42 -129 135h25c7 -27 29 -67 104 -67s97 40 104 67h25
c-12 -93 -61 -135 -129 -135z" />
    <glyph glyph-name="Ohungarumlaut" unicode="&#x150;" horiz-adv-x="719" 
d="M315 575c0 -68 72 -56 72 -99c0 -24 -20 -37 -42 -37c-41 0 -74 56 -74 124c0 84 53 157 150 157c98 0 258 -91 258 -359c0 -230 -147 -369 -318 -369s-321 115 -321 369c0 196 113 325 245 369l17 -21c-57 -56 -92 -116 -92 -348c0 -301 105 -324 151 -324
s148 23 148 324c0 263 -75 313 -121 313c-47 0 -73 -49 -73 -99zM278 772l-14 12l71 119c10 17 24 27 39 27c21 0 37 -15 37 -37c0 -13 -8 -26 -19 -35zM418 772l-14 12l71 119c10 17 24 27 39 27c21 0 37 -15 37 -37c0 -13 -8 -26 -19 -35z" />
    <glyph glyph-name="ohungarumlaut" unicode="&#x151;" horiz-adv-x="512" 
d="M30 250c0 171 106 257 226 257s226 -79 226 -250s-106 -265 -226 -265s-226 87 -226 258zM330 255c0 104 -10 202 -74 202s-74 -103 -74 -207s10 -208 74 -208s74 109 74 213zM163 557l-14 12l71 119c10 17 24 27 39 27c21 0 37 -15 37 -37c0 -13 -8 -26 -19 -35z
M303 557l-14 12l71 119c10 17 24 27 39 27c21 0 37 -15 37 -37c0 -13 -8 -26 -19 -35z" />
    <glyph glyph-name="Oslash" unicode="&#xd8;" horiz-adv-x="719" 
d="M315 587c0 -60 72 -49 72 -87c0 -24 -20 -37 -42 -37c-41 0 -74 51 -74 113c0 77 53 144 150 144c31 0 70 -10 107 -32l42 72l37 -21l-45 -75c64 -54 117 -149 117 -303c0 -230 -147 -369 -318 -369c-61 0 -119 14 -168 44l-44 -74l-37 21l46 78
c-71 59 -118 158 -118 300c0 196 113 325 245 369l17 -21c-57 -56 -92 -116 -92 -348c0 -78 7 -136 18 -181l246 418c-25 60 -60 76 -86 76c-47 0 -73 -43 -73 -87zM509 361c0 78 -7 137 -18 182l-246 -417c35 -80 87 -89 116 -89c46 0 148 23 148 324z" />
    <glyph glyph-name="oslash" unicode="&#xf8;" horiz-adv-x="512" 
d="M85 -20l33 59c-53 42 -88 112 -88 211c0 171 106 257 226 257c39 0 76 -9 109 -26l31 56l31 -18l-32 -57c52 -40 87 -107 87 -205c0 -171 -106 -265 -226 -265c-39 0 -76 9 -109 27l-31 -57zM182 250c0 -31 0 -62 3 -90l132 235c-11 37 -29 62 -61 62
c-64 0 -74 -103 -74 -207zM330 255c0 29 -1 58 -3 84l-132 -234c11 -38 29 -63 61 -63c64 0 74 109 74 213z" />
    <glyph glyph-name="Oslashacute" unicode="&#x1fe;" horiz-adv-x="719" 
d="M315 587c0 -60 72 -49 72 -87c0 -24 -20 -37 -42 -37c-41 0 -74 51 -74 113c0 77 53 144 150 144c31 0 70 -10 107 -32l42 72l37 -21l-45 -75c64 -54 117 -149 117 -303c0 -230 -147 -369 -318 -369c-61 0 -119 14 -168 44l-44 -74l-37 21l46 78
c-71 59 -118 158 -118 300c0 196 113 325 245 369l17 -21c-57 -56 -92 -116 -92 -348c0 -78 7 -136 18 -181l246 418c-25 60 -60 76 -86 76c-47 0 -73 -43 -73 -87zM509 361c0 78 -7 137 -18 182l-246 -417c35 -80 87 -89 116 -89c46 0 148 23 148 324zM293 771l-10 14
l133 128c11 10 24 17 36 17c24 0 43 -25 43 -48c0 -17 -13 -30 -29 -37z" />
    <glyph glyph-name="oslashacute" unicode="&#x1ff;" horiz-adv-x="512" 
d="M85 -20l33 59c-53 42 -88 112 -88 211c0 171 106 257 226 257c39 0 76 -9 109 -26l31 56l31 -18l-32 -57c52 -40 87 -107 87 -205c0 -171 -106 -265 -226 -265c-39 0 -76 9 -109 27l-31 -57zM182 250c0 -31 0 -62 3 -90l132 235c-11 37 -29 62 -61 62
c-64 0 -74 -103 -74 -207zM330 255c0 29 -1 58 -3 84l-132 -234c11 -38 29 -63 61 -63c64 0 74 109 74 213zM189 556l-10 14l133 128c11 10 24 17 36 17c24 0 43 -25 43 -48c0 -17 -13 -30 -29 -37z" />
    <glyph glyph-name="OE" unicode="&#x152;" horiz-adv-x="952" 
d="M872 379v-43h-203v-191c0 -61 39 -87 97 -87c66 0 137 30 167 55l19 -21c-33 -26 -108 -100 -241 -100c-47 0 -129 8 -173 60c-50 -39 -111 -60 -177 -60c-171 0 -321 115 -321 369c0 213 129 350 295 369l8 -25c-82 -53 -133 -109 -133 -344c0 -301 105 -324 151 -324
c44 0 142 22 148 299h-76v43h76v307c-62 -5 -177 -56 -177 -126c0 -37 23 -41 29 -41c29 0 35 23 52 23c14 0 34 -11 34 -44c0 -46 -39 -67 -75 -67c-56 0 -89 41 -89 92c0 134 158 207 379 207c106 0 205 -4 232 -11c26 -6 29 -15 29 -33c0 -15 -7 -41 -24 -41
c-16 0 -26 47 -230 47v-313h203z" />
    <glyph glyph-name="oe" unicode="&#x153;" horiz-adv-x="757" 
d="M674 338l-193 -114c0 -63 55 -165 152 -165c46 0 76 23 107 50l12 -12c-30 -40 -92 -104 -205 -104c-56 0 -108 19 -147 58c-38 -39 -88 -59 -144 -59c-120 0 -226 87 -226 258s106 257 226 257c63 0 119 -22 159 -68c47 45 109 68 164 68c97 0 143 -45 143 -96
c0 -30 -19 -55 -48 -73zM330 255c0 104 -10 202 -74 202s-74 -103 -74 -207s10 -208 74 -208s74 109 74 213zM579 323c17 11 22 18 22 48c0 33 -14 86 -51 86c-71 0 -74 -137 -74 -193z" />
    <glyph glyph-name="Thorn" unicode="&#xde;" horiz-adv-x="714" 
d="M408 503v-439c0 -50 -26 -72 -80 -72s-80 22 -80 72v444c0 18 -13 27 -37 27c-72 0 -155 -45 -155 -105c0 -42 26 -46 33 -46c32 0 39 26 59 26c15 0 38 -13 38 -50c0 -52 -44 -76 -85 -76c-63 0 -101 46 -101 104c0 119 102 172 248 192v68c0 19 -8 31 -25 31
c-18 0 -34 -8 -46 -14l-8 18c33 17 98 47 148 47c89 0 91 -52 91 -81v-59h13c185 0 283 -74 283 -207c0 -196 -169 -253 -274 -214l7 21c98 -30 121 63 121 195c0 99 -45 165 -98 165c-42 0 -51 -28 -52 -47z" />
    <glyph glyph-name="thorn" unicode="&#xfe;" horiz-adv-x="538" 
d="M62 -198v872c0 19 -8 35 -29 35c-11 0 -18 -4 -27 -11l-10 12c30 25 74 50 129 50c85 0 87 -52 87 -81v-232c26 35 71 60 122 60c104 0 172 -87 172 -251c0 -190 -86 -264 -172 -264c-72 0 -106 34 -122 48v-238c0 -17 -6 -52 -75 -52s-75 38 -75 52zM212 386v-276
c0 -10 17 -60 61 -60c57 0 80 93 80 206c0 139 -32 189 -81 189c-28 0 -57 -33 -60 -59z" />
    <glyph glyph-name="Racute" unicode="&#x154;" horiz-adv-x="790" 
d="M421 730c176 0 273 -66 273 -182c0 -115 -57 -158 -134 -184c106 -30 225 -474 346 -474c13 0 27 7 34 12l10 -19c-26 -14 -75 -39 -152 -39c-63 0 -115 37 -151 100c-74 130 -143 292 -215 411l4 20c77 -20 112 64 112 174c0 78 -35 141 -88 141c-42 0 -52 -28 -52 -47
v-579c0 -50 -26 -72 -80 -72s-80 22 -80 72v584c0 18 -13 27 -37 27c-72 0 -155 -45 -155 -105c0 -42 26 -46 33 -46c32 0 39 26 59 26c15 0 38 -13 38 -50c0 -52 -44 -76 -85 -76c-63 0 -101 46 -101 104c0 163 191 202 421 202zM354 771l-10 14l133 128c11 10 24 17 36 17
c24 0 43 -25 43 -48c0 -17 -13 -30 -29 -37z" />
    <glyph glyph-name="racute" unicode="&#x155;" horiz-adv-x="397" 
d="M217 404c0 0 64 103 126 103c33 0 53 -21 53 -57c0 -22 -3 -40 -13 -69h-14c-4 20 -18 35 -45 35c-40 0 -80 -33 -107 -56v-317c0 -17 -6 -51 -75 -51s-75 38 -75 52v377c0 19 -8 35 -29 35c-11 0 -18 -4 -27 -11l-10 12c30 25 74 50 129 50c85 0 87 -74 87 -103z
M133 556l-10 14l133 128c11 10 24 17 36 17c24 0 43 -25 43 -48c0 -17 -13 -30 -29 -37z" />
    <glyph glyph-name="Rcommaaccent" unicode="&#x156;" horiz-adv-x="790" 
d="M421 730c176 0 273 -66 273 -182c0 -115 -57 -158 -134 -184c106 -30 225 -474 346 -474c13 0 27 7 34 12l10 -19c-26 -14 -75 -39 -152 -39c-63 0 -115 37 -151 100c-74 130 -143 292 -215 411l4 20c77 -20 112 64 112 174c0 78 -35 141 -88 141c-42 0 -52 -28 -52 -47
v-579c0 -50 -26 -72 -80 -72s-80 22 -80 72v584c0 18 -13 27 -37 27c-72 0 -155 -45 -155 -105c0 -42 26 -46 33 -46c32 0 39 26 59 26c15 0 38 -13 38 -50c0 -52 -44 -76 -85 -76c-63 0 -101 46 -101 104c0 163 191 202 421 202zM433 -233l-8 15c37 16 44 30 44 45
c0 25 -41 31 -41 66c0 21 18 47 57 47c40 0 60 -32 60 -61c0 -52 -46 -90 -112 -112z" />
    <glyph glyph-name="rcommaaccent" unicode="&#x157;" horiz-adv-x="397" 
d="M217 404c0 0 64 103 126 103c33 0 53 -21 53 -57c0 -22 -3 -40 -13 -69h-14c-4 20 -18 35 -45 35c-40 0 -80 -33 -107 -56v-317c0 -17 -6 -51 -75 -51s-75 38 -75 52v377c0 19 -8 35 -29 35c-11 0 -18 -4 -27 -11l-10 12c30 25 74 50 129 50c85 0 87 -74 87 -103z
M91 -233l-8 15c37 16 44 30 44 45c0 25 -41 31 -41 66c0 21 18 47 57 47c40 0 60 -32 60 -61c0 -52 -46 -90 -112 -112z" />
    <glyph glyph-name="Rcaron" unicode="&#x158;" horiz-adv-x="790" 
d="M421 730c176 0 273 -66 273 -182c0 -115 -57 -158 -134 -184c106 -30 225 -474 346 -474c13 0 27 7 34 12l10 -19c-26 -14 -75 -39 -152 -39c-63 0 -115 37 -151 100c-74 130 -143 292 -215 411l4 20c77 -20 112 64 112 174c0 78 -35 141 -88 141c-42 0 -52 -28 -52 -47
v-579c0 -50 -26 -72 -80 -72s-80 22 -80 72v584c0 18 -13 27 -37 27c-72 0 -155 -45 -155 -105c0 -42 26 -46 33 -46c32 0 39 26 59 26c15 0 38 -13 38 -50c0 -52 -44 -76 -85 -76c-63 0 -101 46 -101 104c0 163 191 202 421 202zM449 772h-56l-110 143l15 15l123 -84
l123 84l15 -15z" />
    <glyph glyph-name="rcaron" unicode="&#x159;" horiz-adv-x="397" 
d="M217 404c0 0 64 103 126 103c33 0 53 -21 53 -57c0 -22 -3 -40 -13 -69h-14c-4 20 -18 35 -45 35c-40 0 -80 -33 -107 -56v-317c0 -17 -6 -51 -75 -51s-75 38 -75 52v377c0 19 -8 35 -29 35c-11 0 -18 -4 -27 -11l-10 12c30 25 74 50 129 50c85 0 87 -74 87 -103z
M228 557h-56l-110 143l15 15l123 -84l123 84l15 -15z" />
    <glyph glyph-name="Sacute" unicode="&#x15a;" horiz-adv-x="514" 
d="M213 -71c52 0 106 36 106 138c0 165 -274 291 -274 469c0 119 93 194 206 194c121 0 191 -54 191 -121c0 -31 -18 -71 -59 -71c-72 0 -15 147 -112 147c-35 0 -73 -30 -73 -98c0 -157 285 -274 285 -475c0 -147 -121 -232 -268 -232c-133 0 -206 72 -206 146
c0 31 19 76 57 76c79 0 16 -173 147 -173zM180 771l-10 14l133 128c11 10 24 17 36 17c24 0 43 -25 43 -48c0 -17 -13 -30 -29 -37z" />
    <glyph glyph-name="sacute" unicode="&#x15b;" horiz-adv-x="379" 
d="M218 468c-30 0 -56 -16 -56 -53c0 -75 187 -150 187 -275c0 -93 -67 -148 -170 -148c-89 0 -147 58 -169 91l17 12c17 -20 53 -48 91 -48c47 0 80 23 80 67c0 74 -166 162 -166 271c0 82 73 122 148 122c87 0 146 -32 146 -96c0 -25 -17 -46 -46 -46c-28 0 -43 13 -43 34
c0 28 33 28 33 39c0 18 -22 30 -52 30zM112 556l-10 14l133 128c11 10 24 17 36 17c24 0 43 -25 43 -48c0 -17 -13 -30 -29 -37z" />
    <glyph glyph-name="Scircumflex" unicode="&#x15c;" horiz-adv-x="514" 
d="M213 -71c52 0 106 36 106 138c0 165 -274 291 -274 469c0 119 93 194 206 194c121 0 191 -54 191 -121c0 -31 -18 -71 -59 -71c-72 0 -15 147 -112 147c-35 0 -73 -30 -73 -98c0 -157 285 -274 285 -475c0 -147 -121 -232 -268 -232c-133 0 -206 72 -206 146
c0 31 19 76 57 76c79 0 16 -173 147 -173zM219 930h56l110 -143l-15 -15l-123 84l-123 -84l-15 15z" />
    <glyph glyph-name="scircumflex" unicode="&#x15d;" horiz-adv-x="379" 
d="M218 468c-30 0 -56 -16 -56 -53c0 -75 187 -150 187 -275c0 -93 -67 -148 -170 -148c-89 0 -147 58 -169 91l17 12c17 -20 53 -48 91 -48c47 0 80 23 80 67c0 74 -166 162 -166 271c0 82 73 122 148 122c87 0 146 -32 146 -96c0 -25 -17 -46 -46 -46c-28 0 -43 13 -43 34
c0 28 33 28 33 39c0 18 -22 30 -52 30zM151 715h56l110 -143l-15 -15l-123 84l-123 -84l-15 15z" />
    <glyph glyph-name="Scedilla" unicode="&#x15e;" horiz-adv-x="514" 
d="M213 -22c52 0 106 34 106 130c0 154 -274 273 -274 440c0 112 93 182 206 182c121 0 191 -54 191 -121c0 -31 -18 -71 -59 -71c-72 0 -15 147 -112 147c-35 0 -73 -28 -73 -92c0 -147 285 -257 285 -446c0 -130 -107 -208 -241 -217l-4 -17c82 0 122 -36 122 -78
c0 -73 -72 -85 -127 -85c-54 0 -94 21 -114 36l9 16c26 -14 56 -20 83 -19c42 2 71 18 71 51c0 44 -43 55 -84 56l10 39c-129 3 -199 73 -199 146c0 31 19 76 57 76c79 0 16 -173 147 -173z" />
    <glyph glyph-name="scedilla" unicode="&#x15f;" horiz-adv-x="379" 
d="M218 468c-30 0 -56 -16 -56 -53c0 -75 187 -150 187 -275c0 -91 -64 -145 -163 -148l-8 -34c82 0 122 -43 122 -86c0 -79 -72 -101 -127 -101c-54 0 -94 21 -114 36l9 16c26 -14 56 -20 83 -19c42 2 71 20 71 63c0 52 -43 67 -84 68l15 59c-75 9 -123 59 -143 89l17 12
c17 -20 53 -48 91 -48c47 0 80 23 80 67c0 74 -166 162 -166 271c0 82 73 122 148 122c87 0 146 -32 146 -96c0 -25 -17 -46 -46 -46c-28 0 -43 13 -43 34c0 28 33 28 33 39c0 18 -22 30 -52 30z" />
    <glyph glyph-name="Scaron" unicode="&#x160;" horiz-adv-x="514" 
d="M213 -71c52 0 106 36 106 138c0 165 -274 291 -274 469c0 119 93 194 206 194c121 0 191 -54 191 -121c0 -31 -18 -71 -59 -71c-72 0 -15 147 -112 147c-35 0 -73 -30 -73 -98c0 -157 285 -274 285 -475c0 -147 -121 -232 -268 -232c-133 0 -206 72 -206 146
c0 31 19 76 57 76c79 0 16 -173 147 -173zM275 772h-56l-110 143l15 15l123 -84l123 84l15 -15z" />
    <glyph glyph-name="scaron" unicode="&#x161;" horiz-adv-x="379" 
d="M218 468c-30 0 -56 -16 -56 -53c0 -75 187 -150 187 -275c0 -93 -67 -148 -170 -148c-89 0 -147 58 -169 91l17 12c17 -20 53 -48 91 -48c47 0 80 23 80 67c0 74 -166 162 -166 271c0 82 73 122 148 122c87 0 146 -32 146 -96c0 -25 -17 -46 -46 -46c-28 0 -43 13 -43 34
c0 28 33 28 33 39c0 18 -22 30 -52 30zM207 557h-56l-110 143l15 15l123 -84l123 84l15 -15z" />
    <glyph glyph-name="Tcommaaccent" unicode="&#x162;" horiz-adv-x="582" 
d="M365 -8c-54 0 -80 22 -80 72v620c-63 -5 -229 -47 -229 -134c0 -42 26 -46 33 -46c32 0 39 26 59 26c15 0 38 -13 38 -50c0 -52 -44 -76 -85 -76c-63 0 -101 46 -101 104c0 152 180 222 401 222c106 0 205 -4 232 -11c26 -6 29 -25 29 -43c0 -15 -7 -41 -24 -41
c-15 0 -25 44 -193 50v-621c0 -50 -26 -72 -80 -72zM309 -233l-8 15c37 16 44 30 44 45c0 25 -41 31 -41 66c0 21 18 47 57 47c40 0 60 -32 60 -61c0 -52 -46 -90 -112 -112z" />
    <glyph glyph-name="tcommaaccent" unicode="&#x163;" horiz-adv-x="337" 
d="M295 465h-76v-361c0 -34 14 -46 37 -46c35 0 56 48 56 48l15 -7c-20 -42 -47 -106 -149 -106c-57 0 -110 34 -110 110v362h-55v35c37 0 143 34 167 144h39v-144h80c26 0 39 4 39 13c0 13 -32 5 -32 35c0 18 13 29 31 29c23 0 35 -22 35 -43c0 -42 -23 -69 -77 -69z
M127 -233l-8 15c37 16 44 30 44 45c0 25 -41 31 -41 66c0 21 18 47 57 47c40 0 60 -32 60 -61c0 -52 -46 -90 -112 -112z" />
    <glyph glyph-name="Tcaron" unicode="&#x164;" horiz-adv-x="582" 
d="M365 -8c-54 0 -80 22 -80 72v620c-63 -5 -229 -47 -229 -134c0 -42 26 -46 33 -46c32 0 39 26 59 26c15 0 38 -13 38 -50c0 -52 -44 -76 -85 -76c-63 0 -101 46 -101 104c0 152 180 222 401 222c106 0 205 -4 232 -11c26 -6 29 -25 29 -43c0 -15 -7 -41 -24 -41
c-15 0 -25 44 -193 50v-621c0 -50 -26 -72 -80 -72zM395 772h-56l-110 143l15 15l123 -84l123 84l15 -15z" />
    <glyph glyph-name="tcaron" unicode="&#x165;" horiz-adv-x="403" 
d="M295 465h-76v-361c0 -34 14 -46 37 -46c35 0 56 48 56 48l15 -7c-20 -42 -47 -106 -149 -106c-57 0 -110 34 -110 110v362h-55v35c37 0 143 34 167 144h39v-144h80c26 0 39 4 39 13c0 13 -32 5 -32 35c0 18 13 29 31 29c23 0 35 -22 35 -43c0 -42 -23 -69 -77 -69z
M268 582l-15 20c34 23 43 48 43 70c0 25 -17 45 -34 59c-4 5 -6 9 -6 14c0 23 33 53 70 53c35 0 47 -40 47 -62c0 -65 -46 -120 -105 -154z" />
    <glyph glyph-name="Tbar" unicode="&#x166;" horiz-adv-x="582" 
d="M529 514v-43h-84v-407c0 -50 -26 -72 -80 -72s-80 22 -80 72v407h-82v43h82v170c-11 -1 -22 -2 -33 -4c-63 -12 -196 -51 -196 -130c0 -42 26 -46 33 -46c32 0 39 26 59 26c15 0 38 -13 38 -50c0 -52 -44 -76 -85 -76c-63 0 -101 46 -101 104c0 152 180 222 401 222
c106 0 205 -4 232 -11c26 -6 29 -25 29 -43c0 -15 -7 -41 -24 -41c-15 0 -25 44 -193 50v-171h84z" />
    <glyph glyph-name="tbar" unicode="&#x167;" horiz-adv-x="337" 
d="M295 465h-76v-99h107v-35h-107v-227c0 -34 14 -46 37 -46c35 0 56 48 56 48l15 -7c-20 -42 -47 -106 -149 -106c-57 0 -110 34 -110 110v228h-52v35h52v99h-55v35c37 0 143 34 167 144h39v-144h80c26 0 39 4 39 13c0 13 -32 5 -32 35c0 18 13 29 31 29
c23 0 35 -22 35 -43c0 -42 -23 -69 -77 -69z" />
    <glyph glyph-name="Ugrave" unicode="&#xd9;" horiz-adv-x="838" 
d="M689 -8c-66 0 -84 28 -89 54c-41 -30 -94 -54 -161 -54c-119 0 -211 65 -211 221c0 172 20 226 20 401c0 36 -12 69 -55 69c-42 0 -137 -41 -137 -113c0 -42 26 -46 33 -46c32 0 39 26 59 26c15 0 38 -13 38 -50c0 -52 -44 -76 -85 -76c-63 0 -101 46 -101 104
c0 135 145 202 262 202c134 0 146 -95 146 -116c0 -158 -20 -229 -20 -401c0 -142 64 -165 102 -165c36 0 74 12 108 34v566c0 19 -8 31 -25 31c-18 0 -34 -8 -46 -14l-8 18c33 17 98 47 148 47c89 0 91 -52 91 -81v-575c0 -19 8 -31 25 -31c18 0 34 8 46 14l8 -18
c-33 -17 -98 -47 -148 -47zM549 785l-10 -14l-173 74c-16 7 -29 20 -29 37c0 23 19 48 43 48c12 0 25 -7 36 -17z" />
    <glyph glyph-name="ugrave" unicode="&#xf9;" horiz-adv-x="555" 
d="M488 436v-351c0 -12 1 -30 20 -30c12 0 22 11 30 20l12 -10c-19 -27 -59 -73 -126 -73c-57 0 -86 32 -86 71v22s-82 -93 -163 -93c-79 0 -108 62 -108 120v302c0 12 -1 30 -20 30c-12 0 -22 -11 -30 -20l-12 10c19 27 59 73 126 73c57 0 86 -32 86 -71v-326
c0 -18 11 -40 34 -40c38 0 77 46 87 59v285c0 12 -1 30 -20 30c-12 0 -22 -11 -30 -20l-12 10c19 27 59 73 126 73c57 0 86 -32 86 -71zM346 570l-10 -14l-173 74c-16 7 -29 20 -29 37c0 23 19 48 43 48c12 0 25 -7 36 -17z" />
    <glyph glyph-name="Uacute" unicode="&#xda;" horiz-adv-x="838" 
d="M689 -8c-66 0 -84 28 -89 54c-41 -30 -94 -54 -161 -54c-119 0 -211 65 -211 221c0 172 20 226 20 401c0 36 -12 69 -55 69c-42 0 -137 -41 -137 -113c0 -42 26 -46 33 -46c32 0 39 26 59 26c15 0 38 -13 38 -50c0 -52 -44 -76 -85 -76c-63 0 -101 46 -101 104
c0 135 145 202 262 202c134 0 146 -95 146 -116c0 -158 -20 -229 -20 -401c0 -142 64 -165 102 -165c36 0 74 12 108 34v566c0 19 -8 31 -25 31c-18 0 -34 -8 -46 -14l-8 18c33 17 98 47 148 47c89 0 91 -52 91 -81v-575c0 -19 8 -31 25 -31c18 0 34 8 46 14l8 -18
c-33 -17 -98 -47 -148 -47zM406 771l-10 14l133 128c11 10 24 17 36 17c24 0 43 -25 43 -48c0 -17 -13 -30 -29 -37z" />
    <glyph glyph-name="uacute" unicode="&#xfa;" horiz-adv-x="555" 
d="M488 436v-351c0 -12 1 -30 20 -30c12 0 22 11 30 20l12 -10c-19 -27 -59 -73 -126 -73c-57 0 -86 32 -86 71v22s-82 -93 -163 -93c-79 0 -108 62 -108 120v302c0 12 -1 30 -20 30c-12 0 -22 -11 -30 -20l-12 10c19 27 59 73 126 73c57 0 86 -32 86 -71v-326
c0 -18 11 -40 34 -40c38 0 77 46 87 59v285c0 12 -1 30 -20 30c-12 0 -22 -11 -30 -20l-12 10c19 27 59 73 126 73c57 0 86 -32 86 -71zM203 556l-10 14l133 128c11 10 24 17 36 17c24 0 43 -25 43 -48c0 -17 -13 -30 -29 -37z" />
    <glyph glyph-name="Ucircumflex" unicode="&#xdb;" horiz-adv-x="838" 
d="M689 -8c-66 0 -84 28 -89 54c-41 -30 -94 -54 -161 -54c-119 0 -211 65 -211 221c0 172 20 226 20 401c0 36 -12 69 -55 69c-42 0 -137 -41 -137 -113c0 -42 26 -46 33 -46c32 0 39 26 59 26c15 0 38 -13 38 -50c0 -52 -44 -76 -85 -76c-63 0 -101 46 -101 104
c0 135 145 202 262 202c134 0 146 -95 146 -116c0 -158 -20 -229 -20 -401c0 -142 64 -165 102 -165c36 0 74 12 108 34v566c0 19 -8 31 -25 31c-18 0 -34 -8 -46 -14l-8 18c33 17 98 47 148 47c89 0 91 -52 91 -81v-575c0 -19 8 -31 25 -31c18 0 34 8 46 14l8 -18
c-33 -17 -98 -47 -148 -47zM445 930h56l110 -143l-15 -15l-123 84l-123 -84l-15 15z" />
    <glyph glyph-name="ucircumflex" unicode="&#xfb;" horiz-adv-x="555" 
d="M488 436v-351c0 -12 1 -30 20 -30c12 0 22 11 30 20l12 -10c-19 -27 -59 -73 -126 -73c-57 0 -86 32 -86 71v22s-82 -93 -163 -93c-79 0 -108 62 -108 120v302c0 12 -1 30 -20 30c-12 0 -22 -11 -30 -20l-12 10c19 27 59 73 126 73c57 0 86 -32 86 -71v-326
c0 -18 11 -40 34 -40c38 0 77 46 87 59v285c0 12 -1 30 -20 30c-12 0 -22 -11 -30 -20l-12 10c19 27 59 73 126 73c57 0 86 -32 86 -71zM242 715h56l110 -143l-15 -15l-123 84l-123 -84l-15 15z" />
    <glyph glyph-name="Udieresis" unicode="&#xdc;" horiz-adv-x="838" 
d="M689 -8c-66 0 -84 28 -89 54c-41 -30 -94 -54 -161 -54c-119 0 -211 65 -211 221c0 172 20 226 20 401c0 36 -12 69 -55 69c-42 0 -137 -41 -137 -113c0 -42 26 -46 33 -46c32 0 39 26 59 26c15 0 38 -13 38 -50c0 -52 -44 -76 -85 -76c-63 0 -101 46 -101 104
c0 135 145 202 262 202c134 0 146 -95 146 -116c0 -158 -20 -229 -20 -401c0 -142 64 -165 102 -165c36 0 74 12 108 34v566c0 19 -8 31 -25 31c-18 0 -34 -8 -46 -14l-8 18c33 17 98 47 148 47c89 0 91 -52 91 -81v-575c0 -19 8 -31 25 -31c18 0 34 8 46 14l8 -18
c-33 -17 -98 -47 -148 -47zM334 855c0 29 24 53 53 53s53 -24 53 -53s-24 -53 -53 -53s-53 24 -53 53zM506 855c0 29 24 53 53 53s53 -24 53 -53s-24 -53 -53 -53s-53 24 -53 53z" />
    <glyph glyph-name="udieresis" unicode="&#xfc;" horiz-adv-x="555" 
d="M488 436v-351c0 -12 1 -30 20 -30c12 0 22 11 30 20l12 -10c-19 -27 -59 -73 -126 -73c-57 0 -86 32 -86 71v22s-82 -93 -163 -93c-79 0 -108 62 -108 120v302c0 12 -1 30 -20 30c-12 0 -22 -11 -30 -20l-12 10c19 27 59 73 126 73c57 0 86 -32 86 -71v-326
c0 -18 11 -40 34 -40c38 0 77 46 87 59v285c0 12 -1 30 -20 30c-12 0 -22 -11 -30 -20l-12 10c19 27 59 73 126 73c57 0 86 -32 86 -71zM131 640c0 29 24 53 53 53s53 -24 53 -53s-24 -53 -53 -53s-53 24 -53 53zM303 640c0 29 24 53 53 53s53 -24 53 -53s-24 -53 -53 -53
s-53 24 -53 53z" />
    <glyph glyph-name="Utilde" unicode="&#x168;" horiz-adv-x="838" 
d="M689 -8c-66 0 -84 28 -89 54c-41 -30 -94 -54 -161 -54c-119 0 -211 65 -211 221c0 172 20 226 20 401c0 36 -12 69 -55 69c-42 0 -137 -41 -137 -113c0 -42 26 -46 33 -46c32 0 39 26 59 26c15 0 38 -13 38 -50c0 -52 -44 -76 -85 -76c-63 0 -101 46 -101 104
c0 135 145 202 262 202c134 0 146 -95 146 -116c0 -158 -20 -229 -20 -401c0 -142 64 -165 102 -165c36 0 74 12 108 34v566c0 19 -8 31 -25 31c-18 0 -34 -8 -46 -14l-8 18c33 17 98 47 148 47c89 0 91 -52 91 -81v-575c0 -19 8 -31 25 -31c18 0 34 8 46 14l8 -18
c-33 -17 -98 -47 -148 -47zM410 843c-28 0 -47 -27 -52 -55h-22c7 82 49 122 85 122c46 0 83 -48 115 -48c28 0 47 27 52 55h22c-7 -82 -49 -122 -85 -122c-46 0 -83 48 -115 48z" />
    <glyph glyph-name="utilde" unicode="&#x169;" horiz-adv-x="555" 
d="M488 436v-351c0 -12 1 -30 20 -30c12 0 22 11 30 20l12 -10c-19 -27 -59 -73 -126 -73c-57 0 -86 32 -86 71v22s-82 -93 -163 -93c-79 0 -108 62 -108 120v302c0 12 -1 30 -20 30c-12 0 -22 -11 -30 -20l-12 10c19 27 59 73 126 73c57 0 86 -32 86 -71v-326
c0 -18 11 -40 34 -40c38 0 77 46 87 59v285c0 12 -1 30 -20 30c-12 0 -22 -11 -30 -20l-12 10c19 27 59 73 126 73c57 0 86 -32 86 -71zM207 628c-28 0 -47 -27 -52 -55h-22c7 82 49 122 85 122c46 0 83 -48 115 -48c28 0 47 27 52 55h22c-7 -82 -49 -122 -85 -122
c-46 0 -83 48 -115 48z" />
    <glyph glyph-name="Umacron" unicode="&#x16a;" horiz-adv-x="838" 
d="M689 -8c-66 0 -84 28 -89 54c-41 -30 -94 -54 -161 -54c-119 0 -211 65 -211 221c0 172 20 226 20 401c0 36 -12 69 -55 69c-42 0 -137 -41 -137 -113c0 -42 26 -46 33 -46c32 0 39 26 59 26c15 0 38 -13 38 -50c0 -52 -44 -76 -85 -76c-63 0 -101 46 -101 104
c0 135 145 202 262 202c134 0 146 -95 146 -116c0 -158 -20 -229 -20 -401c0 -142 64 -165 102 -165c36 0 74 12 108 34v566c0 19 -8 31 -25 31c-18 0 -34 -8 -46 -14l-8 18c33 17 98 47 148 47c89 0 91 -52 91 -81v-575c0 -19 8 -31 25 -31c18 0 34 8 46 14l8 -18
c-33 -17 -98 -47 -148 -47zM343 821v69h260v-69h-260z" />
    <glyph glyph-name="umacron" unicode="&#x16b;" horiz-adv-x="555" 
d="M488 436v-351c0 -12 1 -30 20 -30c12 0 22 11 30 20l12 -10c-19 -27 -59 -73 -126 -73c-57 0 -86 32 -86 71v22s-82 -93 -163 -93c-79 0 -108 62 -108 120v302c0 12 -1 30 -20 30c-12 0 -22 -11 -30 -20l-12 10c19 27 59 73 126 73c57 0 86 -32 86 -71v-326
c0 -18 11 -40 34 -40c38 0 77 46 87 59v285c0 12 -1 30 -20 30c-12 0 -22 -11 -30 -20l-12 10c19 27 59 73 126 73c57 0 86 -32 86 -71zM140 606v69h260v-69h-260z" />
    <glyph glyph-name="Ubreve" unicode="&#x16c;" horiz-adv-x="838" 
d="M689 -8c-66 0 -84 28 -89 54c-41 -30 -94 -54 -161 -54c-119 0 -211 65 -211 221c0 172 20 226 20 401c0 36 -12 69 -55 69c-42 0 -137 -41 -137 -113c0 -42 26 -46 33 -46c32 0 39 26 59 26c15 0 38 -13 38 -50c0 -52 -44 -76 -85 -76c-63 0 -101 46 -101 104
c0 135 145 202 262 202c134 0 146 -95 146 -116c0 -158 -20 -229 -20 -401c0 -142 64 -165 102 -165c36 0 74 12 108 34v566c0 19 -8 31 -25 31c-18 0 -34 -8 -46 -14l-8 18c33 17 98 47 148 47c89 0 91 -52 91 -81v-575c0 -19 8 -31 25 -31c18 0 34 8 46 14l8 -18
c-33 -17 -98 -47 -148 -47zM473 782c-68 0 -117 42 -129 135h25c7 -27 29 -67 104 -67s97 40 104 67h25c-12 -93 -61 -135 -129 -135z" />
    <glyph glyph-name="ubreve" unicode="&#x16d;" horiz-adv-x="555" 
d="M488 436v-351c0 -12 1 -30 20 -30c12 0 22 11 30 20l12 -10c-19 -27 -59 -73 -126 -73c-57 0 -86 32 -86 71v22s-82 -93 -163 -93c-79 0 -108 62 -108 120v302c0 12 -1 30 -20 30c-12 0 -22 -11 -30 -20l-12 10c19 27 59 73 126 73c57 0 86 -32 86 -71v-326
c0 -18 11 -40 34 -40c38 0 77 46 87 59v285c0 12 -1 30 -20 30c-12 0 -22 -11 -30 -20l-12 10c19 27 59 73 126 73c57 0 86 -32 86 -71zM270 567c-68 0 -117 42 -129 135h25c7 -27 29 -67 104 -67s97 40 104 67h25c-12 -93 -61 -135 -129 -135z" />
    <glyph glyph-name="Uring" unicode="&#x16e;" horiz-adv-x="838" 
d="M689 -8c-66 0 -84 28 -89 54c-41 -30 -94 -54 -161 -54c-119 0 -211 65 -211 221c0 172 20 226 20 401c0 36 -12 69 -55 69c-42 0 -137 -41 -137 -113c0 -42 26 -46 33 -46c32 0 39 26 59 26c15 0 38 -13 38 -50c0 -52 -44 -76 -85 -76c-63 0 -101 46 -101 104
c0 135 145 202 262 202c134 0 146 -95 146 -116c0 -158 -20 -229 -20 -401c0 -142 64 -165 102 -165c36 0 74 12 108 34v566c0 19 -8 31 -25 31c-18 0 -34 -8 -46 -14l-8 18c33 17 98 47 148 47c89 0 91 -52 91 -81v-575c0 -19 8 -31 25 -31c18 0 34 8 46 14l8 -18
c-33 -17 -98 -47 -148 -47zM364 871c0 60 49 109 109 109s109 -49 109 -109s-49 -109 -109 -109s-109 49 -109 109zM419 871c0 -30 24 -54 54 -54s54 24 54 54s-24 54 -54 54s-54 -24 -54 -54z" />
    <glyph glyph-name="uring" unicode="&#x16f;" horiz-adv-x="555" 
d="M488 436v-351c0 -12 1 -30 20 -30c12 0 22 11 30 20l12 -10c-19 -27 -59 -73 -126 -73c-57 0 -86 32 -86 71v22s-82 -93 -163 -93c-79 0 -108 62 -108 120v302c0 12 -1 30 -20 30c-12 0 -22 -11 -30 -20l-12 10c19 27 59 73 126 73c57 0 86 -32 86 -71v-326
c0 -18 11 -40 34 -40c38 0 77 46 87 59v285c0 12 -1 30 -20 30c-12 0 -22 -11 -30 -20l-12 10c19 27 59 73 126 73c57 0 86 -32 86 -71zM161 656c0 60 49 109 109 109s109 -49 109 -109s-49 -109 -109 -109s-109 49 -109 109zM216 656c0 -30 24 -54 54 -54s54 24 54 54
s-24 54 -54 54s-54 -24 -54 -54z" />
    <glyph glyph-name="Uhungarumlaut" unicode="&#x170;" horiz-adv-x="838" 
d="M689 -8c-66 0 -84 28 -89 54c-41 -30 -94 -54 -161 -54c-119 0 -211 65 -211 221c0 172 20 226 20 401c0 36 -12 69 -55 69c-42 0 -137 -41 -137 -113c0 -42 26 -46 33 -46c32 0 39 26 59 26c15 0 38 -13 38 -50c0 -52 -44 -76 -85 -76c-63 0 -101 46 -101 104
c0 135 145 202 262 202c134 0 146 -95 146 -116c0 -158 -20 -229 -20 -401c0 -142 64 -165 102 -165c36 0 74 12 108 34v566c0 19 -8 31 -25 31c-18 0 -34 -8 -46 -14l-8 18c33 17 98 47 148 47c89 0 91 -52 91 -81v-575c0 -19 8 -31 25 -31c18 0 34 8 46 14l8 -18
c-33 -17 -98 -47 -148 -47zM380 772l-14 12l71 119c10 17 24 27 39 27c21 0 37 -15 37 -37c0 -13 -8 -26 -19 -35zM520 772l-14 12l71 119c10 17 24 27 39 27c21 0 37 -15 37 -37c0 -13 -8 -26 -19 -35z" />
    <glyph glyph-name="uhungarumlaut" unicode="&#x171;" horiz-adv-x="555" 
d="M488 436v-351c0 -12 1 -30 20 -30c12 0 22 11 30 20l12 -10c-19 -27 -59 -73 -126 -73c-57 0 -86 32 -86 71v22s-82 -93 -163 -93c-79 0 -108 62 -108 120v302c0 12 -1 30 -20 30c-12 0 -22 -11 -30 -20l-12 10c19 27 59 73 126 73c57 0 86 -32 86 -71v-326
c0 -18 11 -40 34 -40c38 0 77 46 87 59v285c0 12 -1 30 -20 30c-12 0 -22 -11 -30 -20l-12 10c19 27 59 73 126 73c57 0 86 -32 86 -71zM177 557l-14 12l71 119c10 17 24 27 39 27c21 0 37 -15 37 -37c0 -13 -8 -26 -19 -35zM317 557l-14 12l71 119c10 17 24 27 39 27
c21 0 37 -15 37 -37c0 -13 -8 -26 -19 -35z" />
    <glyph glyph-name="Uogonek" unicode="&#x172;" horiz-adv-x="838" 
d="M687 -8c-64 1 -82 28 -87 54c-41 -30 -94 -54 -161 -54c-119 0 -211 65 -211 221c0 172 20 226 20 401c0 36 -12 69 -55 69c-42 0 -137 -41 -137 -113c0 -42 26 -46 33 -46c32 0 39 26 59 26c15 0 38 -13 38 -50c0 -52 -44 -76 -85 -76c-63 0 -101 46 -101 104
c0 135 145 202 262 202c134 0 146 -95 146 -116c0 -158 -20 -229 -20 -401c0 -142 64 -165 102 -165c36 0 74 12 108 34v566c0 19 -8 31 -25 31c-18 0 -34 -8 -46 -14l-8 18c33 17 98 47 148 47c89 0 91 -52 91 -81v-575c0 -19 8 -31 25 -31c18 0 34 8 46 14l8 -18
c-56 -31 -148 -58 -148 -142c0 -38 25 -59 67 -59c34 0 59 9 73 15l8 -18c-21 -13 -65 -34 -119 -34c-63 0 -104 27 -104 78c0 49 30 84 73 113z" />
    <glyph glyph-name="uogonek" unicode="&#x173;" horiz-adv-x="555" 
d="M488 436v-351c0 -12 1 -30 20 -30c12 0 22 11 30 20l12 -10c-41 -60 -148 -87 -148 -170c0 -38 25 -59 67 -59c34 0 59 9 73 15l8 -18c-21 -13 -65 -34 -119 -34c-63 0 -104 27 -104 78s33 87 78 117c-45 6 -67 34 -67 69v22s-82 -93 -163 -93c-79 0 -108 62 -108 120
v302c0 12 -1 30 -20 30c-12 0 -22 -11 -30 -20l-12 10c19 27 59 73 126 73c57 0 86 -32 86 -71v-326c0 -18 11 -40 34 -40c38 0 77 46 87 59v285c0 12 -1 30 -20 30c-12 0 -22 -11 -30 -20l-12 10c19 27 59 73 126 73c57 0 86 -32 86 -71z" />
    <glyph glyph-name="Wcircumflex" unicode="&#x174;" horiz-adv-x="1053" 
d="M410 567l122 -396c29 77 64 180 86 274l-47 155c-13 43 34 64 83 64c43 0 67 -7 77 -41l140 -451c45 121 106 307 106 419c0 86 -29 109 -29 130c0 27 33 39 56 39c26 0 45 -7 52 -26s7 -45 7 -56c0 -110 -155 -567 -186 -651c-11 -31 -36 -35 -65 -35
c-52 0 -63 24 -68 39l-97 319c-43 -142 -92 -282 -109 -323c-13 -31 -38 -35 -66 -35c-52 0 -63 24 -68 39l-174 581c-13 44 -28 61 -72 61c-36 0 -105 -36 -105 -103c0 -42 26 -46 33 -46c32 0 39 26 59 26c15 0 38 -13 38 -50c0 -52 -44 -76 -85 -76c-63 0 -98 47 -98 104
c0 135 114 202 229 202c131 0 157 -88 181 -163zM600 880h56l110 -143l-15 -15l-123 84l-123 -84l-15 15z" />
    <glyph glyph-name="wcircumflex" unicode="&#x175;" horiz-adv-x="751" 
d="M656 352c0 86 -28 107 -28 128c0 19 36 27 50 27c19 0 26 -4 31 -19c6 -19 8 -52 8 -87c0 -151 -51 -409 -189 -409c-73 0 -115 62 -141 141c-30 -80 -77 -141 -144 -141c-163 0 -174 310 -190 423c-4 26 -11 41 -32 41c-11 0 -18 -4 -27 -11l-10 12c30 25 74 50 129 50
c78 0 92 -61 97 -98c24 -196 43 -300 84 -300c27 0 53 48 69 120c-13 72 -18 143 -25 186c-10 61 8 92 72 92c56 0 75 -17 84 -89c25 -196 44 -309 85 -309c45 0 77 118 77 243zM369 715h56l110 -143l-15 -15l-123 84l-123 -84l-15 15z" />
    <glyph glyph-name="Wgrave" unicode="&#x1e80;" horiz-adv-x="1053" 
d="M410 567l122 -396c29 77 64 180 86 274l-47 155c-13 43 34 64 83 64c43 0 67 -7 77 -41l140 -451c45 121 106 307 106 419c0 86 -29 109 -29 130c0 27 33 39 56 39c26 0 45 -7 52 -26s7 -45 7 -56c0 -110 -155 -567 -186 -651c-11 -31 -36 -35 -65 -35
c-52 0 -63 24 -68 39l-97 319c-43 -142 -92 -282 -109 -323c-13 -31 -38 -35 -66 -35c-52 0 -63 24 -68 39l-174 581c-13 44 -28 61 -72 61c-36 0 -105 -36 -105 -103c0 -42 26 -46 33 -46c32 0 39 26 59 26c15 0 38 -13 38 -50c0 -52 -44 -76 -85 -76c-63 0 -98 47 -98 104
c0 135 114 202 229 202c131 0 157 -88 181 -163zM704 735l-10 -14l-173 74c-16 7 -29 20 -29 37c0 23 19 48 43 48c12 0 25 -7 36 -17z" />
    <glyph glyph-name="wgrave" unicode="&#x1e81;" horiz-adv-x="751" 
d="M656 352c0 86 -28 107 -28 128c0 19 36 27 50 27c19 0 26 -4 31 -19c6 -19 8 -52 8 -87c0 -151 -51 -409 -189 -409c-73 0 -115 62 -141 141c-30 -80 -77 -141 -144 -141c-163 0 -174 310 -190 423c-4 26 -11 41 -32 41c-11 0 -18 -4 -27 -11l-10 12c30 25 74 50 129 50
c78 0 92 -61 97 -98c24 -196 43 -300 84 -300c27 0 53 48 69 120c-13 72 -18 143 -25 186c-10 61 8 92 72 92c56 0 75 -17 84 -89c25 -196 44 -309 85 -309c45 0 77 118 77 243zM473 570l-10 -14l-173 74c-16 7 -29 20 -29 37c0 23 19 48 43 48c12 0 25 -7 36 -17z" />
    <glyph glyph-name="Wacute" unicode="&#x1e82;" horiz-adv-x="1053" 
d="M410 567l122 -396c29 77 64 180 86 274l-47 155c-13 43 34 64 83 64c43 0 67 -7 77 -41l140 -451c45 121 106 307 106 419c0 86 -29 109 -29 130c0 27 33 39 56 39c26 0 45 -7 52 -26s7 -45 7 -56c0 -110 -155 -567 -186 -651c-11 -31 -36 -35 -65 -35
c-52 0 -63 24 -68 39l-97 319c-43 -142 -92 -282 -109 -323c-13 -31 -38 -35 -66 -35c-52 0 -63 24 -68 39l-174 581c-13 44 -28 61 -72 61c-36 0 -105 -36 -105 -103c0 -42 26 -46 33 -46c32 0 39 26 59 26c15 0 38 -13 38 -50c0 -52 -44 -76 -85 -76c-63 0 -98 47 -98 104
c0 135 114 202 229 202c131 0 157 -88 181 -163zM561 721l-10 14l133 128c11 10 24 17 36 17c24 0 43 -25 43 -48c0 -17 -13 -30 -29 -37z" />
    <glyph glyph-name="wacute" unicode="&#x1e83;" horiz-adv-x="751" 
d="M656 352c0 86 -28 107 -28 128c0 19 36 27 50 27c19 0 26 -4 31 -19c6 -19 8 -52 8 -87c0 -151 -51 -409 -189 -409c-73 0 -115 62 -141 141c-30 -80 -77 -141 -144 -141c-163 0 -174 310 -190 423c-4 26 -11 41 -32 41c-11 0 -18 -4 -27 -11l-10 12c30 25 74 50 129 50
c78 0 92 -61 97 -98c24 -196 43 -300 84 -300c27 0 53 48 69 120c-13 72 -18 143 -25 186c-10 61 8 92 72 92c56 0 75 -17 84 -89c25 -196 44 -309 85 -309c45 0 77 118 77 243zM330 556l-10 14l133 128c11 10 24 17 36 17c24 0 43 -25 43 -48c0 -17 -13 -30 -29 -37z" />
    <glyph glyph-name="Wdieresis" unicode="&#x1e84;" horiz-adv-x="1053" 
d="M410 567l122 -396c29 77 64 180 86 274l-47 155c-13 43 34 64 83 64c43 0 67 -7 77 -41l140 -451c45 121 106 307 106 419c0 86 -29 109 -29 130c0 27 33 39 56 39c26 0 45 -7 52 -26s7 -45 7 -56c0 -110 -155 -567 -186 -651c-11 -31 -36 -35 -65 -35
c-52 0 -63 24 -68 39l-97 319c-43 -142 -92 -282 -109 -323c-13 -31 -38 -35 -66 -35c-52 0 -63 24 -68 39l-174 581c-13 44 -28 61 -72 61c-36 0 -105 -36 -105 -103c0 -42 26 -46 33 -46c32 0 39 26 59 26c15 0 38 -13 38 -50c0 -52 -44 -76 -85 -76c-63 0 -98 47 -98 104
c0 135 114 202 229 202c131 0 157 -88 181 -163zM489 805c0 29 24 53 53 53s53 -24 53 -53s-24 -53 -53 -53s-53 24 -53 53zM661 805c0 29 24 53 53 53s53 -24 53 -53s-24 -53 -53 -53s-53 24 -53 53z" />
    <glyph glyph-name="wdieresis" unicode="&#x1e85;" horiz-adv-x="751" 
d="M656 352c0 86 -28 107 -28 128c0 19 36 27 50 27c19 0 26 -4 31 -19c6 -19 8 -52 8 -87c0 -151 -51 -409 -189 -409c-73 0 -115 62 -141 141c-30 -80 -77 -141 -144 -141c-163 0 -174 310 -190 423c-4 26 -11 41 -32 41c-11 0 -18 -4 -27 -11l-10 12c30 25 74 50 129 50
c78 0 92 -61 97 -98c24 -196 43 -300 84 -300c27 0 53 48 69 120c-13 72 -18 143 -25 186c-10 61 8 92 72 92c56 0 75 -17 84 -89c25 -196 44 -309 85 -309c45 0 77 118 77 243zM258 640c0 29 24 53 53 53s53 -24 53 -53s-24 -53 -53 -53s-53 24 -53 53zM430 640
c0 29 24 53 53 53s53 -24 53 -53s-24 -53 -53 -53s-53 24 -53 53z" />
    <glyph glyph-name="Yacute" unicode="&#xdd;" horiz-adv-x="598" 
d="M82 -228c95 0 165 106 224 247c-70 233 -146 423 -214 551c-36 68 -77 104 -111 104c-21 0 -37 -11 -49 -21l-12 15c27 27 81 62 161 62c41 0 101 -11 146 -74c50 -70 106 -200 169 -382c40 121 78 243 122 335c46 97 91 151 182 151c34 0 58 -15 58 -44
c0 -26 -9 -45 -24 -45c-25 0 -22 45 -57 45c-200 0 -217 -978 -598 -978c-66 0 -129 23 -133 55c-2 23 8 51 32 51c22 0 29 -72 104 -72zM320 771l-10 14l133 128c11 10 24 17 36 17c24 0 43 -25 43 -48c0 -17 -13 -30 -29 -37z" />
    <glyph glyph-name="yacute" unicode="&#xfd;" horiz-adv-x="480" 
d="M450 430c0 -357 -219 -656 -444 -656c-57 0 -90 21 -90 53c0 25 16 49 37 49c25 0 27 -59 72 -59c59 0 128 42 190 109c-56 197 -163 530 -221 530c-12 0 -17 -4 -26 -11l-10 12c26 22 54 50 127 50c40 0 74 -15 102 -63c41 -72 87 -204 132 -362c40 84 67 181 67 281
c0 71 -22 98 -22 118s36 26 51 26c35 0 35 -30 35 -77zM168 556l-10 14l133 128c11 10 24 17 36 17c24 0 43 -25 43 -48c0 -17 -13 -30 -29 -37z" />
    <glyph glyph-name="Ycircumflex" unicode="&#x176;" horiz-adv-x="598" 
d="M82 -228c95 0 165 106 224 247c-70 233 -146 423 -214 551c-36 68 -77 104 -111 104c-21 0 -37 -11 -49 -21l-12 15c27 27 81 62 161 62c41 0 101 -11 146 -74c50 -70 106 -200 169 -382c40 121 78 243 122 335c46 97 91 151 182 151c34 0 58 -15 58 -44
c0 -26 -9 -45 -24 -45c-25 0 -22 45 -57 45c-200 0 -217 -978 -598 -978c-66 0 -129 23 -133 55c-2 23 8 51 32 51c22 0 29 -72 104 -72zM359 930h56l110 -143l-15 -15l-123 84l-123 -84l-15 15z" />
    <glyph glyph-name="ycircumflex" unicode="&#x177;" horiz-adv-x="480" 
d="M450 430c0 -357 -219 -656 -444 -656c-57 0 -90 21 -90 53c0 25 16 49 37 49c25 0 27 -59 72 -59c59 0 128 42 190 109c-56 197 -163 530 -221 530c-12 0 -17 -4 -26 -11l-10 12c26 22 54 50 127 50c40 0 74 -15 102 -63c41 -72 87 -204 132 -362c40 84 67 181 67 281
c0 71 -22 98 -22 118s36 26 51 26c35 0 35 -30 35 -77zM207 715h56l110 -143l-15 -15l-123 84l-123 -84l-15 15z" />
    <glyph glyph-name="Ydieresis" unicode="&#x178;" horiz-adv-x="598" 
d="M82 -228c95 0 165 106 224 247c-70 233 -146 423 -214 551c-36 68 -77 104 -111 104c-21 0 -37 -11 -49 -21l-12 15c27 27 81 62 161 62c41 0 101 -11 146 -74c50 -70 106 -200 169 -382c40 121 78 243 122 335c46 97 91 151 182 151c34 0 58 -15 58 -44
c0 -26 -9 -45 -24 -45c-25 0 -22 45 -57 45c-200 0 -217 -978 -598 -978c-66 0 -129 23 -133 55c-2 23 8 51 32 51c22 0 29 -72 104 -72zM248 855c0 29 24 53 53 53s53 -24 53 -53s-24 -53 -53 -53s-53 24 -53 53zM420 855c0 29 24 53 53 53s53 -24 53 -53s-24 -53 -53 -53
s-53 24 -53 53z" />
    <glyph glyph-name="ydieresis" unicode="&#xff;" horiz-adv-x="480" 
d="M450 430c0 -357 -219 -656 -444 -656c-57 0 -90 21 -90 53c0 25 16 49 37 49c25 0 27 -59 72 -59c59 0 128 42 190 109c-56 197 -163 530 -221 530c-12 0 -17 -4 -26 -11l-10 12c26 22 54 50 127 50c40 0 74 -15 102 -63c41 -72 87 -204 132 -362c40 84 67 181 67 281
c0 71 -22 98 -22 118s36 26 51 26c35 0 35 -30 35 -77zM96 640c0 29 24 53 53 53s53 -24 53 -53s-24 -53 -53 -53s-53 24 -53 53zM268 640c0 29 24 53 53 53s53 -24 53 -53s-24 -53 -53 -53s-53 24 -53 53z" />
    <glyph glyph-name="Ygrave" unicode="&#x1ef2;" horiz-adv-x="598" 
d="M82 -228c95 0 165 106 224 247c-70 233 -146 423 -214 551c-36 68 -77 104 -111 104c-21 0 -37 -11 -49 -21l-12 15c27 27 81 62 161 62c41 0 101 -11 146 -74c50 -70 106 -200 169 -382c40 121 78 243 122 335c46 97 91 151 182 151c34 0 58 -15 58 -44
c0 -26 -9 -45 -24 -45c-25 0 -22 45 -57 45c-200 0 -217 -978 -598 -978c-66 0 -129 23 -133 55c-2 23 8 51 32 51c22 0 29 -72 104 -72zM463 785l-10 -14l-173 74c-16 7 -29 20 -29 37c0 23 19 48 43 48c12 0 25 -7 36 -17z" />
    <glyph glyph-name="ygrave" unicode="&#x1ef3;" horiz-adv-x="480" 
d="M450 430c0 -357 -219 -656 -444 -656c-57 0 -90 21 -90 53c0 25 16 49 37 49c25 0 27 -59 72 -59c59 0 128 42 190 109c-56 197 -163 530 -221 530c-12 0 -17 -4 -26 -11l-10 12c26 22 54 50 127 50c40 0 74 -15 102 -63c41 -72 87 -204 132 -362c40 84 67 181 67 281
c0 71 -22 98 -22 118s36 26 51 26c35 0 35 -30 35 -77zM311 570l-10 -14l-173 74c-16 7 -29 20 -29 37c0 23 19 48 43 48c12 0 25 -7 36 -17z" />
    <glyph glyph-name="Zacute" unicode="&#x179;" horiz-adv-x="582" 
d="M324 34c70 0 161 20 161 88c0 40 -36 35 -36 35c-19 0 -30 -11 -43 -11c-14 0 -32 12 -32 40c0 52 43 73 77 73c66 0 101 -48 101 -99c0 -129 -114 -166 -291 -166c-211 0 -251 36 -251 71c0 30 18 61 62 132l244 390c16 26 35 55 35 71c0 34 -75 32 -102 32
c-70 0 -164 -24 -164 -94c0 -39 36 -34 36 -34c18 0 29 11 42 11c10 0 31 -12 31 -40c0 -50 -42 -71 -75 -71c-65 0 -99 52 -99 97c0 138 165 169 285 169c155 0 221 -27 221 -67c0 -27 -12 -57 -54 -125l-252 -407c-13 -21 -24 -41 -24 -58c0 -29 36 -37 128 -37zM228 771
l-10 14l133 128c11 10 24 17 36 17c24 0 43 -25 43 -48c0 -17 -13 -30 -29 -37z" />
    <glyph glyph-name="zacute" unicode="&#x17a;" horiz-adv-x="427" 
d="M39 122l198 303c6 8 12 19 12 27c0 13 -16 17 -69 17c-97 0 -88 -78 -117 -78c-22 0 -32 32 -32 55c0 35 61 61 167 61c173 0 209 -30 209 -69c0 -21 -23 -53 -30 -63l-203 -311c-2 -3 -8 -11 -8 -19c0 -11 11 -15 72 -15c117 0 103 86 136 86c22 0 34 -37 34 -61
c0 -35 -61 -63 -195 -63c-145 0 -200 23 -200 70c0 19 9 36 26 60zM156 556l-10 14l133 128c11 10 24 17 36 17c24 0 43 -25 43 -48c0 -17 -13 -30 -29 -37z" />
    <glyph glyph-name="Zdotaccent" unicode="&#x17b;" horiz-adv-x="582" 
d="M324 34c70 0 161 20 161 88c0 40 -36 35 -36 35c-19 0 -30 -11 -43 -11c-14 0 -32 12 -32 40c0 52 43 73 77 73c66 0 101 -48 101 -99c0 -129 -114 -166 -291 -166c-211 0 -251 36 -251 71c0 30 18 61 62 132l244 390c16 26 35 55 35 71c0 34 -75 32 -102 32
c-70 0 -164 -24 -164 -94c0 -39 36 -34 36 -34c18 0 29 11 42 11c10 0 31 -12 31 -40c0 -50 -42 -71 -75 -71c-65 0 -99 52 -99 97c0 138 165 169 285 169c155 0 221 -27 221 -67c0 -27 -12 -57 -54 -125l-252 -407c-13 -21 -24 -41 -24 -58c0 -29 36 -37 128 -37zM237 854
c0 32 27 59 58 59c33 0 59 -27 59 -59s-26 -58 -59 -58c-31 0 -58 26 -58 58z" />
    <glyph glyph-name="zdotaccent" unicode="&#x17c;" horiz-adv-x="427" 
d="M39 122l198 303c6 8 12 19 12 27c0 13 -16 17 -69 17c-97 0 -88 -78 -117 -78c-22 0 -32 32 -32 55c0 35 61 61 167 61c173 0 209 -30 209 -69c0 -21 -23 -53 -30 -63l-203 -311c-2 -3 -8 -11 -8 -19c0 -11 11 -15 72 -15c117 0 103 86 136 86c22 0 34 -37 34 -61
c0 -35 -61 -63 -195 -63c-145 0 -200 23 -200 70c0 19 9 36 26 60zM165 639c0 32 27 59 58 59c33 0 59 -27 59 -59s-26 -58 -59 -58c-31 0 -58 26 -58 58z" />
    <glyph glyph-name="Zcaron" unicode="&#x17d;" horiz-adv-x="582" 
d="M324 34c70 0 161 20 161 88c0 40 -36 35 -36 35c-19 0 -30 -11 -43 -11c-14 0 -32 12 -32 40c0 52 43 73 77 73c66 0 101 -48 101 -99c0 -129 -114 -166 -291 -166c-211 0 -251 36 -251 71c0 30 18 61 62 132l244 390c16 26 35 55 35 71c0 34 -75 32 -102 32
c-70 0 -164 -24 -164 -94c0 -39 36 -34 36 -34c18 0 29 11 42 11c10 0 31 -12 31 -40c0 -50 -42 -71 -75 -71c-65 0 -99 52 -99 97c0 138 165 169 285 169c155 0 221 -27 221 -67c0 -27 -12 -57 -54 -125l-252 -407c-13 -21 -24 -41 -24 -58c0 -29 36 -37 128 -37zM323 772
h-56l-110 143l15 15l123 -84l123 84l15 -15z" />
    <glyph glyph-name="zcaron" unicode="&#x17e;" horiz-adv-x="427" 
d="M39 122l198 303c6 8 12 19 12 27c0 13 -16 17 -69 17c-97 0 -88 -78 -117 -78c-22 0 -32 32 -32 55c0 35 61 61 167 61c173 0 209 -30 209 -69c0 -21 -23 -53 -30 -63l-203 -311c-2 -3 -8 -11 -8 -19c0 -11 11 -15 72 -15c117 0 103 86 136 86c22 0 34 -37 34 -61
c0 -35 -61 -63 -195 -63c-145 0 -200 23 -200 70c0 19 9 36 26 60zM251 557h-56l-110 143l15 15l123 -84l123 84l15 -15z" />
    <glyph glyph-name="zero" unicode="0" horiz-adv-x="571" 
d="M285 -8c-140 0 -253 80 -253 257c0 178 113 258 253 258c141 0 254 -80 254 -258c0 -177 -113 -257 -254 -257zM285 464c-37 0 -89 -21 -89 -216c0 -196 52 -212 89 -212c38 0 90 16 90 212c0 195 -52 216 -90 216z" />
    <glyph glyph-name="one" unicode="1" horiz-adv-x="327" 
d="M259 64c0 -50 -25 -72 -79 -72s-79 22 -79 72v326c0 17 -7 37 -35 37c-25 0 -54 -25 -54 -25l-12 16c80 63 144 89 201 89c34 0 58 -19 58 -62v-381z" />
    <glyph glyph-name="two" unicode="2" horiz-adv-x="455" 
d="M231 507c98 0 173 -46 173 -148c0 -106 -144 -181 -224 -229h164c39 0 54 16 58 50h20c0 -63 -1 -180 -83 -180h-339v28c59 37 242 182 242 299c0 56 -29 94 -95 94c-62 0 -103 -35 -128 -72l-13 13c28 61 110 145 225 145z" />
    <glyph glyph-name="three" unicode="3" horiz-adv-x="453" 
d="M214 507c88 0 165 -51 165 -151c0 -80 -57 -114 -102 -131v-3c70 -14 166 -69 166 -202c0 -85 -61 -221 -230 -221c-134 0 -194 90 -223 133l15 13c33 -46 75 -71 135 -71c54 0 137 39 137 159c0 89 -55 159 -172 163v20c54 0 113 40 113 114c0 52 -24 110 -89 110
c-38 0 -61 -20 -82 -49l-15 12c41 61 97 104 182 104z" />
    <glyph glyph-name="four" unicode="4" horiz-adv-x="521" 
d="M256 -129v149h-231v45l227 384c15 25 34 58 86 58c56 0 76 -26 76 -63v-379h97v-45h-97v-149c0 -50 -25 -72 -79 -72s-79 22 -79 72zM89 65h167v289z" />
    <glyph glyph-name="five" unicode="5" horiz-adv-x="472" 
d="M419 527c0 -61 -3 -157 -86 -157h-215l-31 -152c28 23 78 42 131 42c110 0 232 -60 232 -218c0 -155 -103 -243 -229 -243c-128 0 -185 71 -216 112l15 14c26 -33 67 -59 123 -59c75 0 140 56 140 174c0 113 -58 164 -129 164c-55 0 -82 -33 -94 -52l-21 6l68 342h245
c31 0 47 9 47 27h20z" />
    <glyph glyph-name="six" unicode="6" horiz-adv-x="538" 
d="M361 725l8 -18c-116 -61 -155 -166 -166 -300c27 25 67 51 133 51c62 0 167 -47 167 -214c0 -163 -108 -252 -231 -252c-130 0 -237 101 -237 305c0 189 138 372 326 428zM264 395c-31 0 -50 -10 -63 -20c-2 -25 -2 -51 -2 -77c0 -173 29 -261 79 -261c44 0 69 73 69 182
c0 120 -41 176 -83 176z" />
    <glyph glyph-name="seven" unicode="7" horiz-adv-x="447" 
d="M333 370h-249c-29 0 -46 -6 -54 -37h-20c21 127 31 167 83 167h314c27 0 40 -12 40 -29c0 -6 -2 -14 -6 -22c-99 -177 -197 -384 -197 -578c0 -46 -25 -72 -79 -72s-79 22 -79 72c0 127 110 302 247 499z" />
    <glyph glyph-name="eight" unicode="8" horiz-adv-x="511" 
d="M445 577c0 -55 -30 -100 -98 -147c66 -57 132 -122 132 -221c0 -142 -108 -216 -230 -217c-156 -1 -217 96 -217 185c0 73 32 137 133 203c-56 48 -105 100 -105 179c0 118 104 171 206 171c95 0 179 -52 179 -153zM326 160c0 84 -61 138 -124 190
c-35 -53 -46 -125 -46 -177c0 -92 41 -139 89 -139c52 0 81 59 81 126zM208 610c0 -59 48 -103 104 -151c27 51 24 102 24 130c0 47 -19 99 -64 99c-39 0 -64 -35 -64 -78z" />
    <glyph glyph-name="nine" unicode="9" horiz-adv-x="534" 
d="M138 -201l-8 18c113 53 170 149 193 271c-24 -17 -58 -32 -109 -32c-93 0 -184 79 -184 214c0 150 104 237 227 237c131 0 242 -96 242 -291c0 -187 -165 -368 -361 -417zM272 111c23 0 43 6 57 13c5 38 7 78 7 120c0 143 -28 220 -76 220c-46 0 -75 -76 -75 -192
c0 -123 47 -161 87 -161z" />
    <glyph glyph-name="dollar" unicode="$" horiz-adv-x="506" 
d="M282 671c-7 0 -13 -1 -19 -2v-198c77 -76 191 -158 191 -267c0 -115 -75 -188 -191 -194v-145h-30v145c-107 6 -174 81 -202 123l16 13c24 -27 74 -81 151 -81c12 0 24 1 35 4v224c-77 74 -187 153 -187 257c0 105 93 155 187 159v90h30v-90c79 -4 147 -39 147 -98
c0 -25 -17 -46 -46 -46c-28 0 -43 13 -43 34c0 28 33 28 33 39c0 18 -33 33 -72 33zM304 177c0 29 -17 57 -41 85v-178c25 18 41 49 41 93zM193 587c0 -29 16 -57 40 -85v156c-24 -13 -40 -37 -40 -71z" />
    <glyph glyph-name="cent" unicode="&#xa2;" horiz-adv-x="475" 
d="M365 417c-38 0 -52 26 -52 53c0 15 3 29 3 41c0 15 -5 25 -27 25c-4 0 -9 -1 -9 -1v-379c15 -6 31 -9 50 -9c44 0 78 22 108 48l12 -11c-27 -36 -79 -90 -170 -100v-139h-30v138c-110 0 -215 87 -215 234c0 155 115 245 215 261v121h30v-118c96 0 141 -47 141 -96
c0 -37 -19 -68 -56 -68zM182 368c0 -90 22 -160 68 -195v353c-36 -20 -68 -69 -68 -158z" />
    <glyph glyph-name="sterling" unicode="&#xa3;" horiz-adv-x="543" 
d="M274 730c124 0 199 -62 199 -121c0 -28 -18 -62 -55 -62c-65 0 -2 141 -95 141c-69 0 -94 -68 -94 -131c0 -84 41 -152 53 -224h114v-38h-110c-1 -84 -52 -160 -96 -195h225c39 0 54 16 58 50h20c0 -63 -1 -150 -83 -150h-359v28c83 60 127 125 127 181
c0 31 -8 59 -20 86h-108v38h89c-34 60 -78 116 -78 195c0 125 99 202 213 202z" />
    <glyph glyph-name="yen" unicode="&#xa5;" horiz-adv-x="538" 
d="M499 386v-35h-139l-6 -16v-39h145v-35h-145v-197c0 -50 -26 -72 -80 -72s-78 22 -78 72v197h-145v35h145v8l-21 47h-124v35h109l-115 262c-9 21 -15 31 -32 31c-12 0 -23 -6 -35 -12l-8 18c33 17 94 45 144 45c55 0 74 -13 91 -52l120 -274c53 123 82 200 95 248
c10 37 17 78 65 78c18 0 33 -10 33 -26c0 -24 -30 -59 -142 -318h123z" />
    <glyph glyph-name="florin" unicode="&#x192;" horiz-adv-x="511" 
d="M104 420v35h89l11 93c17 151 98 182 163 182c61 0 124 -20 124 -86c0 -26 -13 -58 -40 -58c-40 0 -29 95 -62 95c-22 0 -30 -24 -35 -65l-19 -161h96v-35h-100l-44 -379c-18 -151 -98 -182 -163 -182c-61 0 -124 20 -124 86c0 26 13 58 40 58c40 0 29 -95 62 -95
c22 0 30 24 35 65l52 447h-85z" />
    <glyph glyph-name="Euro" unicode="&#x20ac;" horiz-adv-x="596" 
d="M393 688c-33 0 -122 -37 -138 -256h194l-10 -35h-186v-55h177l-10 -35h-166c13 -222 104 -261 165 -261c46 0 100 21 136 66l15 -14c-36 -48 -101 -106 -202 -106c-145 0 -261 101 -276 315h-72l10 35h60c0 29 0 42 1 55h-71l10 35h65c27 195 159 298 283 298
c106 0 173 -53 173 -121c0 -32 -21 -72 -63 -72c-74 0 -2 151 -95 151z" />
    <glyph glyph-name="currency" unicode="&#xa4;" horiz-adv-x="500" 
d="M85 162l-50 51l81 80c-15 24 -24 53 -24 84s9 59 24 84l-81 81l50 50l81 -81c25 15 53 25 84 25s59 -9 84 -25l80 81l51 -50l-81 -81c15 -24 24 -53 24 -84s-9 -60 -24 -84l81 -80l-51 -50l-80 80c-25 -15 -53 -24 -84 -24s-60 9 -84 24zM164 377c0 -48 38 -86 86 -86
s86 38 86 86s-38 86 -86 86s-86 -38 -86 -86z" />
    <glyph glyph-name="percent" unicode="%" horiz-adv-x="750" 
d="M200 351c-86 0 -165 69 -165 189s79 190 165 190s165 -70 165 -190s-79 -189 -165 -189zM200 699c-24 0 -52 -13 -52 -159s28 -155 52 -155c23 0 51 9 51 155s-28 159 -51 159zM156 11l401 720l33 -19l-401 -720zM550 -8c-86 0 -165 69 -165 189s79 190 165 190
s165 -70 165 -190s-79 -189 -165 -189zM550 340c-24 0 -52 -13 -52 -159s28 -155 52 -155c23 0 51 9 51 155s-28 159 -51 159z" />
    <glyph glyph-name="perthousand" unicode="&#x2030;" horiz-adv-x="1120" 
d="M200 351c-86 0 -165 69 -165 189s79 190 165 190s165 -70 165 -190s-79 -189 -165 -189zM200 699c-24 0 -52 -13 -52 -159s28 -155 52 -155c23 0 51 9 51 155s-28 159 -51 159zM156 11l401 720l33 -19l-401 -720zM550 -8c-86 0 -165 69 -165 189s79 190 165 190
s165 -70 165 -190s-79 -189 -165 -189zM550 340c-24 0 -52 -13 -52 -159s28 -155 52 -155c23 0 51 9 51 155s-28 159 -51 159zM920 -8c-86 0 -165 69 -165 189s79 190 165 190s165 -70 165 -190s-79 -189 -165 -189zM920 340c-24 0 -52 -13 -52 -159s28 -155 52 -155
c23 0 51 9 51 155s-28 159 -51 159z" />
    <glyph glyph-name="numbersign" unicode="#" horiz-adv-x="465" 
d="M224 61l32 195h-92l-33 -195h-53l32 195h-73v55h82l27 160h-76v55h85l30 175h54l-30 -175h92l30 175h54l-30 -175h72v-55h-81l-27 -160h75v-55h-84l-33 -195h-53zM200 471l-27 -160h92l27 160h-92z" />
    <glyph glyph-name="onesuperior" unicode="&#xb9;" horiz-adv-x="255" 
d="M194 354c0 -29 -21 -52 -68 -52c-40 0 -62 23 -62 52v283c0 14 -5 26 -24 26c-13 0 -26 -9 -36 -15l-10 13c55 37 106 69 147 69c30 0 53 -11 53 -36v-340z" />
    <glyph glyph-name="twosuperior" unicode="&#xb2;" horiz-adv-x="328" 
d="M157 730c52 0 141 -23 141 -118c0 -89 -125 -173 -186 -225h143c25 0 34 10 37 29h16c0 -36 0 -109 -52 -109h-246v21c37 34 155 161 155 267c0 41 -18 83 -66 83c-39 0 -55 -18 -71 -39l-12 10c17 36 61 81 141 81z" />
    <glyph glyph-name="threesuperior" unicode="&#xb3;" horiz-adv-x="350" 
d="M165 730c63 0 125 -30 125 -91c0 -50 -36 -69 -64 -80v-1c44 -9 104 -42 104 -122c0 -60 -48 -134 -161 -134c-98 0 -140 51 -159 75l14 12c22 -27 46 -43 87 -43c37 0 85 24 85 97c0 54 -29 94 -111 96v16c40 0 74 26 74 72c0 29 -19 60 -53 60c-22 0 -38 -6 -55 -28
l-12 11c27 35 67 60 126 60z" />
    <glyph glyph-name="onequarter" unicode="&#xbc;" horiz-adv-x="637" 
d="M436 44v41h-138v31l138 238c10 16 21 36 63 36c41 0 56 -24 56 -47v-227h62v-31h-62v-41c0 -29 -15 -52 -62 -52c-40 0 -57 23 -57 52zM200 385c0 -29 -16 -52 -63 -52c-40 0 -57 23 -57 52v253c0 14 -5 26 -24 26c-13 0 -26 -9 -36 -15l-10 13c55 37 101 69 142 69
c30 0 48 -11 48 -36v-310zM88 11l401 720l33 -19l-401 -720zM337 116h99v171z" />
    <glyph glyph-name="onehalf" unicode="&#xbd;" horiz-adv-x="664" 
d="M493 390c52 0 131 -23 131 -118c0 -79 -111 -140 -172 -192h129c25 0 34 10 37 29h16c0 -36 0 -109 -52 -109h-236v21c37 34 155 130 155 236c0 41 -18 81 -66 81c-39 0 -55 -18 -71 -39l-12 10c17 36 61 81 141 81zM200 385c0 -29 -16 -52 -63 -52c-40 0 -57 23 -57 52
v253c0 14 -5 26 -24 26c-13 0 -26 -9 -36 -15l-10 13c55 37 101 69 142 69c30 0 48 -11 48 -36v-310zM88 11l401 720l33 -19l-401 -720z" />
    <glyph glyph-name="threequarters" unicode="&#xbe;" horiz-adv-x="710" 
d="M509 44v41h-138v31l138 238c10 16 21 36 63 36c41 0 56 -24 56 -47v-227h62v-31h-62v-41c0 -29 -15 -52 -62 -52c-40 0 -57 23 -57 52zM178 730c61 0 111 -23 111 -81c0 -45 -35 -64 -64 -72v-1c47 -3 99 -31 99 -107c0 -60 -38 -124 -151 -124c-98 0 -134 48 -153 72
l14 12c22 -27 42 -40 83 -40c38 0 83 22 83 80c0 59 -29 86 -106 88v16c40 0 74 18 74 64c0 29 -21 50 -50 50c-24 0 -41 -6 -58 -28l-12 11c27 35 71 60 130 60zM161 11l401 720l33 -19l-401 -720zM410 116h99v171z" />
    <glyph glyph-name="degree" unicode="&#xb0;" horiz-adv-x="289" 
d="M25 610c0 66 54 120 120 120s119 -54 119 -120s-53 -119 -119 -119s-120 53 -120 119zM83 611c0 -35 28 -62 62 -62c35 0 62 27 62 62c0 34 -27 62 -62 62c-34 0 -62 -28 -62 -62z" />
    <glyph glyph-name="ordfeminine" unicode="&#xaa;" horiz-adv-x="397" 
d="M212 456v83c0 12 -8 18 -19 18c-35 0 -63 -31 -63 -84c0 -52 17 -70 38 -70c27 0 44 27 44 53zM154 700c-34 0 -60 -17 -60 -29c0 -15 38 -9 38 -39c0 -20 -19 -36 -41 -36c-28 0 -47 20 -47 50c0 58 72 83 138 83c79 0 150 -31 150 -108v-197c0 -9 1 -22 15 -22
c10 0 16 8 22 14l11 -13c-15 -20 -42 -52 -94 -52c-32 0 -60 18 -67 55c-33 -41 -71 -55 -108 -55c-48 0 -96 27 -96 98c0 87 80 105 158 134c30 11 38 35 38 58c0 35 -23 59 -57 59z" />
    <glyph glyph-name="ordmasculine" unicode="&#xba;" horiz-adv-x="399" 
d="M23 540c0 127 83 190 177 190c93 0 176 -58 176 -185c0 -126 -83 -196 -176 -196c-94 0 -177 64 -177 191zM253 544c0 77 -7 147 -53 147s-54 -74 -54 -151s8 -152 54 -152s53 79 53 156z" />
    <glyph glyph-name="plus" unicode="+" horiz-adv-x="473" 
d="M60 253v85h134v134h85v-134h134v-85h-134v-134h-85v134h-134z" />
    <glyph glyph-name="minus" unicode="&#x2212;" horiz-adv-x="473" 
d="M60 253v85h353v-85h-353z" />
    <glyph glyph-name="equal" unicode="=" horiz-adv-x="473" 
d="M70 336v85h333v-85h-333zM70 170v85h333v-85h-333z" />
    <glyph glyph-name="notequal" unicode="&#x2260;" horiz-adv-x="473" 
d="M70 336v85h167l42 155l57 -15l-38 -140h105v-85h-127l-22 -81h149v-85h-171l-43 -161l-57 16l38 145h-100v85h123l21 81h-144z" />
    <glyph glyph-name="approxequal" unicode="&#x2248;" horiz-adv-x="473" 
d="M169 446c44 0 96 -44 123 -44c24 0 37 27 43 46l73 -25c-13 -85 -61 -107 -105 -107c-46 0 -103 43 -124 43c-27 0 -40 -29 -42 -47l-72 24c11 81 60 110 104 110zM169 275c44 0 96 -44 123 -44c24 0 37 27 43 46l73 -25c-13 -85 -61 -107 -105 -107
c-46 0 -103 43 -124 43c-27 0 -40 -29 -42 -47l-72 24c11 81 60 110 104 110z" />
    <glyph glyph-name="multiply" unicode="&#xd7;" horiz-adv-x="473" 
d="M127 127l-60 60l109 109l-109 109l60 60l109 -109l109 109l60 -60l-109 -109l109 -109l-60 -60l-109 109z" />
    <glyph glyph-name="divide" unicode="&#xf7;" horiz-adv-x="473" 
d="M180 437c0 33 25 58 56 58c32 0 58 -25 58 -58c0 -30 -26 -55 -58 -55c-31 0 -56 25 -56 55zM60 253v85h353v-85h-353zM180 151c0 33 25 58 56 58c32 0 58 -25 58 -58c0 -30 -26 -55 -58 -55c-31 0 -56 25 -56 55z" />
    <glyph glyph-name="logicalnot" unicode="&#xac;" horiz-adv-x="473" 
d="M60 296v85h353v-225h-85v140h-268z" />
    <glyph glyph-name="plusminus" unicode="&#xb1;" horiz-adv-x="473" 
d="M60 253v85h134v124h85v-124h134v-85h-134v-124h-85v124h-134zM60 13v85h353v-85h-353z" />
    <glyph glyph-name="less" unicode="&#x3c;" horiz-adv-x="473" 
d="M60 269v54l308 189l43 -72l-237 -143l237 -143l-43 -72z" />
    <glyph glyph-name="greater" unicode="&#x3e;" horiz-adv-x="473" 
d="M413 323v-54l-308 -187l-43 72l237 143l-237 143l43 72z" />
    <glyph glyph-name="lessequal" unicode="&#x2264;" horiz-adv-x="473" 
d="M60 13v85h353v-85h-353zM60 269v54l308 152l33 -75l-219 -103l219 -103l-33 -76z" />
    <glyph glyph-name="greaterequal" unicode="&#x2265;" horiz-adv-x="473" 
d="M413 98v-85h-353v85h353zM413 323v-54l-308 -151l-33 76l219 103l-219 103l33 75z" />
    <glyph glyph-name="fraction" unicode="&#x2044;" horiz-adv-x="144" 
d="M-145 11l401 720l33 -19l-401 -720z" />
    <glyph glyph-name="bar" unicode="|" horiz-adv-x="250" 
d="M166 -250h-82v1000h82v-1000z" />
    <glyph glyph-name="brokenbar" unicode="&#xa6;" horiz-adv-x="250" 
d="M166 371h-82v379h82v-379zM166 -250h-82v379h82v-379z" />
    <glyph glyph-name="at" unicode="@" horiz-adv-x="916" 
d="M507 228v107c0 14 -11 22 -26 22c-41 0 -78 -38 -78 -108c0 -67 23 -86 47 -86c31 0 57 33 57 65zM474 563c109 0 171 -37 171 -133v-253c0 -43 16 -49 35 -49c74 0 145 89 145 228c0 196 -120 322 -348 322c-185 0 -354 -136 -354 -366c0 -232 164 -367 351 -367
c52 0 115 7 144 24l16 -26c-43 -23 -108 -33 -171 -33c-230 0 -413 171 -413 402c0 242 185 418 424 418c237 0 392 -143 392 -374c0 -153 -72 -267 -216 -267c-72 0 -111 34 -124 87c-34 -50 -88 -77 -141 -77c-58 0 -114 34 -114 121c0 106 93 130 188 166
c34 14 48 39 48 65c0 45 -25 76 -70 76c-41 0 -71 -21 -71 -36c0 -18 45 -10 45 -48c0 -24 -22 -43 -48 -43c-33 0 -56 24 -56 61c0 71 89 102 167 102z" />
    <glyph glyph-name="bullet" unicode="&#x2022;" horiz-adv-x="300" 
d="M41 324c0 60 49 109 108 109c60 0 109 -49 109 -109c0 -59 -49 -108 -109 -108c-59 0 -108 49 -108 108z" />
    <glyph glyph-name="asciicircum" unicode="^" horiz-adv-x="500" 
d="M222 720h54l189 -226l-72 -63l-143 175l-143 -175l-72 63z" />
    <glyph glyph-name="asciitilde" unicode="~" horiz-adv-x="500" 
d="M380 384l76 -36c-18 -85 -75 -121 -132 -121c-59 0 -122 67 -149 67c-34 0 -51 -50 -53 -68l-75 35c14 81 73 124 129 124c59 0 113 -68 149 -68c32 0 47 48 55 67z" />
    <glyph glyph-name="slash" unicode="/" horiz-adv-x="365" 
d="M20 -20l269 780l56 -19l-269 -781z" />
    <glyph glyph-name="backslash" unicode="\" horiz-adv-x="365" 
d="M76 760l269 -780l-56 -20l-269 781z" />
    <glyph glyph-name="quotesingle" unicode="'" horiz-adv-x="208" 
d="M157 697l-18 -195c-2 -22 -23 -23 -35 -23s-33 1 -35 23l-18 195c-2 22 22 33 53 33s55 -11 53 -33z" />
    <glyph glyph-name="quotedbl" unicode="&#x22;" horiz-adv-x="363" 
d="M157 697l-18 -195c-2 -22 -23 -23 -35 -23s-33 1 -35 23l-18 195c-2 22 22 33 53 33s55 -11 53 -33zM312 697l-18 -195c-2 -22 -23 -23 -35 -23s-33 1 -35 23l-18 195c-2 22 22 33 53 33s55 -11 53 -33z" />
    <glyph glyph-name="ampersand" unicode="&#x26;" horiz-adv-x="714" 
d="M413 459v-23c-124 3 -207 -57 -207 -207c0 -88 28 -193 131 -193c82 0 120 90 120 163c0 56 -29 94 -73 94c-24 0 -46 -11 -46 -25c0 -19 48 -8 48 -53c0 -26 -19 -42 -46 -42c-34 0 -52 32 -52 64c0 160 339 55 339 198c0 40 -36 35 -36 35c-19 0 -27 -11 -43 -11
s-32 12 -32 40c0 52 43 73 77 73c66 0 101 -51 101 -97c0 -92 -50 -138 -138 -157c20 -23 32 -57 32 -104c0 -106 -95 -222 -280 -222c-156 0 -268 87 -268 237c0 159 142 223 212 233c-28 8 -112 40 -112 130c0 86 81 138 183 138c117 0 169 -41 169 -91
c0 -23 -14 -53 -47 -53c-58 0 -7 105 -85 105c-40 0 -76 -47 -76 -114c0 -61 45 -110 129 -118z" />
    <glyph glyph-name="parenleft" unicode="(" horiz-adv-x="398" 
d="M388 -158v-22c-171 47 -338 197 -338 470s167 423 338 470v-22c-46 -26 -188 -126 -188 -448s142 -422 188 -448z" />
    <glyph glyph-name="parenright" unicode=")" horiz-adv-x="398" 
d="M10 -180v22c46 26 188 126 188 448s-142 422 -188 448v22c171 -47 338 -197 338 -470s-167 -423 -338 -470z" />
    <glyph glyph-name="bracketleft" unicode="[" horiz-adv-x="360" 
d="M320 -142v-38h-177c-69 0 -73 38 -73 52v839c0 17 8 49 76 49h174v-38h-100v-864h100z" />
    <glyph glyph-name="bracketright" unicode="]" horiz-adv-x="370" 
d="M40 -180v38h100v864h-100v38h174c68 0 76 -32 76 -49v-839c0 -14 -4 -52 -73 -52h-177z" />
    <glyph glyph-name="braceleft" unicode="{" horiz-adv-x="390" 
d="M188 292v-3c50 -21 71 -49 71 -99c0 -69 -20 -139 -20 -253c0 -42 16 -66 45 -66c14 0 34 8 46 14l8 -18c-33 -17 -93 -47 -143 -47c-83 0 -106 66 -106 121c0 92 23 193 23 244c0 30 2 86 -82 94v23c84 8 82 64 82 94c0 51 -23 151 -23 243c0 55 23 121 106 121
c50 0 110 -30 143 -47l-8 -18c-12 6 -32 14 -46 14c-29 0 -45 -24 -45 -66c0 -114 20 -183 20 -252c0 -50 -21 -78 -71 -99z" />
    <glyph glyph-name="braceright" unicode="}" horiz-adv-x="390" 
d="M202 289v3c-50 21 -71 49 -71 99c0 69 20 138 20 252c0 42 -16 66 -45 66c-14 0 -34 -8 -46 -14l-8 18c33 17 93 47 143 47c83 0 106 -66 106 -121c0 -92 -23 -192 -23 -243c0 -30 -2 -86 82 -94v-23c-84 -8 -82 -64 -82 -94c0 -51 23 -152 23 -244
c0 -55 -23 -121 -106 -121c-50 0 -110 30 -143 47l8 18c12 -6 32 -14 46 -14c29 0 45 24 45 66c0 114 -20 184 -20 253c0 50 21 78 71 99z" />
    <glyph glyph-name="asterisk" unicode="*" horiz-adv-x="380" 
d="M230 706l-12 -101l92 54c11 7 27 -2 38 -27c12 -28 6 -41 -7 -47l-109 -31l78 -81c9 -10 5 -27 -18 -44c-24 -18 -39 -16 -46 -4l-56 96l-56 -96c-7 -12 -22 -14 -46 4c-23 17 -27 34 -18 44l77 81l-108 31c-13 6 -19 19 -7 47c11 25 27 34 38 27l92 -54l-12 101
c-1 13 12 24 41 24s40 -11 39 -24z" />
    <glyph glyph-name="dagger" unicode="&#x2020;" horiz-adv-x="537" 
d="M300 458l9 -481c0 -17 -18 -29 -40 -29s-41 10 -41 29l9 481l-135 -15c-20 -2 -32 14 -32 44c0 28 10 42 32 40l135 -11l-9 175c0 19 19 29 41 29s40 -12 40 -29l-9 -175l135 11c22 2 32 -12 32 -40c0 -30 -12 -46 -32 -44z" />
    <glyph glyph-name="daggerdbl" unicode="&#x2021;" horiz-adv-x="537" 
d="M300 458l9 -124l-9 -124l135 15c20 2 32 -14 32 -44c0 -28 -10 -42 -32 -40l-135 11l9 -175c1 -17 -18 -29 -40 -29s-42 10 -41 29l9 175l-135 -11c-22 -2 -32 12 -32 40c0 30 12 46 32 44l135 -15l-9 124l9 124l-135 -15c-20 -2 -32 14 -32 44c0 28 10 42 32 40l135 -11
l-9 175c-1 19 19 29 41 29s41 -12 40 -29l-9 -175l135 11c22 2 32 -12 32 -40c0 -30 -12 -46 -32 -44z" />
    <glyph glyph-name="section" unicode="&#xa7;" horiz-adv-x="450" 
d="M277 96c0 83 -217 155 -217 276c0 64 42 104 94 115c-37 33 -65 70 -65 115c0 76 58 118 122 118c46 0 92 -26 117 -59l-13 -12c-14 13 -42 33 -83 33c-30 0 -55 -22 -55 -52c0 -80 213 -136 213 -275c0 -60 -36 -100 -84 -114c34 -32 59 -69 59 -116
c0 -76 -53 -129 -134 -129c-66 0 -105 43 -133 76l13 13c26 -23 57 -50 103 -50c42 0 63 26 63 61zM302 321c0 50 -59 91 -115 137c-22 -5 -39 -23 -39 -51c0 -51 64 -89 123 -136c18 7 31 23 31 50z" />
    <glyph glyph-name="paragraph" unicode="&#xb6;" horiz-adv-x="537" 
d="M295 -98h-45v420c-102 8 -200 44 -200 191c0 143 120 188 224 188h183v-34h-62v-765h-45v765h-55v-765z" />
    <glyph glyph-name="copyright" unicode="&#xa9;" horiz-adv-x="882" 
d="M70 354c0 205 166 371 371 371s371 -166 371 -371s-166 -371 -371 -371s-371 166 -371 371zM120 354c0 -177 144 -321 321 -321s321 144 321 321s-144 321 -321 321s-321 -144 -321 -321zM489 558c-46 0 -108 -45 -108 -203c0 -152 72 -186 119 -186c49 0 87 24 114 50
l15 -14c-25 -41 -103 -89 -181 -89c-127 0 -229 80 -229 240c0 157 114 239 246 239c90 0 151 -35 151 -90c0 -24 -17 -59 -39 -59c-49 0 -24 112 -88 112z" />
    <glyph glyph-name="registered" unicode="&#xae;" horiz-adv-x="622" 
d="M50 464c0 144 117 261 261 261s261 -117 261 -261s-117 -261 -261 -261s-261 117 -261 261zM95 464c0 -119 97 -216 216 -216s216 97 216 216s-97 216 -216 216s-216 -97 -216 -216zM289 457h-5v-114c0 -21 -15 -30 -40 -30s-40 9 -40 30v238c0 8 -1 13 -8 13
c-9 0 -17 -4 -21 -6l-5 11c21 10 63 24 133 24c75 0 114 -28 114 -77c0 -43 -26 -65 -56 -77c8 -2 14 -7 20 -18l43 -97c5 -11 12 -20 23 -20c6 0 10 3 13 5l6 -10c-9 -6 -27 -16 -60 -16s-53 12 -62 32l-38 100c-6 14 -17 12 -17 12zM306 605c-19 0 -21 -12 -22 -20v-110
c48 0 59 21 59 71c0 33 -13 59 -37 59z" />
    <glyph glyph-name="trademark" unicode="&#x2122;" horiz-adv-x="776" 
d="M446 706l74 -132l64 112l-1 19c-2 17 19 25 44 25c38 0 48 -12 49 -24l26 -266c1 -9 4 -14 13 -14c10 0 19 3 26 6l5 -15c-18 -8 -43 -19 -85 -19c-48 0 -52 24 -53 36l-19 201l-85 -154h-24l-83 149l-4 -45c-6 -77 -4 -151 -4 -151c-1 -12 0 -36 -30 -36
c-14 0 -24 9 -24 17c0 16 12 38 23 169c4 44 5 83 6 102l-2 4c-4 8 -8 12 -18 12c-8 0 -15 -3 -22 -6l-6 15c18 7 48 19 79 19c27 0 41 -6 51 -24zM209 697h-7v-266c0 -23 -18 -33 -48 -33c-29 0 -47 10 -47 33v266h-7c-58 0 -62 -13 -76 -13c-7 0 -9 17 -9 24
c0 15 6 20 21 20c30 0 54 -2 118 -2c65 0 89 2 119 2c15 0 21 -5 21 -20c0 -7 -2 -24 -10 -24c-13 0 -17 13 -75 13z" />
    <glyph glyph-name="period" unicode="." horiz-adv-x="285" 
d="M60 74c0 46 36 83 82 83s83 -37 83 -83s-37 -82 -83 -82s-82 36 -82 82z" />
    <glyph glyph-name="comma" unicode="," horiz-adv-x="275" 
d="M70 -181l-15 17c40 35 53 79 53 115c0 41 -20 71 -40 93c-5 6 -7 13 -7 21c0 35 42 82 87 82c50 0 67 -75 67 -117c0 -89 -67 -164 -145 -211z" />
    <glyph glyph-name="colon" unicode=":" horiz-adv-x="315" 
d="M75 74c0 46 36 83 82 83s83 -37 83 -83s-37 -82 -83 -82s-82 36 -82 82zM75 404c0 46 36 83 82 83s83 -37 83 -83s-37 -82 -83 -82s-82 36 -82 82z" />
    <glyph glyph-name="semicolon" unicode=";" horiz-adv-x="315" 
d="M75 404c0 46 36 83 82 83s83 -37 83 -83s-37 -82 -83 -82s-82 36 -82 82zM88 -181l-15 17c40 35 53 79 53 115c0 41 -20 71 -40 93c-5 6 -7 13 -7 21c0 35 42 82 87 82c50 0 67 -75 67 -117c0 -89 -67 -164 -145 -211z" />
    <glyph glyph-name="exclam" unicode="!" horiz-adv-x="365" 
d="M100 74c0 46 36 83 82 83s83 -37 83 -83s-37 -82 -83 -82s-82 36 -82 82zM104 681c0 14 5 49 74 49s79 -32 78 -49c-15 -225 -56 -466 -56 -466h-36s-45 242 -60 466z" />
    <glyph glyph-name="exclamdown" unicode="&#xa1;" horiz-adv-x="365" 
d="M264 446c0 -46 -36 -83 -82 -83s-83 37 -83 83s37 82 83 82s82 -36 82 -82zM260 -162c0 -14 -5 -49 -74 -49s-79 32 -78 49c15 225 56 469 56 469h36s45 -245 60 -469z" />
    <glyph glyph-name="question" unicode="?" horiz-adv-x="546" 
d="M222 686c-65 0 -115 -53 -115 -106c0 -37 25 -41 31 -41c30 0 36 23 55 23c14 0 35 -11 35 -44c0 -40 -45 -65 -83 -65c-58 0 -95 40 -95 110c0 114 103 167 211 167c125 0 215 -71 215 -177c0 -174 -197 -197 -221 -329h-39c0 122 104 185 104 333c0 77 -30 129 -98 129
zM161 74c0 46 36 83 82 83s83 -37 83 -83s-37 -82 -83 -82s-82 36 -82 82z" />
    <glyph glyph-name="questiondown" unicode="&#xbf;" horiz-adv-x="546" 
d="M324 -164c65 0 115 53 115 106c0 37 -25 41 -31 41c-30 0 -36 -23 -55 -23c-14 0 -35 11 -35 44c0 40 45 65 83 65c58 0 95 -40 95 -110c0 -114 -103 -167 -211 -167c-125 0 -215 71 -215 177c0 174 197 197 221 329h39c0 -122 -104 -185 -104 -333
c0 -77 30 -129 98 -129zM385 448c0 -46 -36 -83 -82 -83s-83 37 -83 83s37 82 83 82s82 -36 82 -82z" />
    <glyph glyph-name="quoteleft" unicode="&#x2018;" horiz-adv-x="193" 
d="M158 730l15 -17c-40 -27 -53 -60 -53 -88c0 -30 20 -53 40 -70c5 -5 7 -10 7 -16c0 -27 -39 -62 -82 -62c-41 0 -55 47 -55 73c0 76 59 140 128 180z" />
    <glyph glyph-name="quoteright" unicode="&#x2019;" horiz-adv-x="193" 
d="M35 477l-15 17c40 27 53 60 53 88c0 30 -20 53 -40 70c-5 5 -7 10 -7 16c0 27 39 62 82 62c41 0 55 -47 55 -73c0 -76 -59 -140 -128 -180z" />
    <glyph glyph-name="quotedblleft" unicode="&#x201c;" horiz-adv-x="363" 
d="M158 729l15 -17c-40 -27 -53 -60 -53 -88c0 -30 20 -53 40 -70c5 -5 7 -10 7 -16c0 -27 -39 -62 -82 -62c-41 0 -55 47 -55 73c0 76 59 140 128 180zM328 730l15 -17c-40 -27 -53 -60 -53 -88c0 -30 20 -53 40 -70c5 -5 7 -10 7 -16c0 -27 -39 -62 -82 -62
c-41 0 -55 47 -55 73c0 76 59 140 128 180z" />
    <glyph glyph-name="quotedblright" unicode="&#x201d;" horiz-adv-x="363" 
d="M205 477l-15 17c40 27 53 60 53 88c0 30 -20 53 -40 70c-5 5 -7 10 -7 16c0 27 39 62 82 62c41 0 55 -47 55 -73c0 -76 -59 -140 -128 -180zM35 477l-15 17c40 27 53 60 53 88c0 30 -20 53 -40 70c-5 5 -7 10 -7 16c0 27 39 62 82 62c41 0 55 -47 55 -73
c0 -76 -59 -140 -128 -180z" />
    <glyph glyph-name="quotesinglbase" unicode="&#x201a;" horiz-adv-x="193" 
d="M35 -116l-15 17c40 27 53 60 53 88c0 30 -20 53 -40 70c-5 5 -7 10 -7 16c0 27 39 62 82 62c41 0 55 -47 55 -73c0 -76 -59 -140 -128 -180z" />
    <glyph glyph-name="quotedblbase" unicode="&#x201e;" horiz-adv-x="363" 
d="M205 -116l-15 17c40 27 53 60 53 88c0 30 -20 53 -40 70c-5 5 -7 10 -7 16c0 27 39 62 82 62c41 0 55 -47 55 -73c0 -76 -59 -140 -128 -180zM35 -116l-15 17c40 27 53 60 53 88c0 30 -20 53 -40 70c-5 5 -7 10 -7 16c0 27 39 62 82 62c41 0 55 -47 55 -73
c0 -76 -59 -140 -128 -180z" />
    <glyph glyph-name="guilsinglleft" unicode="&#x2039;" horiz-adv-x="257" 
d="M222 382l-96 -128l96 -128l-27 -29l-170 141v32l170 141z" />
    <glyph glyph-name="guilsinglright" unicode="&#x203a;" horiz-adv-x="257" 
d="M35 126l96 128l-96 128l27 29l170 -141v-32l-170 -141z" />
    <glyph glyph-name="guillemotleft" unicode="&#xab;" horiz-adv-x="437" 
d="M222 382l-96 -128l96 -128l-27 -29l-170 141v32l170 141zM402 382l-96 -128l96 -128l-27 -29l-170 141v32l170 141z" />
    <glyph glyph-name="guillemotright" unicode="&#xbb;" horiz-adv-x="437" 
d="M215 126l96 128l-96 128l27 29l170 -141v-32l-170 -141zM35 126l96 128l-96 128l27 29l170 -141v-32l-170 -141z" />
    <glyph glyph-name="periodcentered" unicode="&#xb7;" horiz-adv-x="285" 
d="M77 296c0 37 29 67 65 67c37 0 67 -30 67 -67c0 -36 -30 -65 -67 -65c-36 0 -65 29 -65 65z" />
    <glyph glyph-name="ellipsis" unicode="&#x2026;" horiz-adv-x="855" 
d="M60 74c0 46 36 83 82 83s83 -37 83 -83s-37 -82 -83 -82s-82 36 -82 82zM345 74c0 46 36 83 82 83s83 -37 83 -83s-37 -82 -83 -82s-82 36 -82 82zM630 74c0 46 36 83 82 83s83 -37 83 -83s-37 -82 -83 -82s-82 36 -82 82z" />
    <glyph glyph-name="hyphen" unicode="-" horiz-adv-x="350" 
d="M50 195v118h250v-118h-250z" />
    <glyph glyph-name="uni00AD" unicode="&#xad;" horiz-adv-x="350" 
d="M50 195v118h250v-118h-250z" />
    <glyph glyph-name="endash" unicode="&#x2013;" horiz-adv-x="500" 
d="M50 205v98h400v-98h-400z" />
    <glyph glyph-name="emdash" unicode="&#x2014;" horiz-adv-x="1000" 
d="M0 205v98h1000v-98h-1000z" />
    <glyph glyph-name="underscore" unicode="_" horiz-adv-x="402" 
d="M0 -190v99h402v-99h-402z" />
    <glyph glyph-name="grave" unicode="`" horiz-adv-x="400" 
d="M276 570l-10 -14l-173 74c-16 7 -29 20 -29 37c0 23 19 48 43 48c12 0 25 -7 36 -17z" />
    <glyph glyph-name="acute" unicode="&#xb4;" horiz-adv-x="400" 
d="M133 556l-10 14l133 128c11 10 24 17 36 17c24 0 43 -25 43 -48c0 -17 -13 -30 -29 -37z" />
    <glyph glyph-name="dieresis" unicode="&#xa8;" horiz-adv-x="400" 
d="M61 640c0 29 24 53 53 53s53 -24 53 -53s-24 -53 -53 -53s-53 24 -53 53zM233 640c0 29 24 53 53 53s53 -24 53 -53s-24 -53 -53 -53s-53 24 -53 53z" />
    <glyph glyph-name="macron" unicode="&#xaf;" horiz-adv-x="400" 
d="M70 606v69h260v-69h-260z" />
    <glyph glyph-name="cedilla" unicode="&#xb8;" horiz-adv-x="400" 
d="M207 5l-13 -52c82 0 122 -43 122 -86c0 -79 -72 -101 -127 -101c-54 0 -94 21 -114 36l9 16c26 -14 56 -20 83 -19c42 2 71 20 71 63c0 52 -43 67 -84 68l19 75h34z" />
    <glyph glyph-name="circumflex" unicode="&#x2c6;" horiz-adv-x="400" 
d="M172 715h56l110 -143l-15 -15l-123 84l-123 -84l-15 15z" />
    <glyph glyph-name="caron" unicode="&#x2c7;" horiz-adv-x="400" 
d="M228 557h-56l-110 143l15 15l123 -84l123 84l15 -15z" />
    <glyph glyph-name="breve" unicode="&#x2d8;" horiz-adv-x="400" 
d="M200 567c-68 0 -117 42 -129 135h25c7 -27 29 -67 104 -67s97 40 104 67h25c-12 -93 -61 -135 -129 -135z" />
    <glyph glyph-name="dotaccent" unicode="&#x2d9;" horiz-adv-x="400" 
d="M142 639c0 32 27 59 58 59c33 0 59 -27 59 -59s-26 -58 -59 -58c-31 0 -58 26 -58 58z" />
    <glyph glyph-name="ring" unicode="&#x2da;" horiz-adv-x="400" 
d="M91 656c0 60 49 109 109 109s109 -49 109 -109s-49 -109 -109 -109s-109 49 -109 109zM146 656c0 -30 24 -54 54 -54s54 24 54 54s-24 54 -54 54s-54 -24 -54 -54z" />
    <glyph glyph-name="ogonek" unicode="&#x2db;" horiz-adv-x="400" 
d="M184 0h58c-58 -25 -99 -75 -99 -120c0 -38 25 -59 67 -59c34 0 59 9 73 15l8 -18c-21 -13 -65 -34 -119 -34c-63 0 -104 27 -104 78c0 64 52 104 116 138z" />
    <glyph glyph-name="tilde" unicode="&#x2dc;" horiz-adv-x="400" 
d="M137 628c-28 0 -47 -27 -52 -55h-22c7 82 49 122 85 122c46 0 83 -48 115 -48c28 0 47 27 52 55h22c-7 -82 -49 -122 -85 -122c-46 0 -83 48 -115 48z" />
    <glyph glyph-name="hungarumlaut" unicode="&#x2dd;" horiz-adv-x="400" 
d="M98 557l-14 12l71 119c10 17 24 27 39 27c21 0 37 -15 37 -37c0 -13 -8 -26 -19 -35zM238 557l-14 12l71 119c10 17 24 27 39 27c21 0 37 -15 37 -37c0 -13 -8 -26 -19 -35z" />
    <glyph glyph-name="space" unicode=" " horiz-adv-x="225" 
 />
    <glyph glyph-name="nbspace" unicode="&#xa0;" horiz-adv-x="225" 
 />
    <glyph glyph-name="micro" unicode="&#xb5;" horiz-adv-x="550" 
d="M333 144v307c0 17 6 49 75 49s75 -38 75 -52v-363c0 -12 1 -30 20 -30c12 0 22 11 30 20l12 -10c-19 -29 -56 -73 -108 -73c-51 0 -81 30 -92 63c0 0 -19 -63 -74 -63c-34 0 -62 24 -78 56l19 -196c1 -17 -6 -52 -75 -52s-75 38 -75 52v599c0 17 6 49 75 49
s75 -38 75 -52v-305c0 -53 26 -73 57 -73c38 0 64 26 64 74z" />
    <glyph glyph-name="mu" unicode="&#x3bc;" horiz-adv-x="550" 
d="M333 144v307c0 17 6 49 75 49s75 -38 75 -52v-363c0 -12 1 -30 20 -30c12 0 22 11 30 20l12 -10c-19 -29 -56 -73 -108 -73c-51 0 -81 30 -92 63c0 0 -19 -63 -74 -63c-34 0 -62 24 -78 56l19 -196c1 -17 -6 -52 -75 -52s-75 38 -75 52v599c0 17 6 49 75 49
s75 -38 75 -52v-305c0 -53 26 -73 57 -73c38 0 64 26 64 74z" />
    <glyph glyph-name="partialdiff" unicode="&#x2202;" horiz-adv-x="533" 
d="M348 410c-16 16 -34 27 -58 27c-85 0 -108 -200 -108 -295c0 -58 13 -100 56 -100c92 0 112 248 112 337c0 12 -1 22 -2 31zM224 743c181 -57 274 -208 274 -400c0 -225 -123 -351 -267 -351c-108 0 -196 63 -196 200c0 205 140 295 250 295c35 0 53 -7 66 -15
c-3 98 -35 201 -137 253z" />
    <glyph glyph-name="commaaccent" unicode="&#x326;" horiz-adv-x="400" 
d="M148 -233l-8 15c37 16 44 30 44 45c0 25 -41 31 -41 66c0 21 18 47 57 47c40 0 60 -32 60 -61c0 -52 -46 -90 -112 -112z" />
    <glyph glyph-name="uni2215" unicode="&#x2215;" horiz-adv-x="144" 
d="M-145 11l401 720l33 -19l-401 -720z" />
    <glyph glyph-name="uni0312" unicode="&#x312;" horiz-adv-x="400" 
d="M252 730l8 -15c-37 -16 -44 -30 -44 -45c0 -25 41 -31 41 -66c0 -21 -18 -47 -57 -47c-40 0 -60 32 -60 61c0 52 46 90 112 112z" />
    <glyph glyph-name="uni0315" unicode="&#x315;" horiz-adv-x="120" 
d="M15 514l-15 20c34 23 43 48 43 70c0 25 -17 45 -34 59c-4 5 -6 9 -6 14c0 23 33 53 70 53c35 0 47 -40 47 -62c0 -65 -46 -120 -105 -154z" />
    <glyph glyph-name="R_y" horiz-adv-x="1250" 
d="M421 730c176 0 273 -66 273 -182c0 -115 -57 -158 -134 -184c106 -30 189 -402 310 -402c13 0 27 7 34 12l10 -19c-26 -14 -75 -39 -152 -39c-63 0 -115 37 -151 100c-74 130 -107 220 -179 339l4 20c77 -20 112 64 112 174c0 78 -35 141 -88 141c-42 0 -51 -28 -52 -47
v-579c0 -50 -26 -72 -80 -72s-80 22 -80 72v584c0 18 -13 27 -37 27c-72 0 -155 -45 -155 -105c0 -42 26 -46 33 -46c32 0 39 26 59 26c15 0 38 -13 38 -50c0 -52 -44 -76 -85 -76c-63 0 -101 46 -101 104c0 163 191 202 421 202zM1220 399c-16 -326 -219 -625 -444 -625
c-57 0 -90 21 -90 53c0 25 16 49 37 49c25 0 27 -59 72 -59c59 0 128 42 190 109c-56 197 -163 530 -221 530c-12 0 -17 -4 -26 -11l-10 12c26 22 54 50 127 50c40 0 74 -15 102 -63c41 -72 87 -204 132 -362c40 84 67 181 67 281c0 71 -22 98 -22 118s36 26 51 26
c35 0 35 -30 35 -77v-31z" />
    <glyph glyph-name="K_y" horiz-adv-x="1248" 
d="M408 662v-223c175 251 246 322 353 322c42 0 64 -14 64 -41c0 -14 -4 -43 -24 -43c-15 0 -37 35 -78 35c-44 0 -116 -78 -189 -171c194 -444 251 -578 356 -578c18 0 39 13 39 13l10 -19c-22 -13 -79 -40 -152 -40c-149 0 -192 59 -360 476l-19 -28v-301
c0 -50 -26 -72 -80 -72s-80 22 -80 72v588c0 28 -14 33 -33 33c-43 0 -159 -43 -159 -115c0 -42 26 -46 33 -46c32 0 39 26 59 26c15 0 38 -13 38 -50c0 -52 -44 -76 -85 -76c-63 0 -101 46 -101 104c0 135 155 202 299 202c107 0 109 -47 109 -68zM1218 399
c-16 -326 -219 -625 -444 -625c-57 0 -90 21 -90 53c0 25 16 49 37 49c25 0 27 -59 72 -59c59 0 128 42 190 109c-56 197 -163 530 -221 530c-12 0 -17 -4 -26 -11l-10 12c26 22 54 50 127 50c40 0 74 -15 102 -63c41 -72 87 -204 132 -362c40 84 67 181 67 281
c0 71 -22 98 -22 118s36 26 51 26c35 0 35 -30 35 -77v-31z" />
    <glyph glyph-name="k_y" horiz-adv-x="1011" 
d="M212 679v-305c46 61 102 133 185 133c74 0 97 -67 97 -98c0 -57 -25 -127 -117 -174c89 -189 167 -272 232 -272c12 0 25 10 25 10l9 -17c-35 -20 -68 -36 -153 -36s-164 57 -262 306c125 93 135 157 135 192c0 6 -1 27 -26 27c-48 0 -102 -93 -125 -150v-254
c0 -17 -8 -49 -77 -49s-73 38 -73 52v630c0 19 -8 35 -29 35c-11 0 -18 -4 -27 -11l-10 12c30 25 74 50 129 50c85 0 87 -52 87 -81zM981 399c-16 -326 -219 -625 -444 -625c-57 0 -90 21 -90 53c0 25 16 49 37 49c25 0 27 -59 72 -59c59 0 128 42 190 109
c-56 197 -163 530 -221 530c-12 0 -17 -4 -26 -11l-10 12c26 22 54 50 127 50c40 0 74 -15 102 -63c41 -72 87 -204 132 -362c40 84 67 181 67 281c0 71 -22 98 -22 118s36 26 51 26c35 0 35 -30 35 -77v-31z" />
    <glyph glyph-name="t_i" horiz-adv-x="587" 
d="M219 500h116c35 0 90 7 110 7c85 0 79 -59 79 -88v-378c0 -17 -8 -49 -77 -49s-73 38 -73 52v386c0 19 -8 35 -35 35h-120v-361c0 -34 14 -46 37 -46c35 0 56 48 56 48l15 -7c-20 -42 -47 -106 -149 -106c-57 0 -110 34 -110 110v362h-55v35c37 0 143 34 167 144h39v-144
zM359 618c0 37 35 68 80 68c44 0 79 -31 79 -68s-35 -67 -79 -67c-45 0 -80 30 -80 67z" />
    <glyph glyph-name="t_r" horiz-adv-x="704" 
d="M219 500h116c35 0 90 7 110 7c85 0 79 -59 79 -88v-15c11 18 70 103 126 103c33 0 53 -21 53 -57c0 -22 -3 -40 -13 -69h-14c-4 20 -18 35 -45 35c-38 0 -80 -33 -107 -56v-319c0 -17 -8 -49 -77 -49s-73 38 -73 52v386c0 19 -8 35 -35 35h-120v-361c0 -34 14 -46 37 -46
c35 0 56 48 56 48l15 -7c-20 -42 -47 -106 -149 -106c-57 0 -110 34 -110 110v362h-55v35c37 0 143 34 167 144h39v-144z" />
    <glyph glyph-name="t_t" horiz-adv-x="654" 
d="M612 465h-76v-361c0 -34 14 -46 37 -46c35 0 56 48 56 48l15 -7c-20 -42 -47 -106 -149 -106c-57 0 -110 34 -110 110v362h-166v-361c0 -34 14 -46 37 -46c35 0 56 48 56 48l15 -7c-20 -42 -47 -106 -149 -106c-57 0 -110 34 -110 110v362h-55v35c37 0 143 34 167 144h39
v-144h111c37 0 143 34 167 144h39v-144h80c26 0 39 4 39 13c0 13 -32 5 -32 35c0 18 13 29 31 29c23 0 35 -22 35 -43c0 -42 -23 -69 -77 -69z" />
    <glyph glyph-name="t_y" horiz-adv-x="765" 
d="M285 465h-66v-361c0 -34 14 -46 37 -46c35 0 56 48 56 48l15 -7c-20 -42 -47 -106 -149 -106c-57 0 -110 34 -110 110v362h-55v35c37 0 143 34 167 144h39v-144h63c55 0 74 7 110 7c40 0 74 -15 102 -63c40 -70 82 -190 126 -342c33 73 54 157 54 243s-28 114 -28 135
c0 19 36 27 50 27c19 0 26 -4 31 -19c6 -19 8 -52 8 -87c0 -333 -219 -627 -458 -627c-24 0 -50 14 -50 46c0 23 4 41 28 41c22 0 39 -29 71 -29c60 0 130 42 191 110c-56 199 -151 523 -232 523z" />
    </font>
</defs>
</svg>
