<svg data-v-423bf9ae="" xmlns="http://www.w3.org/2000/svg" viewBox="0 0 400.98592732638946 60" class="font"><!----><!----><!----><g data-v-423bf9ae="" id="f4f298f1-b2da-48bc-bed2-fac5b9949892" fill="black" transform="matrix(4.225352169431124,0,0,4.225352169431124,-1.3098661478515794,-11.408450343688791)"><path d="M6.37 10.33L6.37 10.33Q6.54 9.81 6.65 9.29L6.65 9.29L6.65 9.29Q6.76 8.76 6.84 8.31L6.84 8.31L6.84 8.31Q6.92 7.85 6.94 7.71L6.94 7.71L6.94 7.71Q7.01 7.35 7.20 6.69L7.20 6.69L7.46 5.64L7.59 5.18L7.59 5.18Q7.70 4.75 7.76 4.49L7.76 4.49L7.76 4.49Q7.81 4.24 7.81 3.96L7.81 3.96L7.81 3.96Q7.81 3.54 8.18 3.19L8.18 3.19L8.18 3.19Q8.54 2.83 8.97 2.83L8.97 2.83L10.70 2.83L10.70 2.83Q10.82 2.83 10.88 2.89L10.88 2.89L10.88 2.89Q10.95 2.95 11.05 3.09L11.05 3.09L11.05 3.09Q11.19 3.30 11.28 3.40L11.28 3.40L11.28 3.40Q11.09 3.60 10.93 3.70L10.93 3.70L10.93 3.70Q10.77 3.81 10.56 3.81L10.56 3.81L10.56 3.81Q10.35 3.81 10.12 3.70L10.12 3.70L10.12 3.70Q10.00 4.06 10.00 4.48L10.00 4.48L10.00 4.48Q10.00 4.70 10.05 5.18L10.05 5.18L10.05 5.18Q10.12 5.60 10.12 5.99L10.12 5.99L10.12 7.15L10.12 8.60L10.12 10.91L10.11 11.73L10.11 11.73Q10.09 11.93 10.09 12.31L10.09 12.31L10.09 12.31Q10.09 12.71 10.12 12.92L10.12 12.92L10.12 12.92Q10.18 13.44 10.18 14.01L10.18 14.01L10.18 14.01Q10.18 14.38 10.15 14.97L10.15 14.97L10.15 14.97Q10.12 15.55 10.12 15.81L10.12 15.81L10.12 15.81Q10.58 15.81 10.95 16.04L10.95 16.04L10.95 16.04Q11.31 16.28 11.31 16.53L11.31 16.53L11.31 16.53Q11.31 16.73 11.10 16.83L11.10 16.83L11.10 16.83Q10.92 16.83 10.79 16.79L10.79 16.79L10.79 16.79Q10.77 16.79 10.68 16.77L10.68 16.77L10.68 16.77Q10.60 16.74 10.49 16.74L10.49 16.74L10.49 16.74Q10.43 16.74 10.18 16.79L10.18 16.79L10.18 16.79Q10.01 16.84 9.86 16.84L9.86 16.84L9.35 16.74L9.35 16.74Q9.44 16.70 9.27 16.73L9.27 16.73L9.27 16.73Q9.10 16.76 8.88 16.79L8.88 16.79L8.88 16.79Q8.65 16.83 8.39 16.83L8.39 16.83L8.39 16.83Q8.39 16.73 8.35 16.69L8.35 16.69L8.35 16.69Q8.32 16.65 8.21 16.59L8.21 16.59L8.21 16.59Q8.11 16.53 8.11 16.39L8.11 16.39L8.11 16.39Q8.11 16.28 8.20 16.22L8.20 16.22L8.20 16.22Q8.29 16.16 8.50 16.07L8.50 16.07L8.50 16.07Q8.86 15.92 8.97 15.81L8.97 15.81L8.97 15.81Q8.78 14.49 8.78 12.61L8.78 12.61L8.78 12.61Q8.78 12.03 8.81 10.71L8.81 10.71L8.81 10.71Q8.83 9.76 8.83 9.27L8.83 9.27L8.83 9.27Q8.83 9.10 8.89 8.48L8.89 8.48L8.89 8.48Q8.97 7.78 8.97 7.45L8.97 7.45L8.97 6.29L8.97 6.29Q8.97 6.13 8.97 6.06L8.97 6.06L8.97 6.06Q8.96 5.98 8.86 5.74L8.86 5.74L8.88 5.47L8.88 5.47Q8.88 5.32 8.68 5.12L8.68 5.12L8.68 5.12Q8.68 5.14 8.69 5.20L8.69 5.20L8.69 5.20Q8.71 5.26 8.71 5.36L8.71 5.36L8.71 5.36Q8.71 5.57 8.64 5.71L8.64 5.71L8.64 5.71Q8.50 6.06 8.35 6.63L8.35 6.63L8.35 6.63Q8.20 7.20 8.08 7.78L8.08 7.78L8.08 7.78Q7.91 8.51 7.81 8.88L7.81 8.88L7.81 8.88Q7.78 8.97 7.69 9.28L7.69 9.28L7.69 9.28Q7.60 9.58 7.56 9.76L7.56 9.76L7.36 10.81L7.36 10.81Q7.13 12.00 7.06 12.32L7.06 12.32L7.06 12.32Q7.01 12.50 6.96 13.01L6.96 13.01L6.96 13.01Q6.90 13.54 6.84 13.81L6.84 13.81L6.84 13.81Q6.78 14.08 6.65 14.08L6.65 14.08L6.65 14.08Q6.47 14.08 6.22 13.93L6.22 13.93L6.22 13.93Q5.94 13.79 5.81 13.79L5.81 13.79L5.81 13.79Q5.81 13.48 5.76 13.24L5.76 13.24L5.76 13.24Q5.71 12.99 5.60 12.64L5.60 12.64L5.52 12.35L5.28 11.48L5.28 11.48Q5.21 11.24 5.07 10.73L5.07 10.73L5.07 10.73Q4.93 10.22 4.80 9.81L4.80 9.81L4.80 9.81Q4.48 8.78 4.21 8.08L4.21 8.08L4.21 8.08Q4.17 7.97 4.12 7.78L4.12 7.78L4.12 7.78Q4.06 7.59 3.98 7.43L3.98 7.43L3.98 7.43Q3.89 7.28 3.77 7.15L3.77 7.15L3.77 9.17L3.77 9.17Q3.77 9.52 3.64 10.30L3.64 10.30L3.64 10.30Q3.49 11.35 3.49 11.76L3.49 11.76L3.49 13.22L3.49 15.81L3.49 15.81Q3.77 15.81 3.91 15.86L3.91 15.86L3.91 15.86Q4.06 15.90 4.06 16.10L4.06 16.10L4.06 16.10Q4.06 16.45 3.67 16.58L3.67 16.58L3.67 16.58Q3.28 16.72 2.65 16.72L2.65 16.72L2.65 16.72Q2.34 16.72 1.86 16.69L1.86 16.69L1.47 16.67L1.47 16.67Q1.34 16.67 1.28 16.61L1.28 16.61L1.28 16.61Q1.22 16.55 1.12 16.41L1.12 16.41L1.12 16.41Q0.98 16.20 0.88 16.10L0.88 16.10L0.88 16.10Q0.98 16.00 1.06 15.89L1.06 15.89L1.06 15.89Q1.13 15.78 1.20 15.73L1.20 15.73L1.20 15.73Q1.27 15.68 1.37 15.68L1.37 15.68L1.37 15.68Q1.51 15.68 1.76 15.81L1.76 15.81L1.76 12.92L1.76 9.17L1.76 8.60L1.76 5.71L1.76 3.70L1.76 3.70Q1.61 3.70 1.49 3.75L1.49 3.75L1.49 3.75Q1.37 3.79 1.25 3.79L1.25 3.79L1.25 3.79Q1.16 3.79 1.07 3.77L1.07 3.77L1.07 3.77Q0.98 3.75 0.94 3.75L0.94 3.75L0.94 3.75Q0.74 3.70 0.60 3.70L0.60 3.70L0.60 3.70Q0.38 3.47 0.34 3.37L0.34 3.37L0.34 3.37Q0.31 3.26 0.31 2.83L0.31 2.83L0.31 2.83Q0.69 2.70 1.19 2.70L1.19 2.70L1.19 2.70Q2.21 2.70 3.49 3.11L3.49 3.11L3.49 3.11Q3.71 3.58 3.89 3.92L3.89 3.92L3.89 3.92Q4.06 4.26 4.17 4.48L4.17 4.48L4.17 4.48Q4.21 4.54 4.35 4.83L4.35 4.83L4.35 5.12L4.35 5.12Q4.66 5.74 4.92 6.46L4.92 6.46L4.92 6.46Q5.18 7.18 5.49 8.18L5.49 8.18L5.74 8.96L5.74 8.96Q5.85 9.30 5.96 9.53L5.96 9.53L5.96 9.53Q6.06 9.76 6.19 9.98L6.19 9.98L6.37 10.33ZM17.36 15.65L17.36 15.65Q17.36 13.79 17.31 12.54L17.31 12.54L17.31 12.54Q17.26 11.30 17.05 10.32L17.05 10.32L17.05 10.32Q16.77 10.32 16.14 10.19L16.14 10.19L16.14 10.19Q15.25 10.02 14.73 10.02L14.73 10.02L14.73 10.02Q14.52 10.22 14.47 10.57L14.47 10.57L14.47 10.57Q14.42 10.92 14.42 11.54L14.42 11.54L14.42 11.54Q14.21 12.32 14.15 13.24L14.15 13.24L14.15 13.24Q14.10 14.17 14.10 15.67L14.10 15.67L14.10 15.67Q14.22 15.76 14.34 15.79L14.34 15.79L14.34 15.79Q14.42 15.81 14.57 15.81L14.57 15.81L14.57 15.81Q14.71 15.81 14.81 15.83L14.81 15.83L14.81 15.83Q14.91 15.85 14.99 15.93L14.99 15.93L14.99 15.93Q14.99 16.16 14.98 16.32L14.98 16.32L14.98 16.32Q14.97 16.48 14.95 16.52L14.95 16.52L14.95 16.52Q14.59 16.77 14.21 16.79L14.21 16.79L14.21 16.79Q14.14 16.80 13.99 16.80L13.99 16.80L13.99 16.80Q13.72 16.80 13.47 16.76L13.47 16.76L13.47 16.76Q13.13 16.73 12.96 16.73L12.96 16.73L12.96 16.73Q12.64 16.73 12.36 16.83L12.36 16.83L11.75 16.24L11.75 16.24Q12.26 15.67 12.63 15.67L12.63 15.67L12.63 15.67Q12.84 15.67 12.89 15.52L12.89 15.52L12.89 15.52Q12.94 15.37 12.94 15.06L12.94 15.06L12.94 15.06Q13.10 13.96 13.43 11.42L13.43 11.42L13.43 11.42Q13.69 9.30 13.80 8.55L13.80 8.55L13.80 8.55Q13.80 7.94 13.98 7.32L13.98 7.32L13.98 7.32Q14.15 6.71 14.42 6.20L14.42 6.20L14.42 6.20Q14.63 5.39 14.98 4.72L14.98 4.72L14.98 4.72Q15.33 4.05 15.88 3.25L15.88 3.25L15.88 3.25Q15.90 3.22 16.02 3.12L16.02 3.12L16.02 3.12Q16.14 3.02 16.32 2.93L16.32 2.93L16.32 2.93Q16.51 2.84 16.70 2.84L16.70 2.84L16.70 2.84Q16.90 2.84 17.05 2.94L17.05 2.94L17.05 2.94Q17.35 3.08 17.63 3.46L17.63 3.46L17.63 3.46Q17.92 3.84 18.10 4.27L18.10 4.27L18.10 4.27Q18.28 4.70 18.28 5.01L18.28 5.01L18.28 5.01Q18.62 5.70 18.73 6.59L18.73 6.59L18.73 6.59Q18.84 7.57 19.12 10.78L19.12 10.78L19.12 10.78Q19.26 12.56 19.42 14.17L19.42 14.17L19.42 15.96L19.42 15.96Q19.42 16.03 19.47 16.12L19.47 16.12L19.47 16.12Q19.53 16.21 19.54 16.24L19.54 16.24L19.54 16.24Q19.70 16.42 19.70 16.55L19.70 16.55L19.70 16.55Q19.70 16.72 19.42 16.84L19.42 16.84L19.05 16.76L19.05 16.76Q18.63 16.76 18.21 16.80L18.21 16.80L18.21 16.80Q18.07 16.81 17.82 16.83L17.82 16.83L17.82 16.83Q17.57 16.84 17.36 16.84L17.36 16.84L17.36 16.84Q17.28 16.86 17.11 16.88L17.11 16.88L17.11 16.88Q16.94 16.90 16.84 16.90L16.84 16.90L16.84 16.90Q16.58 16.90 16.58 16.73L16.58 16.73L16.58 16.73Q16.58 16.58 16.71 16.32L16.71 16.32L16.71 16.32Q16.84 16.06 17.03 15.86L17.03 15.86L17.03 15.86Q17.22 15.65 17.36 15.65L17.36 15.65ZM15.88 4.70L15.88 4.70Q15.65 5.36 15.42 6.13L15.42 6.13L15.42 6.13Q15.19 6.90 14.99 7.67L14.99 7.67L14.99 7.67Q14.99 7.84 14.87 8.34L14.87 8.34L14.87 8.34Q14.73 8.96 14.73 9.17L14.73 9.17L14.73 9.17Q15.30 9.34 15.86 9.39L15.86 9.39L15.86 9.39Q16.41 9.44 17.05 9.44L17.05 9.44L17.05 7.67L17.05 7.67Q17.05 7.04 16.89 6.21L16.89 6.21L16.89 6.21Q16.73 5.38 16.49 4.70L16.49 4.70L16.49 4.70Q16.49 4.63 16.44 4.52L16.44 4.52L16.44 4.52Q16.38 4.41 16.18 4.41L16.18 4.41L15.88 4.70ZM26.52 5.78L26.52 5.78Q26.29 5.66 26.21 5.38L26.21 5.38L26.21 5.38Q26.14 5.10 26.11 4.63L26.11 4.63L26.11 4.63Q26.05 4.02 25.96 3.79L25.96 3.79L25.96 3.79Q24.95 3.79 24.21 3.94L24.21 3.94L24.21 3.94Q23.48 4.09 23.10 4.63L23.10 4.63L23.10 4.63Q23.06 4.73 22.83 5.17L22.83 5.17L22.83 5.17Q22.61 5.61 22.48 6.08L22.48 6.08L22.48 6.08Q22.34 6.54 22.34 6.96L22.34 6.96L22.34 6.96Q22.34 7.67 22.29 9.07L22.29 9.07L22.29 9.07Q22.27 9.42 22.26 9.95L22.26 9.95L22.26 9.95Q22.25 10.47 22.25 11.17L22.25 11.17L22.25 11.17Q22.25 11.69 22.18 12.32L22.18 12.32L22.18 12.32Q22.12 13.08 22.12 13.45L22.12 13.45L22.12 13.45Q22.12 14.10 22.25 14.59L22.25 14.59L22.25 14.59Q22.36 15.02 22.63 15.27L22.63 15.27L22.63 15.27Q22.90 15.51 23.25 15.63L23.25 15.63L23.25 15.63Q23.59 15.75 24.19 15.88L24.19 15.88L24.19 15.88Q24.65 15.97 24.81 16.02L24.81 16.02L24.81 16.02Q25.45 15.92 25.75 15.49L25.75 15.49L25.75 15.49Q26.04 15.06 26.11 14.49L26.11 14.49L26.11 14.49Q26.18 13.92 26.18 12.96L26.18 12.96L26.18 12.96Q26.18 12.33 26.22 11.75L26.22 11.75L26.22 11.75Q26.11 11.62 25.96 11.62L25.96 11.62L25.96 11.62Q25.86 11.62 25.77 11.67L25.77 11.67L25.77 11.67Q25.68 11.72 25.66 11.75L25.66 11.75L25.66 11.75Q25.54 12.00 25.51 12.50L25.51 12.50L25.51 12.50Q25.47 12.91 25.40 13.13L25.40 13.13L25.40 13.13Q25.33 13.34 25.09 13.45L25.09 13.45L25.09 13.45Q24.98 13.45 24.91 13.40L24.91 13.40L24.91 13.40Q24.85 13.34 24.75 13.20L24.75 13.20L24.75 13.20Q24.64 13.01 24.53 12.89L24.53 12.89L24.53 12.89Q24.53 12.25 24.58 11.76L24.58 11.76L24.58 11.76Q24.63 11.27 24.81 10.91L24.81 10.91L24.81 10.91Q24.96 10.91 25.16 10.89L25.16 10.89L25.16 10.89Q25.37 10.86 25.47 10.86L25.47 10.86L25.47 10.86Q25.77 10.82 26.08 10.82L26.08 10.82L26.08 10.82Q26.74 10.82 27.09 11.17L27.09 11.17L27.09 11.17Q27.22 11.30 27.22 11.47L27.22 11.47L27.22 11.47Q27.22 11.55 27.16 11.75L27.16 11.75L27.16 11.75Q27.09 11.91 27.09 12.04L27.09 12.04L27.09 12.04Q27.09 12.57 27.13 13.10L27.13 13.10L27.13 13.10Q27.16 13.78 27.16 14.07L27.16 14.07L27.16 14.07Q27.16 15.20 26.80 15.72L26.80 15.72L26.80 15.72Q26.80 15.85 26.68 15.97L26.68 15.97L26.68 15.97Q26.56 16.10 26.32 16.28L26.32 16.28L26.32 16.28Q26.14 16.41 25.96 16.59L25.96 16.59L25.96 16.59Q25.48 16.81 24.70 16.81L24.70 16.81L24.70 16.81Q23.94 16.81 23.39 16.59L23.39 16.59L23.39 16.59Q22.71 16.31 22.32 16.05L22.32 16.05L22.32 16.05Q21.94 15.79 21.64 15.44L21.64 15.44L21.64 15.44Q21.35 15.08 20.83 14.31L20.83 14.31L20.83 14.31Q20.26 12.64 20.26 11.17L20.26 11.17L20.26 9.48L20.26 9.48Q20.26 9.07 20.31 8.67L20.31 8.67L20.31 8.67Q20.37 8.26 20.50 7.53L20.50 7.53L20.50 7.53Q20.51 7.48 20.58 7.10L20.58 7.10L20.58 7.10Q20.65 6.72 20.79 6.38L20.79 6.38L20.79 6.38Q20.89 6.16 21.04 5.64L21.04 5.64L21.04 5.64Q21.17 5.19 21.29 4.90L21.29 4.90L21.29 4.90Q21.42 4.61 21.67 4.35L21.67 4.35L21.67 4.35Q21.83 4.20 21.97 3.92L21.97 3.92L21.97 3.92Q22.11 3.64 22.25 3.50L22.25 3.50L22.25 3.50Q22.37 3.50 22.51 3.44L22.51 3.44L22.51 3.44Q22.64 3.37 22.71 3.31L22.71 3.31L22.71 3.31Q22.79 3.25 22.82 3.22L22.82 3.22L22.82 3.22Q23.20 3.02 23.58 2.97L23.58 2.97L23.58 2.97Q23.95 2.93 24.53 2.93L24.53 2.93L24.53 2.93Q24.60 2.93 24.67 2.91L24.67 2.91L24.67 2.91Q24.74 2.90 24.82 2.88L24.82 2.88L24.82 2.88Q25.16 2.80 25.40 2.80L25.40 2.80L25.40 2.80Q25.70 2.80 25.96 2.93L25.96 2.93L25.96 2.93Q26.18 2.93 26.49 3.12L26.49 3.12L26.49 3.12Q26.80 3.30 26.80 3.50L26.80 3.50L26.80 3.50Q26.92 3.88 26.92 4.30L26.92 4.30L26.92 4.30Q26.92 4.76 26.80 5.19L26.80 5.19L26.80 5.19Q26.67 5.61 26.52 5.78L26.52 5.78ZM30.58 3.85L30.58 3.85Q30.45 4.19 30.45 4.66L30.45 4.66L30.45 4.66Q30.45 5.04 30.52 5.50L30.52 5.50L30.52 5.50Q30.53 5.60 30.56 5.90L30.56 5.90L30.56 5.90Q30.59 6.20 30.58 6.44L30.58 6.44L30.58 6.44Q30.55 7.29 30.46 9.17L30.46 9.17L30.46 9.17Q30.39 10.77 30.34 12.49L30.34 12.49L30.34 12.49Q30.28 14.21 30.28 15.65L30.28 15.65L30.28 15.65Q30.42 15.79 30.73 15.95L30.73 15.95L30.73 15.95Q31.01 16.09 31.14 16.21L31.14 16.21L31.14 16.21Q31.14 16.34 31.08 16.40L31.08 16.40L31.08 16.40Q31.02 16.46 30.88 16.56L30.88 16.56L30.88 16.56Q30.72 16.66 30.58 16.80L30.58 16.80L30.58 16.80Q30.42 16.73 30.04 16.67L30.04 16.67L30.04 16.67Q29.85 16.66 29.39 16.66L29.39 16.66L29.39 16.66Q28.91 16.66 28.59 16.63L28.59 16.63L28.59 16.63Q28.28 16.60 27.99 16.51L27.99 16.51L27.99 16.51Q27.96 16.49 27.91 16.41L27.91 16.41L27.91 16.41Q27.86 16.32 27.86 16.21L27.86 16.21L27.86 16.21Q27.86 16.06 27.99 15.95L27.99 15.95L27.99 15.95Q27.99 15.85 28.03 15.83L28.03 15.83L28.03 15.83Q28.07 15.81 28.17 15.81L28.17 15.81L28.17 15.81Q28.29 15.81 28.35 15.79L28.35 15.79L28.35 15.79Q28.49 15.74 28.55 15.65L28.55 15.65L28.55 15.65Q28.67 15.53 28.67 15.29L28.67 15.29L28.67 15.29Q28.67 15.18 28.64 15.03L28.64 15.03L28.64 15.03Q28.62 14.88 28.60 14.83L28.60 14.83L28.60 14.83Q28.55 14.57 28.55 14.50L28.55 14.50L28.55 14.50Q28.55 14.07 28.57 13.23L28.57 13.23L28.59 12.00L28.59 12.00Q28.57 11.93 28.56 11.74L28.56 11.74L28.56 11.74Q28.55 11.55 28.55 11.33L28.55 11.33L28.55 8.74L28.55 3.85L28.55 3.85Q28.28 3.85 28.13 3.80L28.13 3.80L28.13 3.80Q27.99 3.75 27.99 3.56L27.99 3.56L27.99 2.98L27.99 2.98Q27.99 2.86 28.08 2.86L28.08 2.86L28.08 2.86Q28.13 2.86 28.36 2.92L28.36 2.92L28.36 2.92Q28.60 2.98 28.84 2.98L28.84 2.98L28.84 2.98Q28.99 2.98 29.50 2.93L29.50 2.93L29.50 2.93Q29.61 2.91 29.90 2.88L29.90 2.88L29.90 2.88Q30.20 2.86 30.42 2.86L30.42 2.86L30.42 2.86Q30.90 2.86 31.14 2.98L31.14 2.98L31.14 2.98Q31.25 3.09 31.25 3.26L31.25 3.26L31.25 3.26Q31.25 3.49 31.06 3.67L31.06 3.67L31.06 3.67Q30.87 3.85 30.58 3.85L30.58 3.85ZM39.03 3.67L39.03 3.67Q39.03 3.77 39.08 3.83L39.08 3.83L39.08 3.83Q39.13 3.89 39.19 3.95L39.19 3.95L39.19 3.95Q39.34 4.07 39.34 4.23L39.34 4.23L39.34 4.23Q39.34 4.89 39.28 5.29L39.28 5.29L39.28 5.29Q39.23 5.68 39.03 5.68L39.03 5.68L39.03 5.68Q38.79 5.68 38.72 5.49L38.72 5.49L38.72 5.49Q38.65 5.29 38.61 4.87L38.61 4.87L38.61 4.87Q38.58 4.35 38.46 4.23L38.46 4.23L38.46 4.23Q37.81 4.02 37.18 4.02L37.18 4.02L37.18 4.02Q36.57 4.02 36.13 4.23L36.13 4.23L36.13 4.23Q35.95 4.41 35.69 4.97L35.69 4.97L35.69 4.97Q35.43 5.50 35.25 5.68L35.25 5.68L35.25 5.68Q35.25 5.75 35.20 5.92L35.20 5.92L35.20 5.92Q35.14 6.09 34.97 6.27L34.97 6.27L34.97 6.27Q34.76 7.07 34.71 7.76L34.71 7.76L34.71 7.76Q34.66 8.46 34.66 9.77L34.66 9.77L34.66 11.51L34.66 11.51Q35.31 15.16 36.71 15.89L36.71 15.89L36.71 15.89Q36.93 16.00 37.21 16.00L37.21 16.00L37.21 16.00Q37.49 16.00 37.79 15.90L37.79 15.90L37.79 15.90Q38.08 15.79 38.46 15.58L38.46 15.58L38.46 15.58Q38.57 15.37 38.58 15.11L38.58 15.11L38.58 15.11Q38.60 14.94 38.60 14.56L38.60 14.56L38.60 14.56Q38.60 14.20 38.62 13.96L38.62 13.96L38.62 13.96Q38.64 13.73 38.74 13.54L38.74 13.54L38.74 13.54Q38.98 13.54 39.10 13.59L39.10 13.59L39.10 13.59Q39.23 13.64 39.35 13.73L39.35 13.73L39.35 13.73Q39.37 13.75 39.45 13.80L39.45 13.80L39.45 13.80Q39.52 13.85 39.62 13.85L39.62 13.85L39.62 15.89L39.62 15.89Q39.23 16.83 37.63 16.83L37.63 16.83L37.63 16.83Q37.03 16.83 36.42 16.73L36.42 16.73L36.42 16.73Q35.81 16.63 34.97 16.45L34.97 16.45L34.97 16.45Q34.62 16.13 34.44 15.99L34.44 15.99L34.44 15.99Q34.03 15.67 33.76 15.39L33.76 15.39L33.76 15.39Q33.49 15.12 33.22 14.70L33.22 14.70L33.22 14.70Q33.08 14.04 32.93 13.47L32.93 13.47L32.93 13.47Q32.63 12.28 32.49 11.45L32.49 11.45L32.49 11.45Q32.34 10.61 32.34 9.77L32.34 9.77L32.34 9.77Q32.42 9.32 32.56 8.43L32.56 8.43L32.56 8.43Q32.73 7.39 32.87 6.71L32.87 6.71L32.87 6.71Q33.01 6.03 33.22 5.40L33.22 5.40L33.22 5.40Q33.33 5.28 33.47 5.00L33.47 5.00L33.47 5.00Q33.57 4.70 33.78 4.52L33.78 4.52L33.78 4.52Q34.29 3.81 35.13 3.30L35.13 3.30L35.13 3.30Q35.98 2.79 36.99 2.79L36.99 2.79L36.99 2.79Q37.35 2.90 37.60 2.95L37.60 2.95L37.60 2.95Q38.15 3.11 38.44 3.24L38.44 3.24L38.44 3.24Q38.74 3.37 39.03 3.67L39.03 3.67ZM45.57 15.65L45.57 15.65Q45.57 13.79 45.52 12.54L45.52 12.54L45.52 12.54Q45.47 11.30 45.26 10.32L45.26 10.32L45.26 10.32Q44.98 10.32 44.35 10.19L44.35 10.19L44.35 10.19Q43.46 10.02 42.94 10.02L42.94 10.02L42.94 10.02Q42.73 10.22 42.68 10.57L42.68 10.57L42.68 10.57Q42.63 10.92 42.63 11.54L42.63 11.54L42.63 11.54Q42.42 12.32 42.36 13.24L42.36 13.24L42.36 13.24Q42.31 14.17 42.31 15.67L42.31 15.67L42.31 15.67Q42.43 15.76 42.55 15.79L42.55 15.79L42.55 15.79Q42.63 15.81 42.78 15.81L42.78 15.81L42.78 15.81Q42.92 15.81 43.02 15.83L43.02 15.83L43.02 15.83Q43.12 15.85 43.20 15.93L43.20 15.93L43.20 15.93Q43.20 16.16 43.19 16.32L43.19 16.32L43.19 16.32Q43.18 16.48 43.16 16.52L43.16 16.52L43.16 16.52Q42.80 16.77 42.42 16.79L42.42 16.79L42.42 16.79Q42.35 16.80 42.20 16.80L42.20 16.80L42.20 16.80Q41.93 16.80 41.68 16.76L41.68 16.76L41.68 16.76Q41.34 16.73 41.17 16.73L41.17 16.73L41.17 16.73Q40.85 16.73 40.57 16.83L40.57 16.83L39.96 16.24L39.96 16.24Q40.47 15.67 40.84 15.67L40.84 15.67L40.84 15.67Q41.05 15.67 41.10 15.52L41.10 15.52L41.10 15.52Q41.15 15.37 41.15 15.06L41.15 15.06L41.15 15.06Q41.31 13.96 41.64 11.42L41.64 11.42L41.64 11.42Q41.90 9.30 42.01 8.55L42.01 8.55L42.01 8.55Q42.01 7.94 42.19 7.32L42.19 7.32L42.19 7.32Q42.36 6.71 42.63 6.20L42.63 6.20L42.63 6.20Q42.84 5.39 43.19 4.72L43.19 4.72L43.19 4.72Q43.54 4.05 44.09 3.25L44.09 3.25L44.09 3.25Q44.11 3.22 44.23 3.12L44.23 3.12L44.23 3.12Q44.35 3.02 44.53 2.93L44.53 2.93L44.53 2.93Q44.72 2.84 44.91 2.84L44.91 2.84L44.91 2.84Q45.11 2.84 45.26 2.94L45.26 2.94L45.26 2.94Q45.56 3.08 45.84 3.46L45.84 3.46L45.84 3.46Q46.13 3.84 46.31 4.27L46.31 4.27L46.31 4.27Q46.49 4.70 46.49 5.01L46.49 5.01L46.49 5.01Q46.83 5.70 46.94 6.59L46.94 6.59L46.94 6.59Q47.05 7.57 47.33 10.78L47.33 10.78L47.33 10.78Q47.47 12.56 47.63 14.17L47.63 14.17L47.63 15.96L47.63 15.96Q47.63 16.03 47.68 16.12L47.68 16.12L47.68 16.12Q47.74 16.21 47.75 16.24L47.75 16.24L47.75 16.24Q47.91 16.42 47.91 16.55L47.91 16.55L47.91 16.55Q47.91 16.72 47.63 16.84L47.63 16.84L47.26 16.76L47.26 16.76Q46.84 16.76 46.42 16.80L46.42 16.80L46.42 16.80Q46.28 16.81 46.03 16.83L46.03 16.83L46.03 16.83Q45.78 16.84 45.57 16.84L45.57 16.84L45.57 16.84Q45.49 16.86 45.32 16.88L45.32 16.88L45.32 16.88Q45.15 16.90 45.05 16.90L45.05 16.90L45.05 16.90Q44.79 16.90 44.79 16.73L44.79 16.73L44.79 16.73Q44.79 16.58 44.92 16.32L44.92 16.32L44.92 16.32Q45.05 16.06 45.24 15.86L45.24 15.86L45.24 15.86Q45.43 15.65 45.57 15.65L45.57 15.65ZM44.09 4.70L44.09 4.70Q43.86 5.36 43.63 6.13L43.63 6.13L43.63 6.13Q43.40 6.90 43.20 7.67L43.20 7.67L43.20 7.67Q43.20 7.84 43.08 8.34L43.08 8.34L43.08 8.34Q42.94 8.96 42.94 9.17L42.94 9.17L42.94 9.17Q43.51 9.34 44.07 9.39L44.07 9.39L44.07 9.39Q44.62 9.44 45.26 9.44L45.26 9.44L45.26 7.67L45.26 7.67Q45.26 7.04 45.10 6.21L45.10 6.21L45.10 6.21Q44.94 5.38 44.70 4.70L44.70 4.70L44.70 4.70Q44.70 4.63 44.65 4.52L44.65 4.52L44.65 4.52Q44.59 4.41 44.39 4.41L44.39 4.41L44.09 4.70ZM54.57 10.33L54.57 10.33Q54.74 9.81 54.85 9.29L54.85 9.29L54.85 9.29Q54.96 8.76 55.04 8.31L55.04 8.31L55.04 8.31Q55.12 7.85 55.15 7.71L55.15 7.71L55.15 7.71Q55.22 7.35 55.40 6.69L55.40 6.69L55.66 5.64L55.79 5.18L55.79 5.18Q55.90 4.75 55.96 4.49L55.96 4.49L55.96 4.49Q56.01 4.24 56.01 3.96L56.01 3.96L56.01 3.96Q56.01 3.54 56.38 3.19L56.38 3.19L56.38 3.19Q56.74 2.83 57.18 2.83L57.18 2.83L58.90 2.83L58.90 2.83Q59.02 2.83 59.09 2.89L59.09 2.89L59.09 2.89Q59.15 2.95 59.25 3.09L59.25 3.09L59.25 3.09Q59.39 3.30 59.49 3.40L59.49 3.40L59.49 3.40Q59.29 3.60 59.13 3.70L59.13 3.70L59.13 3.70Q58.97 3.81 58.76 3.81L58.76 3.81L58.76 3.81Q58.55 3.81 58.32 3.70L58.32 3.70L58.32 3.70Q58.20 4.06 58.20 4.48L58.20 4.48L58.20 4.48Q58.20 4.70 58.25 5.18L58.25 5.18L58.25 5.18Q58.32 5.60 58.32 5.99L58.32 5.99L58.32 7.15L58.32 8.60L58.32 10.91L58.31 11.73L58.31 11.73Q58.30 11.93 58.30 12.31L58.30 12.31L58.30 12.31Q58.30 12.71 58.32 12.92L58.32 12.92L58.32 12.92Q58.38 13.44 58.38 14.01L58.38 14.01L58.38 14.01Q58.38 14.38 58.35 14.97L58.35 14.97L58.35 14.97Q58.32 15.55 58.32 15.81L58.32 15.81L58.32 15.81Q58.79 15.81 59.15 16.04L59.15 16.04L59.15 16.04Q59.51 16.28 59.51 16.53L59.51 16.53L59.51 16.53Q59.51 16.73 59.30 16.83L59.30 16.83L59.30 16.83Q59.12 16.83 59.00 16.79L59.00 16.79L59.00 16.79Q58.97 16.79 58.88 16.77L58.88 16.77L58.88 16.77Q58.80 16.74 58.69 16.74L58.69 16.74L58.69 16.74Q58.63 16.74 58.38 16.79L58.38 16.79L58.38 16.79Q58.21 16.84 58.06 16.84L58.06 16.84L57.55 16.74L57.55 16.74Q57.64 16.70 57.47 16.73L57.47 16.73L57.47 16.73Q57.30 16.76 57.08 16.79L57.08 16.79L57.08 16.79Q56.85 16.83 56.59 16.83L56.59 16.83L56.59 16.83Q56.59 16.73 56.55 16.69L56.55 16.69L56.55 16.69Q56.52 16.65 56.41 16.59L56.41 16.59L56.41 16.59Q56.31 16.53 56.31 16.39L56.31 16.39L56.31 16.39Q56.31 16.28 56.40 16.22L56.40 16.22L56.40 16.22Q56.49 16.16 56.70 16.07L56.70 16.07L56.70 16.07Q57.06 15.92 57.18 15.81L57.18 15.81L57.18 15.81Q56.98 14.49 56.98 12.61L56.98 12.61L56.98 12.61Q56.98 12.03 57.01 10.71L57.01 10.71L57.01 10.71Q57.04 9.76 57.04 9.27L57.04 9.27L57.04 9.27Q57.04 9.10 57.09 8.48L57.09 8.48L57.09 8.48Q57.18 7.78 57.18 7.45L57.18 7.45L57.18 6.29L57.18 6.29Q57.18 6.13 57.17 6.06L57.17 6.06L57.17 6.06Q57.16 5.98 57.06 5.74L57.06 5.74L57.08 5.47L57.08 5.47Q57.08 5.32 56.88 5.12L56.88 5.12L56.88 5.12Q56.88 5.14 56.90 5.20L56.90 5.20L56.90 5.20Q56.91 5.26 56.91 5.36L56.91 5.36L56.91 5.36Q56.91 5.57 56.84 5.71L56.84 5.71L56.84 5.71Q56.70 6.06 56.55 6.63L56.55 6.63L56.55 6.63Q56.41 7.20 56.28 7.78L56.28 7.78L56.28 7.78Q56.11 8.51 56.01 8.88L56.01 8.88L56.01 8.88Q55.99 8.97 55.90 9.28L55.90 9.28L55.90 9.28Q55.80 9.58 55.76 9.76L55.76 9.76L55.57 10.81L55.57 10.81Q55.33 12.00 55.26 12.32L55.26 12.32L55.26 12.32Q55.22 12.50 55.16 13.01L55.16 13.01L55.16 13.01Q55.10 13.54 55.04 13.81L55.04 13.81L55.04 13.81Q54.98 14.08 54.85 14.08L54.85 14.08L54.85 14.08Q54.67 14.08 54.42 13.93L54.42 13.93L54.42 13.93Q54.14 13.79 54.01 13.79L54.01 13.79L54.01 13.79Q54.01 13.48 53.96 13.24L53.96 13.24L53.96 13.24Q53.91 12.99 53.80 12.64L53.80 12.64L53.72 12.35L53.48 11.48L53.48 11.48Q53.41 11.24 53.27 10.73L53.27 10.73L53.27 10.73Q53.13 10.22 53.00 9.81L53.00 9.81L53.00 9.81Q52.68 8.78 52.42 8.08L52.42 8.08L52.42 8.08Q52.37 7.97 52.32 7.78L52.32 7.78L52.32 7.78Q52.26 7.59 52.18 7.43L52.18 7.43L52.18 7.43Q52.09 7.28 51.97 7.15L51.97 7.15L51.97 9.17L51.97 9.17Q51.97 9.52 51.84 10.30L51.84 10.30L51.84 10.30Q51.69 11.35 51.69 11.76L51.69 11.76L51.69 13.22L51.69 15.81L51.69 15.81Q51.97 15.81 52.12 15.86L52.12 15.86L52.12 15.86Q52.26 15.90 52.26 16.10L52.26 16.10L52.26 16.10Q52.26 16.45 51.87 16.58L51.87 16.58L51.87 16.58Q51.48 16.72 50.85 16.72L50.85 16.72L50.85 16.72Q50.54 16.72 50.06 16.69L50.06 16.69L49.67 16.67L49.67 16.67Q49.55 16.67 49.48 16.61L49.48 16.61L49.48 16.61Q49.42 16.55 49.32 16.41L49.32 16.41L49.32 16.41Q49.18 16.20 49.08 16.10L49.08 16.10L49.08 16.10Q49.18 16.00 49.26 15.89L49.26 15.89L49.26 15.89Q49.34 15.78 49.41 15.73L49.41 15.73L49.41 15.73Q49.48 15.68 49.57 15.68L49.57 15.68L49.57 15.68Q49.71 15.68 49.97 15.81L49.97 15.81L49.97 12.92L49.97 9.17L49.97 8.60L49.97 5.71L49.97 3.70L49.97 3.70Q49.81 3.70 49.69 3.75L49.69 3.75L49.69 3.75Q49.57 3.79 49.45 3.79L49.45 3.79L49.45 3.79Q49.36 3.79 49.27 3.77L49.27 3.77L49.27 3.77Q49.18 3.75 49.14 3.75L49.14 3.75L49.14 3.75Q48.94 3.70 48.80 3.70L48.80 3.70L48.80 3.70Q48.58 3.47 48.55 3.37L48.55 3.37L48.55 3.37Q48.51 3.26 48.51 2.83L48.51 2.83L48.51 2.83Q48.89 2.70 49.39 2.70L49.39 2.70L49.39 2.70Q50.41 2.70 51.69 3.11L51.69 3.11L51.69 3.11Q51.91 3.58 52.09 3.92L52.09 3.92L52.09 3.92Q52.26 4.26 52.37 4.48L52.37 4.48L52.37 4.48Q52.42 4.54 52.56 4.83L52.56 4.83L52.56 5.12L52.56 5.12Q52.86 5.74 53.12 6.46L53.12 6.46L53.12 6.46Q53.38 7.18 53.69 8.18L53.69 8.18L53.94 8.96L53.94 8.96Q54.05 9.30 54.16 9.53L54.16 9.53L54.16 9.53Q54.26 9.76 54.39 9.98L54.39 9.98L54.57 10.33ZM66.68 15.46L66.68 15.46Q66.54 15.71 66.32 15.95L66.32 15.95L66.32 15.95Q66.09 16.18 65.90 16.31L65.90 16.31L65.90 16.31Q65.09 16.83 64.18 16.83L64.18 16.83L64.18 16.83Q63.27 16.83 62.49 16.34L62.49 16.34L62.49 16.34Q61.71 15.86 61.33 15.16L61.33 15.16L61.33 15.16Q60.82 14.18 60.47 13.15L60.47 13.15L60.47 13.15Q60.28 12.40 60.24 11.64L60.24 11.64L60.24 11.64Q60.19 10.88 60.19 9.73L60.19 9.73L60.19 9.73Q60.19 9.55 60.16 9.21L60.16 9.21L60.16 9.21Q60.13 8.85 60.13 8.67L60.13 8.67L60.13 8.67Q60.13 8.34 60.19 8.01L60.19 8.01L60.19 8.01Q60.20 7.92 60.27 7.55L60.27 7.55L60.27 7.55Q60.34 7.17 60.34 6.92L60.34 6.92L60.34 6.92Q60.37 6.78 60.44 6.38L60.44 6.38L60.44 6.38Q60.49 6.01 60.56 5.78L60.56 5.78L60.56 5.78Q60.62 5.56 60.76 5.43L60.76 5.43L60.76 5.43Q60.91 5.22 61.22 4.75L61.22 4.75L61.22 4.75Q61.64 4.10 61.94 3.74L61.94 3.74L61.94 3.74Q62.24 3.37 62.70 3.11L62.70 3.11L62.70 3.11Q63.15 2.84 63.77 2.84L63.77 2.84L63.77 2.84Q64.05 2.84 64.20 2.87L64.20 2.87L64.20 2.87Q65.04 2.87 65.54 3.12L65.54 3.12L65.54 3.12Q66.04 3.37 66.47 4.02L66.47 4.02L66.47 4.02Q67.13 4.45 67.59 5.36L67.59 5.36L67.59 5.36Q68.04 6.27 68.14 7.36L68.14 7.36L68.14 7.36Q68.19 7.94 68.19 8.88L68.19 8.88L68.19 9.49L68.19 9.49Q68.19 10.92 67.96 11.91L67.96 11.91L67.96 11.91Q67.54 13.90 66.68 15.46L66.68 15.46ZM65.44 15.26L65.44 15.26Q65.62 14.80 65.85 14.08L65.85 14.08L65.85 14.08Q66.08 13.37 66.19 12.88L66.19 12.88L66.19 12.88Q66.37 12.31 66.42 11.73L66.42 11.73L66.42 11.73Q66.47 11.16 66.47 10.30L66.47 10.30L66.47 10.30Q66.47 10.01 66.53 9.56L66.53 9.56L66.53 9.56Q66.53 9.48 66.55 9.26L66.55 9.26L66.55 9.26Q66.57 9.04 66.57 8.85L66.57 8.85L66.57 8.85Q66.57 8.65 66.56 8.39L66.56 8.39L66.56 8.39Q66.54 8.13 66.53 7.99L66.53 7.99L66.53 7.99Q66.47 7.43 66.47 7.15L66.47 7.15L66.47 7.15Q66.33 6.87 66.19 6.31L66.19 6.31L66.19 6.31Q66.05 5.73 65.90 5.43L65.90 5.43L65.74 5.10L65.74 5.10Q65.49 4.55 65.30 4.24L65.30 4.24L65.30 4.24Q65.10 3.93 64.79 3.78L64.79 3.78L64.79 3.78Q64.51 3.78 64.23 3.75L64.23 3.75L64.23 3.75Q63.92 3.72 63.63 3.72L63.63 3.72L63.63 3.72Q63.21 4.14 62.96 4.60L62.96 4.60L62.96 4.60Q62.71 5.05 62.48 5.71L62.48 5.71L62.48 5.71Q62.29 6.09 62.24 6.48L62.24 6.48L62.24 6.48Q62.19 6.86 62.19 7.43L62.19 7.43L62.19 7.43Q62.08 8.33 62.08 9.42L62.08 9.42L62.08 9.42Q62.08 11.40 62.48 13.72L62.48 13.72L62.48 13.72Q62.58 13.92 62.64 14.14L62.64 14.14L62.64 14.14Q62.71 14.36 62.73 14.43L62.73 14.43L62.73 14.43Q62.82 14.73 62.88 14.89L62.88 14.89L62.88 14.89Q62.94 15.05 63.06 15.16L63.06 15.16L63.06 15.16Q63.17 15.16 63.20 15.20L63.20 15.20L63.20 15.20Q63.24 15.25 63.27 15.39L63.27 15.39L63.27 15.39Q63.29 15.53 63.38 15.61L63.38 15.61L63.38 15.61Q63.60 15.83 64.11 15.83L64.11 15.83L64.11 15.83Q64.54 15.83 64.94 15.67L64.94 15.67L64.94 15.67Q65.34 15.51 65.44 15.26L65.44 15.26ZM74.27 2.88L74.27 2.88Q74.51 3.01 74.87 3.01L74.87 3.01L74.87 3.01Q75.19 3.01 75.59 2.94L75.59 2.94L75.59 2.94Q76.01 2.88 76.17 2.88L76.17 2.88L76.17 2.88Q76.38 3.09 76.48 3.24L76.48 3.24L76.48 3.24Q76.58 3.39 76.58 3.58L76.58 3.58L76.58 3.58Q76.58 3.78 76.47 4.00L76.47 4.00L75.91 4.00L75.91 4.00Q75.78 4.24 75.72 4.48L75.72 4.48L75.72 4.48Q75.66 4.72 75.57 5.14L75.57 5.14L75.57 5.14Q75.50 5.52 75.40 5.92L75.40 5.92L75.40 5.92Q75.12 6.97 74.84 8.21L74.84 8.21L74.84 8.21Q74.56 9.45 74.33 10.60L74.33 10.60L74.33 10.60Q73.88 12.68 73.59 13.90L73.59 13.90L73.59 13.90Q73.30 15.11 72.90 16.35L72.90 16.35L72.90 16.35Q72.70 16.65 72.53 16.65L72.53 16.65L72.53 16.65Q72.35 16.65 72.21 16.35L72.21 16.35L72.21 16.35Q72.06 16.06 71.89 15.53L71.89 15.53L71.89 15.53Q71.83 15.40 71.79 15.25L71.79 15.25L71.79 15.25Q71.53 14.71 71.53 13.87L71.53 13.87L71.53 13.87Q71.33 13.13 70.78 10.91L70.78 10.91L70.70 10.58L70.70 10.58Q70.41 9.73 70.22 8.82L70.22 8.82L70.22 8.82Q70.04 7.91 69.85 6.69L69.85 6.69L69.68 5.64L69.68 5.64Q69.45 4.40 69.45 4.09L69.45 4.09L69.45 4.09Q69.45 3.91 69.17 3.91L69.17 3.91L68.80 3.92L68.80 3.92Q68.80 3.79 68.77 3.51L68.77 3.51L68.77 3.51Q68.73 3.30 68.73 3.11L68.73 3.11L68.73 3.11Q68.73 2.93 69.09 2.93L69.09 2.93L69.50 2.94L69.50 2.94Q70.91 2.94 71.53 2.90L71.53 2.90L71.53 2.90Q71.78 2.88 71.90 3.02L71.90 3.02L71.90 3.02Q72.03 3.16 72.03 3.39L72.03 3.39L72.03 3.39Q72.03 3.71 71.81 3.99L71.81 3.99L71.81 3.99Q71.58 4.27 71.23 4.27L71.23 4.27L71.23 4.27Q71.23 4.96 71.36 5.76L71.36 5.76L71.36 5.76Q71.48 6.57 71.72 7.71L71.72 7.71L71.72 7.71Q71.74 7.85 71.79 8.11L71.79 8.11L71.79 8.11Q72.07 9.81 72.30 10.84L72.30 10.84L72.30 10.84Q72.52 11.87 72.90 12.78L72.90 12.78L72.90 12.78Q72.91 12.59 73.12 11.89L73.12 11.89L73.12 11.89Q73.43 10.91 73.43 10.58L73.43 10.58L73.43 10.58Q73.53 10.11 73.69 9.53L73.69 9.53L73.69 9.53Q73.85 8.95 73.92 8.69L73.92 8.69L73.92 8.69Q74.27 7.42 74.47 6.50L74.47 6.50L74.47 6.50Q74.68 5.59 74.80 4.55L74.80 4.55L74.80 4.55Q74.80 4.45 74.87 4.35L74.87 4.35L74.87 4.35Q74.93 4.24 74.93 4.20L74.93 4.20L74.93 4.20Q74.93 4.12 74.80 4.00L74.80 4.00L74.80 4.00Q74.70 3.91 74.45 3.77L74.45 3.77L74.45 3.77Q74.20 3.64 74.09 3.53L74.09 3.53L74.09 3.53Q73.98 3.42 73.98 3.18L73.98 3.18L73.98 3.18Q74.00 3.18 74.07 3.16L74.07 3.16L74.07 3.16Q74.14 3.15 74.21 3.08L74.21 3.08L74.21 3.08Q74.27 3.01 74.27 2.88L74.27 2.88ZM79.80 3.85L79.80 3.85Q79.67 4.19 79.67 4.66L79.67 4.66L79.67 4.66Q79.67 5.04 79.74 5.50L79.74 5.50L79.74 5.50Q79.76 5.60 79.79 5.90L79.79 5.90L79.79 5.90Q79.81 6.20 79.80 6.44L79.80 6.44L79.80 6.44Q79.77 7.29 79.69 9.17L79.69 9.17L79.69 9.17Q79.62 10.77 79.56 12.49L79.56 12.49L79.56 12.49Q79.51 14.21 79.51 15.65L79.51 15.65L79.51 15.65Q79.65 15.79 79.95 15.95L79.95 15.95L79.95 15.95Q80.23 16.09 80.36 16.21L80.36 16.21L80.36 16.21Q80.36 16.34 80.30 16.40L80.30 16.40L80.30 16.40Q80.25 16.46 80.11 16.56L80.11 16.56L80.11 16.56Q79.94 16.66 79.80 16.80L79.80 16.80L79.80 16.80Q79.65 16.73 79.27 16.67L79.27 16.67L79.27 16.67Q79.07 16.66 78.61 16.66L78.61 16.66L78.61 16.66Q78.13 16.66 77.82 16.63L77.82 16.63L77.82 16.63Q77.50 16.60 77.21 16.51L77.21 16.51L77.21 16.51Q77.18 16.49 77.13 16.41L77.13 16.41L77.13 16.41Q77.08 16.32 77.08 16.21L77.08 16.21L77.08 16.21Q77.08 16.06 77.21 15.95L77.21 15.95L77.21 15.95Q77.21 15.85 77.25 15.83L77.25 15.83L77.25 15.83Q77.29 15.81 77.39 15.81L77.39 15.81L77.39 15.81Q77.52 15.81 77.57 15.79L77.57 15.79L77.57 15.79Q77.71 15.74 77.77 15.65L77.77 15.65L77.77 15.65Q77.90 15.53 77.90 15.29L77.90 15.29L77.90 15.29Q77.90 15.18 77.87 15.03L77.87 15.03L77.87 15.03Q77.84 14.88 77.83 14.83L77.83 14.83L77.83 14.83Q77.77 14.57 77.77 14.50L77.77 14.50L77.77 14.50Q77.77 14.07 77.80 13.23L77.80 13.23L77.81 12.00L77.81 12.00Q77.80 11.93 77.78 11.74L77.78 11.74L77.78 11.74Q77.77 11.55 77.77 11.33L77.77 11.33L77.77 8.74L77.77 3.85L77.77 3.85Q77.50 3.85 77.36 3.80L77.36 3.80L77.36 3.80Q77.21 3.75 77.21 3.56L77.21 3.56L77.21 2.98L77.21 2.98Q77.21 2.86 77.31 2.86L77.31 2.86L77.31 2.86Q77.35 2.86 77.59 2.92L77.59 2.92L77.59 2.92Q77.83 2.98 78.06 2.98L78.06 2.98L78.06 2.98Q78.22 2.98 78.72 2.93L78.72 2.93L78.72 2.93Q78.83 2.91 79.13 2.88L79.13 2.88L79.13 2.88Q79.42 2.86 79.65 2.86L79.65 2.86L79.65 2.86Q80.12 2.86 80.36 2.98L80.36 2.98L80.36 2.98Q80.47 3.09 80.47 3.26L80.47 3.26L80.47 3.26Q80.47 3.49 80.28 3.67L80.28 3.67L80.28 3.67Q80.09 3.85 79.80 3.85L79.80 3.85ZM87.07 5.08L87.07 5.08Q87.00 4.98 86.94 4.82L86.94 4.82L86.94 4.82Q86.93 4.72 86.93 4.51L86.93 4.51L86.93 4.51Q86.93 4.28 86.90 4.16L86.90 4.16L86.90 4.16Q86.87 4.03 86.77 3.95L86.77 3.95L86.77 3.95Q86.49 3.79 86.20 3.65L86.20 3.65L86.20 3.65Q85.55 3.65 85.07 3.70L85.07 3.70L85.07 3.70Q84.59 3.75 84.21 3.95L84.21 3.95L84.21 3.95Q84.06 4.09 84.01 4.30L84.01 4.30L84.01 4.30Q83.96 4.52 83.96 4.90L83.96 4.90L83.96 4.90Q83.96 5.56 83.93 6.26L83.93 6.26L83.92 7.07L83.92 7.07Q83.92 7.28 83.99 7.91L83.99 7.91L83.99 7.91Q84.04 8.33 84.04 8.50L84.04 8.50L84.04 8.50Q84.04 8.83 83.92 9.09L83.92 9.09L83.92 9.09Q84.11 9.25 84.55 9.30L84.55 9.30L84.55 9.30Q84.99 9.35 85.62 9.35L85.62 9.35L85.62 9.35Q85.62 9.00 85.67 8.76L85.67 8.76L85.67 8.76Q85.72 8.51 85.92 8.51L85.92 8.51L85.92 8.51Q86.13 8.51 86.20 8.55L86.20 8.55L86.20 8.55Q86.27 8.58 86.49 8.79L86.49 8.79L86.49 8.79Q86.42 8.93 86.42 9.10L86.42 9.10L86.42 9.10Q86.41 9.17 86.41 9.34L86.41 9.34L86.41 9.34Q86.41 9.63 86.45 9.95L86.45 9.95L86.45 9.95Q86.48 10.35 86.48 10.51L86.48 10.51L86.48 10.51Q86.48 10.79 86.42 10.94L86.42 10.94L86.42 10.94Q86.35 11.09 86.20 11.09L86.20 11.09L86.20 11.09Q86.16 11.06 86.02 10.98L86.02 10.98L86.02 10.98Q85.88 10.89 85.75 10.77L85.75 10.77L85.75 10.77Q85.62 10.64 85.62 10.51L85.62 10.51L85.62 10.22L84.21 10.22L84.21 10.22Q84.06 10.67 84.06 11.41L84.06 11.41L84.06 11.41Q84.06 11.89 84.10 12.35L84.10 12.35L84.10 12.35Q84.13 12.91 84.13 13.12L84.13 13.12L84.13 13.12Q84.13 13.17 84.17 14.64L84.17 14.64L84.17 14.64Q84.21 15.26 84.21 15.65L84.21 15.65L84.21 15.65Q84.78 15.85 85.24 15.89L85.24 15.89L85.24 15.89Q85.69 15.93 86.49 15.93L86.49 15.93L86.49 15.93Q86.70 15.83 86.74 15.64L86.74 15.64L86.74 15.64Q86.79 15.51 86.79 15.23L86.79 15.23L86.79 15.23Q86.79 14.94 86.84 14.78L86.84 14.78L86.84 14.78Q86.88 14.62 87.07 14.52L87.07 14.52L87.07 14.52Q87.44 14.52 87.54 14.90L87.54 14.90L87.54 14.90Q87.64 15.29 87.64 15.93L87.64 15.93L87.64 15.93Q87.64 16.13 87.51 16.30L87.51 16.30L87.51 16.30Q87.37 16.48 87.07 16.80L87.07 16.80L85.62 16.80L85.62 16.80Q84.20 16.80 83.20 16.75L83.20 16.75L83.20 16.75Q82.19 16.70 81.06 16.51L81.06 16.51L81.06 15.93L82.21 15.93L82.21 15.93Q82.33 15.19 82.33 14.31L82.33 14.31L82.33 14.31Q82.33 13.82 82.28 12.78L82.28 12.78L82.28 12.78Q82.21 11.87 82.21 11.09L82.21 11.09L82.21 10.51L82.21 7.64L82.21 6.51L82.21 3.95L81.06 3.95L81.06 3.37L81.06 3.37Q81.65 3.22 82.82 3.08L82.82 3.08L82.82 3.08Q83.94 2.94 84.49 2.80L84.49 2.80L87.35 2.80L87.35 2.80Q87.37 2.83 87.44 2.91L87.44 2.91L87.44 2.91Q87.51 2.98 87.58 3.12L87.58 3.12L87.58 3.12Q87.64 3.25 87.64 3.37L87.64 3.37L87.64 3.37Q87.64 3.54 87.71 3.85L87.71 3.85L87.71 3.85Q87.78 4.34 87.78 4.44L87.78 4.44L87.78 4.44Q87.78 4.75 87.63 4.91L87.63 4.91L87.63 4.91Q87.47 5.08 87.07 5.08L87.07 5.08ZM92.88 3.37L92.88 3.37Q92.88 3.29 92.93 3.18L92.93 3.18L92.93 3.18Q92.99 3.07 93.18 3.07L93.18 3.07L93.18 3.07Q93.48 3.07 93.62 3.12L93.62 3.12L93.62 3.12Q93.76 3.16 93.76 3.37L93.76 3.37L93.76 3.37Q93.90 3.51 93.90 3.74L93.90 3.74L93.90 3.74Q93.90 3.91 93.81 4.21L93.81 4.21L93.81 4.21Q93.76 4.47 93.76 4.54L93.76 4.54L93.76 4.54Q93.72 4.63 93.56 5.01L93.56 5.01L93.56 5.01Q93.39 5.38 93.21 5.59L93.21 5.59L93.21 5.59Q93.02 5.80 92.81 5.80L92.81 5.80L92.81 5.80Q92.68 5.80 92.57 5.74L92.57 5.74L92.57 5.74Q92.44 5.61 92.44 5.36L92.44 5.36L92.44 5.36Q92.44 5.24 92.50 4.87L92.50 4.87L92.50 4.87Q92.57 4.38 92.57 4.26L92.57 4.26L92.57 4.26Q92.34 4.02 91.92 3.84L91.92 3.84L91.92 3.84Q91.50 3.65 91.08 3.65L91.08 3.65L91.08 3.65Q90.86 4.09 90.86 5.00L90.86 5.00L90.86 5.00Q90.86 5.91 91.08 6.36L91.08 6.36L91.08 6.36Q91.27 6.73 91.60 7.02L91.60 7.02L91.60 7.02Q91.92 7.31 92.50 7.70L92.50 7.70L92.50 7.70Q93.13 8.13 93.52 8.48L93.52 8.48L93.52 8.48Q93.91 8.82 94.19 9.31L94.19 9.31L94.19 9.31Q94.54 9.91 94.77 10.37L94.77 10.37L94.77 10.37Q94.99 10.81 95.10 11.33L95.10 11.33L95.10 11.33Q95.21 11.84 95.21 12.33L95.21 12.33L95.21 12.33Q95.21 13.17 95.08 13.76L95.08 13.76L95.08 13.76Q94.95 14.34 94.65 14.99L94.65 14.99L94.65 14.99Q94.32 15.72 93.76 16.14L93.76 16.14L93.76 16.14Q93.20 16.55 92.29 16.77L92.29 16.77L91.08 16.77L91.08 16.77Q90.71 16.77 90.18 16.37L90.18 16.37L90.18 16.37Q89.66 15.96 89.31 15.58L89.31 15.58L89.31 15.58Q88.87 14.77 88.87 13.87L88.87 13.87L88.87 13.87Q88.87 13.44 89.00 12.91L89.00 12.91L89.00 12.91Q88.84 12.91 88.69 13.06L88.69 13.06L88.69 13.06Q88.56 13.22 88.41 13.22L88.41 13.22L88.41 13.22Q88.20 13.01 88.15 12.80L88.15 12.80L88.15 12.80Q88.10 12.60 88.10 12.32L88.10 12.32L88.10 12.32Q88.58 12.15 89.21 12.05L89.21 12.05L89.21 12.05Q89.52 12.00 89.85 11.91L89.85 11.91L89.85 11.91Q90.19 11.83 90.50 11.70L90.50 11.70L90.50 11.70Q90.82 11.70 91.01 11.91L91.01 11.91L91.01 11.91Q91.21 12.12 91.21 12.43L91.21 12.43L91.21 12.43Q91.21 12.67 91.08 12.91L91.08 12.91L91.08 12.91Q90.79 12.91 90.59 12.96L90.59 12.96L90.59 12.96Q90.40 13.01 90.19 13.22L90.19 13.22L90.19 13.22Q89.88 13.52 89.88 14.17L89.88 14.17L89.88 14.17Q89.88 14.73 90.13 15.24L90.13 15.24L90.13 15.24Q90.37 15.75 90.78 15.89L90.78 15.89L90.78 15.89Q90.96 15.89 91.08 15.74L91.08 15.74L91.08 15.74Q91.10 15.72 91.18 15.65L91.18 15.65L91.18 15.65Q91.27 15.58 91.39 15.58L91.39 15.58L91.39 15.58Q92.37 15.09 92.88 14.05L92.88 14.05L92.88 14.05Q93.39 13.01 93.39 11.68L93.39 11.68L93.39 11.68Q93.39 10.81 93.18 9.93L93.18 9.93L93.18 9.93Q92.95 9.48 92.69 9.22L92.69 9.22L92.69 9.22Q92.43 8.96 91.98 8.72L91.98 8.72L91.98 8.72Q91.57 8.53 91.32 8.32L91.32 8.32L91.32 8.32Q91.07 8.12 90.78 7.83L90.78 7.83L90.78 7.83Q90.64 7.69 90.40 7.55L90.40 7.55L90.40 7.55Q90.03 7.34 89.78 7.07L89.78 7.07L89.78 7.07Q89.70 6.97 89.38 6.65L89.38 6.65L89.38 6.65Q89.05 6.33 88.87 6.03L88.87 6.03L88.87 6.03Q88.69 5.73 88.69 5.46L88.69 5.46L88.69 5.46Q88.62 5.25 88.62 4.97L88.62 4.97L88.62 4.97Q88.62 4.03 89.59 3.07L89.59 3.07L89.59 3.07Q89.70 3.07 89.82 3.02L89.82 3.02L89.82 3.02Q89.95 2.97 89.99 2.95L89.99 2.95L89.99 2.95Q90.38 2.76 90.78 2.76L90.78 2.76L90.78 2.76Q91.04 2.76 91.22 2.79L91.22 2.79L91.22 2.79Q91.41 2.83 91.67 2.91L91.67 2.91L92.29 3.07L92.29 3.07Q92.32 3.09 92.40 3.16L92.40 3.16L92.40 3.16Q92.48 3.23 92.61 3.30L92.61 3.30L92.61 3.30Q92.74 3.37 92.88 3.37L92.88 3.37Z"></path></g><!----><!----></svg>