<?xml version="1.0" encoding="utf-8"?>
<!-- Generator: Adobe Illustrator 25.2.3, SVG Export Plug-In . SVG Version: 6.00 Build 0)  -->
<svg version="1.1" id="Capa_1" xmlns="http://www.w3.org/2000/svg" xmlns:xlink="http://www.w3.org/1999/xlink" x="0px" y="0px"
	 viewBox="0 0 512 512" style="enable-background:new 0 0 512 512;" xml:space="preserve">
<style type="text/css">
	.st0{fill:#3B4A51;}
	.st1{fill:#293939;}
	.st2{fill:#FED843;}
	.st3{fill:#FABE2C;}
	.st4{fill:#DAF1F8;}
	.st5{fill:#BFE7F6;}
</style>
<g>
	<path class="st0" d="M277.5,234.5l-21.2-21.2L4.4,465.2c-5.9,5.9-5.9,15.4,0,21.2L15,497l10.6,10.6c5.9,5.9,15.4,5.9,21.2,0
		l251.9-251.9L277.5,234.5z"/>
	<path class="st1" d="M46.8,507.6l251.9-251.9l-21.2-21.2L15,497l10.6,10.6C31.5,513.5,41,513.5,46.8,507.6L46.8,507.6z"/>
	<g>
		<path class="st2" d="M269.8,47.9l-7.8-29c-2.1-8,2.6-16.2,10.6-18.4s16.2,2.6,18.4,10.6l7.8,29c2.1,8-2.6,16.2-10.6,18.4
			C280.1,60.6,271.9,55.8,269.8,47.9z"/>
	</g>
	<g>
		<path class="st3" d="M355.2,366.6l-7.8-29c-2.1-8,2.6-16.2,10.6-18.4c8-2.2,16.2,2.6,18.4,10.6l7.8,29c2.1,8-2.6,16.2-10.6,18.4
			C365.5,379.4,357.3,374.6,355.2,366.6z"/>
	</g>
	<g>
		<path class="st2" d="M134.8,138.4c2.1-8,10.4-12.8,18.4-10.6l29,7.8c8,2.1,12.7,10.4,10.6,18.4c-2.1,8-10.4,12.8-18.4,10.6
			l-29-7.8C137.5,154.7,132.6,146.5,134.8,138.4z"/>
	</g>
	<g>
		<path class="st3" d="M453.5,223.8c2.1-8,10.4-12.8,18.4-10.6l29,7.8c8,2.1,12.8,10.4,10.6,18.4s-10.4,12.8-18.4,10.6l-29-7.8
			C456.2,240.1,451.4,231.9,453.5,223.8z"/>
	</g>
	<path class="st2" d="M461,51c-5.9-5.9-15.4-5.9-21.2,0l-21.2,21.2c-5.9,5.9-5.9,15.4,0,21.2c5.9,5.9,15.4,5.9,21.2,0L461,72.2
		C466.9,66.3,466.9,56.9,461,51z"/>
	<path class="st3" d="M439.8,93.4L461,72.2c5.9-5.9,5.9-15.3,0-21.2l-42.4,42.4C424.4,99.3,433.9,99.3,439.8,93.4L439.8,93.4z"/>
	<path class="st2" d="M482.5,146.2c-1.6-5.9-6.6-10.3-12.7-11l-83-9.9v0l-9.9-83c-0.7-6.1-5.1-11.1-11-12.7
		c-5.9-1.6-12.2,0.6-15.9,5.5l-50.1,67L223,69c-5.6-2.4-12.2-1.2-16.5,3.2c-4.3,4.3-5.6,10.9-3.2,16.5l32.9,76.9l-67,50.1
		c-4.9,3.7-7.1,10-5.5,15.9c1.6,5.9,6.6,10.3,12.7,11l83.1,9.9l9.9,83.1c0.7,6.2,5.2,11.2,11,12.7c5.9,1.6,12.2-0.6,15.9-5.5
		l50.1-67l76.9,32.9c5.6,2.4,12.2,1.2,16.5-3.2s5.6-10.9,3.2-16.5l-33-76.9l67-50.1C481.9,158.4,484.1,152.1,482.5,146.2
		L482.5,146.2z"/>
	<path class="st3" d="M280.4,348.3c5.9,1.6,12.2-0.6,15.9-5.5l50.1-67l76.9,32.9c5.6,2.4,12.2,1.2,16.5-3.2s5.6-10.9,3.2-16.5
		l-33-76.9l67-50.1c4.9-3.7,7.1-10,5.5-15.9c-1.6-5.9-6.6-10.3-12.7-11l-83-9.9v0L259.5,252.5l9.9,83.1
		C270.1,341.7,274.6,346.7,280.4,348.3L280.4,348.3z"/>
</g>
<g>
	<path class="st4" d="M359.5,149.9l-7.1-59.5c-0.3-2.7-3.8-3.6-5.4-1.4l-35.9,48c-0.8,1.1-2.3,1.5-3.6,1l-55-23.6
		c-2.5-1.1-5,1.5-3.9,3.9l23.6,55c0.5,1.3,0.1,2.8-1,3.6l-47.9,35.9c-2.2,1.6-1.2,5.1,1.4,5.4l59.5,7.1c0.7,0.1,1.3,0.4,1.8,0.9
		l74.4-74.4C359.9,151.2,359.6,150.6,359.5,149.9z"/>
	<path class="st5" d="M421.6,159.6l-59.5-7.1c-0.7-0.1-1.3-0.4-1.8-0.9l-74.4,74.4c0.5,0.5,0.8,1.1,0.9,1.8l7.1,59.5
		c0.3,2.7,3.8,3.6,5.4,1.4l35.9-47.9c0.8-1.1,2.3-1.5,3.6-1l55,23.6c2.5,1.1,5-1.5,3.9-3.9l-23.6-55c-0.5-1.3-0.1-2.8,1-3.6l48-35.9
		C425.2,163.4,424.2,159.9,421.6,159.6z"/>
</g>
</svg>
